STARTFONT 2.1
COMMENT
COMMENT Converted from OpenType font "SeoulNamsanL.ttf" by "otf2bdf 3.0".
COMMENT
FONT -FreeType-SeoulNamsan-Medium-R-Normal--12-90-100-100-P-101-ISO10646-1
SIZE 9 100 100
FONTBOUNDINGBOX 12 14 0 -3
STARTPROPERTIES 19
FOUNDRY "FreeType"
FAMILY_NAME "SeoulNamsan"
WEIGHT_NAME "Medium"
SLANT "R"
SETWIDTH_NAME "Normal"
ADD_STYLE_NAME ""
PIXEL_SIZE 12
POINT_SIZE 90
RESOLUTION_X 100
RESOLUTION_Y 100
SPACING "P"
AVERAGE_WIDTH 101
CHARSET_REGISTRY "ISO10646"
CHARSET_ENCODING "1"
FONT_ASCENT 10
FONT_DESCENT 2
COPYRIGHT "Copyright(c)2008. Seoul Metropolitan Government. All rights reserved."
_OTF_FONTFILE "SeoulNamsanL.ttf"
_OTF_PSNAME "SeoulNamsanL"
ENDPROPERTIES
CHARS 18532
STARTCHAR 0020
ENCODING 32
SWIDTH 320 0
DWIDTH 4 0
BBX 0 0 0 0
BITMAP
ENDCHAR
STARTCHAR 0021
ENCODING 33
SWIDTH 320 0
DWIDTH 4 0
BBX 1 9 1 0
BITMAP
80
80
80
80
80
00
00
00
80
ENDCHAR
STARTCHAR 0022
ENCODING 34
SWIDTH 400 0
DWIDTH 5 0
BBX 3 2 1 7
BITMAP
A0
A0
ENDCHAR
STARTCHAR 0023
ENCODING 35
SWIDTH 640 0
DWIDTH 8 0
BBX 5 8 1 0
BITMAP
28
28
28
58
50
78
90
10
ENDCHAR
STARTCHAR 0024
ENCODING 36
SWIDTH 560 0
DWIDTH 7 0
BBX 5 10 1 -1
BITMAP
20
F8
A0
A0
60
30
28
A8
B0
60
ENDCHAR
STARTCHAR 0025
ENCODING 37
SWIDTH 880 0
DWIDTH 11 0
BBX 10 8 0 0
BITMAP
7200
9400
9400
95C0
5A40
2A40
0A40
01C0
ENDCHAR
STARTCHAR 0026
ENCODING 38
SWIDTH 800 0
DWIDTH 10 0
BBX 8 9 1 0
BITMAP
38
44
48
30
30
C8
86
86
79
ENDCHAR
STARTCHAR 0027
ENCODING 39
SWIDTH 320 0
DWIDTH 4 0
BBX 1 2 1 7
BITMAP
80
80
ENDCHAR
STARTCHAR 0028
ENCODING 40
SWIDTH 320 0
DWIDTH 4 0
BBX 3 12 1 -2
BITMAP
20
40
40
80
80
80
80
80
80
40
40
20
ENDCHAR
STARTCHAR 0029
ENCODING 41
SWIDTH 320 0
DWIDTH 4 0
BBX 2 10 1 -1
BITMAP
80
80
40
40
40
40
40
40
80
80
ENDCHAR
STARTCHAR 002A
ENCODING 42
SWIDTH 400 0
DWIDTH 5 0
BBX 2 4 1 5
BITMAP
80
40
C0
80
ENDCHAR
STARTCHAR 002B
ENCODING 43
SWIDTH 560 0
DWIDTH 7 0
BBX 5 5 1 2
BITMAP
20
20
F8
20
20
ENDCHAR
STARTCHAR 002C
ENCODING 44
SWIDTH 320 0
DWIDTH 4 0
BBX 1 2 1 -2
BITMAP
80
80
ENDCHAR
STARTCHAR 002D
ENCODING 45
SWIDTH 400 0
DWIDTH 5 0
BBX 4 1 1 4
BITMAP
F0
ENDCHAR
STARTCHAR 002E
ENCODING 46
SWIDTH 320 0
DWIDTH 4 0
BBX 1 1 1 -1
BITMAP
80
ENDCHAR
STARTCHAR 002F
ENCODING 47
SWIDTH 400 0
DWIDTH 5 0
BBX 4 12 0 -2
BITMAP
10
10
20
20
20
20
40
40
40
40
80
80
ENDCHAR
STARTCHAR 0030
ENCODING 48
SWIDTH 480 0
DWIDTH 6 0
BBX 6 9 0 0
BITMAP
30
48
84
84
84
84
84
48
38
ENDCHAR
STARTCHAR 0031
ENCODING 49
SWIDTH 480 0
DWIDTH 6 0
BBX 3 9 1 0
BITMAP
60
A0
20
20
20
20
20
20
20
ENDCHAR
STARTCHAR 0032
ENCODING 50
SWIDTH 480 0
DWIDTH 6 0
BBX 5 9 1 0
BITMAP
60
90
08
10
10
20
40
40
F8
ENDCHAR
STARTCHAR 0033
ENCODING 51
SWIDTH 480 0
DWIDTH 6 0
BBX 5 9 1 0
BITMAP
70
90
08
10
20
10
08
08
F0
ENDCHAR
STARTCHAR 0034
ENCODING 52
SWIDTH 480 0
DWIDTH 6 0
BBX 6 9 0 0
BITMAP
08
18
28
28
48
88
FC
08
08
ENDCHAR
STARTCHAR 0035
ENCODING 53
SWIDTH 480 0
DWIDTH 6 0
BBX 5 9 1 0
BITMAP
F0
80
80
80
F0
08
08
08
F0
ENDCHAR
STARTCHAR 0036
ENCODING 54
SWIDTH 480 0
DWIDTH 6 0
BBX 5 9 1 0
BITMAP
70
88
80
80
F0
88
88
88
70
ENDCHAR
STARTCHAR 0037
ENCODING 55
SWIDTH 480 0
DWIDTH 6 0
BBX 5 9 1 0
BITMAP
F8
08
10
10
20
20
20
40
40
ENDCHAR
STARTCHAR 0038
ENCODING 56
SWIDTH 480 0
DWIDTH 6 0
BBX 5 9 1 0
BITMAP
70
88
88
90
70
88
88
88
F0
ENDCHAR
STARTCHAR 0039
ENCODING 57
SWIDTH 480 0
DWIDTH 6 0
BBX 6 9 0 0
BITMAP
30
C8
88
84
4C
34
04
08
78
ENDCHAR
STARTCHAR 003A
ENCODING 58
SWIDTH 240 0
DWIDTH 3 0
BBX 1 6 1 1
BITMAP
80
00
00
00
00
80
ENDCHAR
STARTCHAR 003B
ENCODING 59
SWIDTH 240 0
DWIDTH 3 0
BBX 1 8 1 -1
BITMAP
80
00
00
00
00
80
80
80
ENDCHAR
STARTCHAR 003C
ENCODING 60
SWIDTH 560 0
DWIDTH 7 0
BBX 4 6 2 1
BITMAP
10
20
C0
80
40
30
ENDCHAR
STARTCHAR 003D
ENCODING 61
SWIDTH 560 0
DWIDTH 7 0
BBX 6 3 1 3
BITMAP
FC
00
FC
ENDCHAR
STARTCHAR 003E
ENCODING 62
SWIDTH 560 0
DWIDTH 7 0
BBX 5 6 1 1
BITMAP
80
60
10
08
30
C0
ENDCHAR
STARTCHAR 003F
ENCODING 63
SWIDTH 400 0
DWIDTH 5 0
BBX 4 10 1 -1
BITMAP
E0
10
10
10
20
40
80
00
00
40
ENDCHAR
STARTCHAR 0040
ENCODING 64
SWIDTH 880 0
DWIDTH 11 0
BBX 10 10 1 -1
BITMAP
1E00
2180
CC80
9340
A240
A240
A480
A500
9A80
7F00
ENDCHAR
STARTCHAR 0041
ENCODING 65
SWIDTH 640 0
DWIDTH 8 0
BBX 7 9 0 0
BITMAP
10
18
28
24
24
44
7A
42
82
ENDCHAR
STARTCHAR 0042
ENCODING 66
SWIDTH 560 0
DWIDTH 7 0
BBX 6 9 1 0
BITMAP
F0
88
88
88
F0
8C
84
84
F8
ENDCHAR
STARTCHAR 0043
ENCODING 67
SWIDTH 640 0
DWIDTH 8 0
BBX 6 9 1 0
BITMAP
38
44
80
80
80
80
80
40
3C
ENDCHAR
STARTCHAR 0044
ENCODING 68
SWIDTH 640 0
DWIDTH 8 0
BBX 7 9 1 0
BITMAP
F0
8C
84
84
82
82
84
84
F8
ENDCHAR
STARTCHAR 0045
ENCODING 69
SWIDTH 560 0
DWIDTH 7 0
BBX 5 9 1 0
BITMAP
F8
80
80
80
F8
80
80
80
F8
ENDCHAR
STARTCHAR 0046
ENCODING 70
SWIDTH 480 0
DWIDTH 6 0
BBX 5 9 1 0
BITMAP
F8
80
80
80
F8
80
80
80
80
ENDCHAR
STARTCHAR 0047
ENCODING 71
SWIDTH 640 0
DWIDTH 8 0
BBX 7 9 1 0
BITMAP
38
44
80
80
8E
82
82
42
3E
ENDCHAR
STARTCHAR 0048
ENCODING 72
SWIDTH 640 0
DWIDTH 8 0
BBX 6 9 1 0
BITMAP
84
84
84
84
FC
84
84
84
84
ENDCHAR
STARTCHAR 0049
ENCODING 73
SWIDTH 240 0
DWIDTH 3 0
BBX 1 9 1 0
BITMAP
80
80
80
80
80
80
80
80
80
ENDCHAR
STARTCHAR 004A
ENCODING 74
SWIDTH 400 0
DWIDTH 5 0
BBX 3 8 0 1
BITMAP
20
20
20
20
20
20
20
E0
ENDCHAR
STARTCHAR 004B
ENCODING 75
SWIDTH 560 0
DWIDTH 7 0
BBX 6 9 1 0
BITMAP
88
90
A0
A0
C0
A0
90
88
84
ENDCHAR
STARTCHAR 004C
ENCODING 76
SWIDTH 480 0
DWIDTH 6 0
BBX 5 9 1 0
BITMAP
80
80
80
80
80
80
80
80
F8
ENDCHAR
STARTCHAR 004D
ENCODING 77
SWIDTH 800 0
DWIDTH 10 0
BBX 8 9 1 0
BITMAP
81
C3
C3
A3
A5
A5
99
99
88
ENDCHAR
STARTCHAR 004E
ENCODING 78
SWIDTH 640 0
DWIDTH 8 0
BBX 6 9 1 0
BITMAP
84
C4
C4
A4
94
94
8C
8C
84
ENDCHAR
STARTCHAR 004F
ENCODING 79
SWIDTH 720 0
DWIDTH 9 0
BBX 8 9 1 0
BITMAP
3C
42
82
82
81
82
82
82
7C
ENDCHAR
STARTCHAR 0050
ENCODING 80
SWIDTH 560 0
DWIDTH 7 0
BBX 6 9 1 0
BITMAP
F0
88
84
88
B8
80
80
80
80
ENDCHAR
STARTCHAR 0051
ENCODING 81
SWIDTH 720 0
DWIDTH 9 0
BBX 8 9 1 0
BITMAP
3C
42
82
82
81
82
82
82
7F
ENDCHAR
STARTCHAR 0052
ENCODING 82
SWIDTH 560 0
DWIDTH 7 0
BBX 6 9 1 0
BITMAP
F0
88
84
88
B8
88
88
88
84
ENDCHAR
STARTCHAR 0053
ENCODING 83
SWIDTH 560 0
DWIDTH 7 0
BBX 5 9 1 0
BITMAP
F0
80
80
80
60
18
08
08
F0
ENDCHAR
STARTCHAR 0054
ENCODING 84
SWIDTH 480 0
DWIDTH 6 0
BBX 6 9 0 0
BITMAP
FC
10
10
10
10
10
10
10
10
ENDCHAR
STARTCHAR 0055
ENCODING 85
SWIDTH 640 0
DWIDTH 8 0
BBX 6 9 1 0
BITMAP
80
84
84
84
84
84
84
84
78
ENDCHAR
STARTCHAR 0056
ENCODING 86
SWIDTH 560 0
DWIDTH 7 0
BBX 7 9 0 0
BITMAP
82
82
44
44
44
28
28
28
10
ENDCHAR
STARTCHAR 0057
ENCODING 87
SWIDTH 880 0
DWIDTH 11 0
BBX 9 9 1 0
BITMAP
0800
8880
9880
9480
A500
A500
A300
6300
4100
ENDCHAR
STARTCHAR 0058
ENCODING 88
SWIDTH 560 0
DWIDTH 7 0
BBX 5 8 1 0
BITMAP
08
88
50
60
20
50
50
88
ENDCHAR
STARTCHAR 0059
ENCODING 89
SWIDTH 560 0
DWIDTH 7 0
BBX 6 9 0 0
BITMAP
80
44
48
28
10
10
10
10
10
ENDCHAR
STARTCHAR 005A
ENCODING 90
SWIDTH 560 0
DWIDTH 7 0
BBX 6 9 0 0
BITMAP
7C
04
08
10
10
20
40
40
FC
ENDCHAR
STARTCHAR 005B
ENCODING 91
SWIDTH 320 0
DWIDTH 4 0
BBX 2 12 2 -2
BITMAP
C0
80
80
80
80
80
80
80
80
80
80
C0
ENDCHAR
STARTCHAR 005C
ENCODING 92
SWIDTH 880 0
DWIDTH 11 0
BBX 9 8 1 0
BITMAP
8880
9880
9500
7F80
5500
6300
2300
2200
ENDCHAR
STARTCHAR 005D
ENCODING 93
SWIDTH 320 0
DWIDTH 4 0
BBX 3 12 0 -2
BITMAP
E0
20
20
20
20
20
20
20
20
20
20
E0
ENDCHAR
STARTCHAR 005E
ENCODING 94
SWIDTH 400 0
DWIDTH 5 0
BBX 3 2 1 7
BITMAP
C0
20
ENDCHAR
STARTCHAR 005F
ENCODING 95
SWIDTH 480 0
DWIDTH 6 0
BBX 4 1 1 -1
BITMAP
F0
ENDCHAR
STARTCHAR 0060
ENCODING 96
SWIDTH 320 0
DWIDTH 4 0
BBX 1 2 1 7
BITMAP
80
80
ENDCHAR
STARTCHAR 0061
ENCODING 97
SWIDTH 480 0
DWIDTH 6 0
BBX 4 6 1 0
BITMAP
F0
10
10
F0
90
E0
ENDCHAR
STARTCHAR 0062
ENCODING 98
SWIDTH 560 0
DWIDTH 7 0
BBX 5 9 1 0
BITMAP
80
80
80
F8
88
88
88
88
70
ENDCHAR
STARTCHAR 0063
ENCODING 99
SWIDTH 480 0
DWIDTH 6 0
BBX 5 6 1 0
BITMAP
78
88
80
80
80
78
ENDCHAR
STARTCHAR 0064
ENCODING 100
SWIDTH 560 0
DWIDTH 7 0
BBX 5 9 1 0
BITMAP
08
08
08
F8
88
88
88
88
78
ENDCHAR
STARTCHAR 0065
ENCODING 101
SWIDTH 480 0
DWIDTH 6 0
BBX 5 6 1 0
BITMAP
70
88
F8
80
80
78
ENDCHAR
STARTCHAR 0066
ENCODING 102
SWIDTH 400 0
DWIDTH 5 0
BBX 5 9 0 0
BITMAP
38
40
40
F0
40
40
40
40
40
ENDCHAR
STARTCHAR 0067
ENCODING 103
SWIDTH 560 0
DWIDTH 7 0
BBX 5 8 1 -2
BITMAP
F8
88
88
88
88
78
08
F0
ENDCHAR
STARTCHAR 0068
ENCODING 104
SWIDTH 560 0
DWIDTH 7 0
BBX 5 9 1 0
BITMAP
80
80
80
F0
88
88
88
88
88
ENDCHAR
STARTCHAR 0069
ENCODING 105
SWIDTH 240 0
DWIDTH 3 0
BBX 1 9 1 0
BITMAP
80
00
00
80
80
80
80
80
80
ENDCHAR
STARTCHAR 006A
ENCODING 106
SWIDTH 240 0
DWIDTH 3 0
BBX 2 11 0 -2
BITMAP
40
00
00
40
40
40
40
40
40
40
C0
ENDCHAR
STARTCHAR 006B
ENCODING 107
SWIDTH 480 0
DWIDTH 6 0
BBX 4 9 1 0
BITMAP
80
80
80
90
A0
C0
A0
A0
90
ENDCHAR
STARTCHAR 006C
ENCODING 108
SWIDTH 240 0
DWIDTH 3 0
BBX 1 9 1 0
BITMAP
80
80
80
80
80
80
80
80
80
ENDCHAR
STARTCHAR 006D
ENCODING 109
SWIDTH 800 0
DWIDTH 10 0
BBX 8 6 1 0
BITMAP
F7
89
89
91
91
81
ENDCHAR
STARTCHAR 006E
ENCODING 110
SWIDTH 560 0
DWIDTH 7 0
BBX 5 6 1 0
BITMAP
F8
88
88
88
88
88
ENDCHAR
STARTCHAR 006F
ENCODING 111
SWIDTH 560 0
DWIDTH 7 0
BBX 5 6 1 0
BITMAP
70
88
88
88
88
70
ENDCHAR
STARTCHAR 0070
ENCODING 112
SWIDTH 560 0
DWIDTH 7 0
BBX 5 8 1 -2
BITMAP
F0
88
88
88
88
F0
80
80
ENDCHAR
STARTCHAR 0071
ENCODING 113
SWIDTH 560 0
DWIDTH 7 0
BBX 5 8 1 -2
BITMAP
F8
88
88
88
88
78
08
08
ENDCHAR
STARTCHAR 0072
ENCODING 114
SWIDTH 400 0
DWIDTH 5 0
BBX 3 6 1 0
BITMAP
A0
C0
80
80
80
80
ENDCHAR
STARTCHAR 0073
ENCODING 115
SWIDTH 400 0
DWIDTH 5 0
BBX 4 6 1 0
BITMAP
E0
80
C0
20
10
E0
ENDCHAR
STARTCHAR 0074
ENCODING 116
SWIDTH 320 0
DWIDTH 4 0
BBX 4 8 0 0
BITMAP
40
40
F0
40
40
40
40
20
ENDCHAR
STARTCHAR 0075
ENCODING 117
SWIDTH 560 0
DWIDTH 7 0
BBX 5 6 1 0
BITMAP
88
88
88
88
88
78
ENDCHAR
STARTCHAR 0076
ENCODING 118
SWIDTH 480 0
DWIDTH 6 0
BBX 6 6 0 0
BITMAP
84
48
48
28
30
10
ENDCHAR
STARTCHAR 0077
ENCODING 119
SWIDTH 720 0
DWIDTH 9 0
BBX 8 6 0 0
BITMAP
89
89
59
56
66
22
ENDCHAR
STARTCHAR 0078
ENCODING 120
SWIDTH 480 0
DWIDTH 6 0
BBX 4 5 1 0
BITMAP
90
A0
60
60
90
ENDCHAR
STARTCHAR 0079
ENCODING 121
SWIDTH 480 0
DWIDTH 6 0
BBX 5 8 0 -2
BITMAP
88
48
48
50
30
30
20
20
ENDCHAR
STARTCHAR 007A
ENCODING 122
SWIDTH 480 0
DWIDTH 6 0
BBX 4 6 1 0
BITMAP
F0
20
20
40
80
F0
ENDCHAR
STARTCHAR 007B
ENCODING 123
SWIDTH 480 0
DWIDTH 6 0
BBX 3 12 2 -2
BITMAP
20
40
40
40
40
80
80
40
40
40
40
40
ENDCHAR
STARTCHAR 007C
ENCODING 124
SWIDTH 320 0
DWIDTH 4 0
BBX 1 10 1 -1
BITMAP
80
80
80
80
80
80
80
80
80
80
ENDCHAR
STARTCHAR 007D
ENCODING 125
SWIDTH 480 0
DWIDTH 6 0
BBX 3 12 1 -2
BITMAP
80
40
40
40
40
40
60
40
40
40
40
80
ENDCHAR
STARTCHAR 007E
ENCODING 126
SWIDTH 560 0
DWIDTH 7 0
BBX 6 2 1 3
BITMAP
E4
18
ENDCHAR
STARTCHAR 00A1
ENCODING 161
SWIDTH 960 0
DWIDTH 12 0
BBX 1 10 5 -1
BITMAP
80
00
00
80
80
80
80
80
80
80
ENDCHAR
STARTCHAR 00A4
ENCODING 164
SWIDTH 720 0
DWIDTH 9 0
BBX 6 6 2 1
BITMAP
F4
88
84
84
88
F4
ENDCHAR
STARTCHAR 00A7
ENCODING 167
SWIDTH 400 0
DWIDTH 5 0
BBX 3 10 1 -1
BITMAP
40
A0
80
40
A0
A0
60
20
20
C0
ENDCHAR
STARTCHAR 00A8
ENCODING 168
SWIDTH 560 0
DWIDTH 7 0
BBX 5 1 1 8
BITMAP
88
ENDCHAR
STARTCHAR 00AA
ENCODING 170
SWIDTH 720 0
DWIDTH 9 0
BBX 5 7 2 2
BITMAP
70
10
30
D0
90
60
F8
ENDCHAR
STARTCHAR 00AD
ENCODING 173
SWIDTH 400 0
DWIDTH 5 0
BBX 3 1 1 4
BITMAP
E0
ENDCHAR
STARTCHAR 00AE
ENCODING 174
SWIDTH 960 0
DWIDTH 12 0
BBX 10 10 1 -1
BITMAP
1F00
6080
9E40
9140
9240
9E40
9240
9140
5180
3F00
ENDCHAR
STARTCHAR 00B0
ENCODING 176
SWIDTH 240 0
DWIDTH 3 0
BBX 3 2 0 7
BITMAP
E0
E0
ENDCHAR
STARTCHAR 00B1
ENCODING 177
SWIDTH 640 0
DWIDTH 8 0
BBX 7 7 1 0
BITMAP
10
10
FE
10
10
00
FE
ENDCHAR
STARTCHAR 00B2
ENCODING 178
SWIDTH 400 0
DWIDTH 5 0
BBX 3 5 1 4
BITMAP
C0
20
20
40
C0
ENDCHAR
STARTCHAR 00B3
ENCODING 179
SWIDTH 400 0
DWIDTH 5 0
BBX 3 5 1 4
BITMAP
C0
20
40
20
E0
ENDCHAR
STARTCHAR 00B4
ENCODING 180
SWIDTH 960 0
DWIDTH 12 0
BBX 2 2 5 7
BITMAP
40
80
ENDCHAR
STARTCHAR 00B6
ENCODING 182
SWIDTH 960 0
DWIDTH 12 0
BBX 4 11 3 -2
BITMAP
70
F0
F0
F0
70
30
30
30
30
30
20
ENDCHAR
STARTCHAR 00B7
ENCODING 183
SWIDTH 320 0
DWIDTH 4 0
BBX 1 1 1 3
BITMAP
80
ENDCHAR
STARTCHAR 00B8
ENCODING 184
SWIDTH 320 0
DWIDTH 4 0
BBX 1 2 2 -2
BITMAP
80
80
ENDCHAR
STARTCHAR 00B9
ENCODING 185
SWIDTH 400 0
DWIDTH 5 0
BBX 1 5 2 4
BITMAP
80
80
80
80
80
ENDCHAR
STARTCHAR 00BA
ENCODING 186
SWIDTH 720 0
DWIDTH 9 0
BBX 5 7 2 2
BITMAP
70
90
88
88
50
20
F8
ENDCHAR
STARTCHAR 00BC
ENCODING 188
SWIDTH 960 0
DWIDTH 12 0
BBX 9 10 1 -1
BITMAP
4080
4100
4200
4400
4800
1100
2100
2300
4380
8100
ENDCHAR
STARTCHAR 00BD
ENCODING 189
SWIDTH 960 0
DWIDTH 12 0
BBX 9 10 1 -1
BITMAP
4080
4100
4200
4400
4800
1300
2080
2100
4100
8380
ENDCHAR
STARTCHAR 00BE
ENCODING 190
SWIDTH 960 0
DWIDTH 12 0
BBX 9 10 1 -1
BITMAP
E080
2100
4200
2400
A800
5100
2100
2300
4380
8100
ENDCHAR
STARTCHAR 00BF
ENCODING 191
SWIDTH 960 0
DWIDTH 12 0
BBX 4 10 3 -1
BITMAP
20
00
00
20
20
40
80
80
80
70
ENDCHAR
STARTCHAR 00C6
ENCODING 198
SWIDTH 880 0
DWIDTH 11 0
BBX 10 9 0 0
BITMAP
0FC0
1400
1400
2400
27C0
7C00
4400
4400
87C0
ENDCHAR
STARTCHAR 00D0
ENCODING 208
SWIDTH 720 0
DWIDTH 9 0
BBX 8 9 0 0
BITMAP
3C
22
21
21
F9
21
21
22
3C
ENDCHAR
STARTCHAR 00D7
ENCODING 215
SWIDTH 640 0
DWIDTH 8 0
BBX 6 6 1 1
BITMAP
84
48
30
30
48
84
ENDCHAR
STARTCHAR 00D8
ENCODING 216
SWIDTH 800 0
DWIDTH 10 0
BBX 8 9 1 0
BITMAP
3C
42
86
89
91
91
A2
42
BC
ENDCHAR
STARTCHAR 00DE
ENCODING 222
SWIDTH 560 0
DWIDTH 7 0
BBX 6 9 1 0
BITMAP
80
80
E0
98
84
84
88
F0
80
ENDCHAR
STARTCHAR 00DF
ENCODING 223
SWIDTH 560 0
DWIDTH 7 0
BBX 6 9 1 0
BITMAP
70
88
88
88
B0
8C
84
84
B8
ENDCHAR
STARTCHAR 00E6
ENCODING 230
SWIDTH 800 0
DWIDTH 10 0
BBX 8 6 1 0
BITMAP
FF
09
1F
F0
98
E7
ENDCHAR
STARTCHAR 00F0
ENCODING 240
SWIDTH 560 0
DWIDTH 7 0
BBX 5 9 1 0
BITMAP
48
30
68
78
88
88
88
88
70
ENDCHAR
STARTCHAR 00F7
ENCODING 247
SWIDTH 640 0
DWIDTH 8 0
BBX 7 7 1 0
BITMAP
30
00
00
FE
00
10
10
ENDCHAR
STARTCHAR 00F8
ENCODING 248
SWIDTH 560 0
DWIDTH 7 0
BBX 6 6 1 0
BITMAP
78
88
94
A4
C8
70
ENDCHAR
STARTCHAR 00FE
ENCODING 254
SWIDTH 560 0
DWIDTH 7 0
BBX 6 11 1 -2
BITMAP
80
80
80
B8
C8
84
84
88
F8
80
80
ENDCHAR
STARTCHAR 0111
ENCODING 273
SWIDTH 560 0
DWIDTH 7 0
BBX 6 9 1 0
BITMAP
08
7C
08
F8
88
88
88
88
78
ENDCHAR
STARTCHAR 0126
ENCODING 294
SWIDTH 720 0
DWIDTH 9 0
BBX 9 9 0 0
BITMAP
2100
2100
FF80
2100
3F00
2100
2100
2100
2100
ENDCHAR
STARTCHAR 0127
ENCODING 295
SWIDTH 560 0
DWIDTH 7 0
BBX 6 7 0 1
BITMAP
F8
40
5C
24
44
44
44
ENDCHAR
STARTCHAR 0131
ENCODING 305
SWIDTH 240 0
DWIDTH 3 0
BBX 1 6 1 0
BITMAP
80
80
80
80
80
80
ENDCHAR
STARTCHAR 0132
ENCODING 306
SWIDTH 640 0
DWIDTH 8 0
BBX 6 9 1 0
BITMAP
84
84
84
84
84
84
84
84
9C
ENDCHAR
STARTCHAR 0133
ENCODING 307
SWIDTH 480 0
DWIDTH 6 0
BBX 4 11 1 -2
BITMAP
90
00
00
90
90
90
90
90
90
10
20
ENDCHAR
STARTCHAR 0138
ENCODING 312
SWIDTH 480 0
DWIDTH 6 0
BBX 4 6 1 0
BITMAP
90
A0
C0
C0
A0
90
ENDCHAR
STARTCHAR 013F
ENCODING 319
SWIDTH 480 0
DWIDTH 6 0
BBX 5 9 1 0
BITMAP
80
80
80
80
90
80
80
80
F8
ENDCHAR
STARTCHAR 0140
ENCODING 320
SWIDTH 400 0
DWIDTH 5 0
BBX 3 9 1 0
BITMAP
80
80
80
80
A0
80
80
80
80
ENDCHAR
STARTCHAR 0141
ENCODING 321
SWIDTH 480 0
DWIDTH 6 0
BBX 6 9 0 0
BITMAP
40
40
40
70
40
C0
40
40
7C
ENDCHAR
STARTCHAR 0142
ENCODING 322
SWIDTH 480 0
DWIDTH 6 0
BBX 4 7 1 1
BITMAP
40
50
20
40
C0
40
40
ENDCHAR
STARTCHAR 0149
ENCODING 329
SWIDTH 720 0
DWIDTH 9 0
BBX 7 10 1 0
BITMAP
80
80
80
00
2E
32
22
22
22
22
ENDCHAR
STARTCHAR 014A
ENCODING 330
SWIDTH 640 0
DWIDTH 8 0
BBX 6 11 1 -2
BITMAP
84
C4
A4
A4
94
94
8C
8C
84
04
1C
ENDCHAR
STARTCHAR 014B
ENCODING 331
SWIDTH 560 0
DWIDTH 7 0
BBX 5 8 1 -2
BITMAP
F8
88
88
88
88
88
08
18
ENDCHAR
STARTCHAR 0152
ENCODING 338
SWIDTH 960 0
DWIDTH 12 0
BBX 10 9 1 0
BITMAP
3FC0
4400
8400
8400
87C0
8400
8400
C400
7FC0
ENDCHAR
STARTCHAR 0153
ENCODING 339
SWIDTH 880 0
DWIDTH 11 0
BBX 9 6 1 0
BITMAP
F700
8880
8F80
8800
8800
7780
ENDCHAR
STARTCHAR 0166
ENCODING 358
SWIDTH 560 0
DWIDTH 7 0
BBX 6 9 0 0
BITMAP
FC
10
10
10
7C
10
10
10
10
ENDCHAR
STARTCHAR 0167
ENCODING 359
SWIDTH 320 0
DWIDTH 4 0
BBX 4 8 0 0
BITMAP
40
40
F0
40
F0
40
40
30
ENDCHAR
STARTCHAR 02BC
ENCODING 700
SWIDTH 320 0
DWIDTH 4 0
BBX 2 2 1 7
BITMAP
C0
80
ENDCHAR
STARTCHAR 02C7
ENCODING 711
SWIDTH 960 0
DWIDTH 12 0
BBX 3 1 4 8
BITMAP
E0
ENDCHAR
STARTCHAR 02D0
ENCODING 720
SWIDTH 240 0
DWIDTH 3 0
BBX 1 6 1 1
BITMAP
80
80
00
00
00
80
ENDCHAR
STARTCHAR 02D8
ENCODING 728
SWIDTH 960 0
DWIDTH 12 0
BBX 3 1 4 8
BITMAP
E0
ENDCHAR
STARTCHAR 02D9
ENCODING 729
SWIDTH 960 0
DWIDTH 12 0
BBX 1 1 5 8
BITMAP
80
ENDCHAR
STARTCHAR 02DA
ENCODING 730
SWIDTH 960 0
DWIDTH 12 0
BBX 2 2 5 8
BITMAP
C0
C0
ENDCHAR
STARTCHAR 02DB
ENCODING 731
SWIDTH 320 0
DWIDTH 4 0
BBX 1 1 1 -1
BITMAP
80
ENDCHAR
STARTCHAR 02DD
ENCODING 733
SWIDTH 960 0
DWIDTH 12 0
BBX 3 2 5 7
BITMAP
A0
C0
ENDCHAR
STARTCHAR 0391
ENCODING 913
SWIDTH 640 0
DWIDTH 8 0
BBX 7 9 0 0
BITMAP
10
18
28
24
24
7C
42
42
82
ENDCHAR
STARTCHAR 0392
ENCODING 914
SWIDTH 560 0
DWIDTH 7 0
BBX 6 9 1 0
BITMAP
F0
88
88
88
F0
8C
84
84
F8
ENDCHAR
STARTCHAR 0393
ENCODING 915
SWIDTH 480 0
DWIDTH 6 0
BBX 5 9 1 0
BITMAP
F8
80
80
80
80
80
80
80
80
ENDCHAR
STARTCHAR 0394
ENCODING 916
SWIDTH 640 0
DWIDTH 8 0
BBX 7 9 0 0
BITMAP
10
18
28
24
24
44
42
42
FE
ENDCHAR
STARTCHAR 0395
ENCODING 917
SWIDTH 560 0
DWIDTH 7 0
BBX 5 9 1 0
BITMAP
F8
80
80
80
F8
80
80
80
F8
ENDCHAR
STARTCHAR 0396
ENCODING 918
SWIDTH 560 0
DWIDTH 7 0
BBX 6 9 0 0
BITMAP
7C
04
08
10
10
20
40
40
FC
ENDCHAR
STARTCHAR 0397
ENCODING 919
SWIDTH 640 0
DWIDTH 8 0
BBX 6 9 1 0
BITMAP
84
84
84
84
FC
84
84
84
84
ENDCHAR
STARTCHAR 0398
ENCODING 920
SWIDTH 720 0
DWIDTH 9 0
BBX 7 9 1 0
BITMAP
38
44
82
82
BA
82
82
84
78
ENDCHAR
STARTCHAR 0399
ENCODING 921
SWIDTH 320 0
DWIDTH 4 0
BBX 1 9 1 0
BITMAP
80
80
80
80
80
80
80
80
80
ENDCHAR
STARTCHAR 039A
ENCODING 922
SWIDTH 560 0
DWIDTH 7 0
BBX 6 9 1 0
BITMAP
88
90
A0
A0
C0
A0
90
88
84
ENDCHAR
STARTCHAR 039B
ENCODING 923
SWIDTH 640 0
DWIDTH 8 0
BBX 7 9 0 0
BITMAP
10
18
28
24
24
44
42
42
82
ENDCHAR
STARTCHAR 039C
ENCODING 924
SWIDTH 880 0
DWIDTH 11 0
BBX 8 9 1 0
BITMAP
C1
C3
C3
A3
A5
A5
95
99
88
ENDCHAR
STARTCHAR 039D
ENCODING 925
SWIDTH 640 0
DWIDTH 8 0
BBX 6 9 1 0
BITMAP
C4
C4
A4
A4
94
94
8C
8C
84
ENDCHAR
STARTCHAR 039E
ENCODING 926
SWIDTH 560 0
DWIDTH 7 0
BBX 5 9 1 0
BITMAP
F8
00
00
00
F8
00
00
00
F8
ENDCHAR
STARTCHAR 039F
ENCODING 927
SWIDTH 720 0
DWIDTH 9 0
BBX 7 9 1 0
BITMAP
38
46
82
82
82
82
82
82
7C
ENDCHAR
STARTCHAR 03A0
ENCODING 928
SWIDTH 640 0
DWIDTH 8 0
BBX 6 9 1 0
BITMAP
FC
84
84
84
84
84
84
84
84
ENDCHAR
STARTCHAR 03A1
ENCODING 929
SWIDTH 560 0
DWIDTH 7 0
BBX 6 9 1 0
BITMAP
F0
88
84
88
B8
80
80
80
80
ENDCHAR
STARTCHAR 03A3
ENCODING 931
SWIDTH 480 0
DWIDTH 6 0
BBX 5 9 0 0
BITMAP
F8
40
20
10
10
10
20
40
F8
ENDCHAR
STARTCHAR 03A4
ENCODING 932
SWIDTH 480 0
DWIDTH 6 0
BBX 6 9 0 0
BITMAP
FC
10
10
10
10
10
10
10
10
ENDCHAR
STARTCHAR 03A5
ENCODING 933
SWIDTH 560 0
DWIDTH 7 0
BBX 7 9 0 0
BITMAP
82
44
48
28
10
10
10
10
10
ENDCHAR
STARTCHAR 03A6
ENCODING 934
SWIDTH 720 0
DWIDTH 9 0
BBX 8 9 1 0
BITMAP
10
38
D6
91
91
91
92
7C
10
ENDCHAR
STARTCHAR 03A7
ENCODING 935
SWIDTH 560 0
DWIDTH 7 0
BBX 7 9 0 0
BITMAP
44
44
28
30
10
28
28
44
82
ENDCHAR
STARTCHAR 03A8
ENCODING 936
SWIDTH 640 0
DWIDTH 8 0
BBX 6 9 1 0
BITMAP
90
94
94
94
94
5C
30
10
10
ENDCHAR
STARTCHAR 03A9
ENCODING 937
SWIDTH 720 0
DWIDTH 9 0
BBX 7 9 1 0
BITMAP
38
44
82
82
82
84
44
28
EC
ENDCHAR
STARTCHAR 03B1
ENCODING 945
SWIDTH 560 0
DWIDTH 7 0
BBX 6 6 1 0
BITMAP
E8
98
98
90
90
EC
ENDCHAR
STARTCHAR 03B2
ENCODING 946
SWIDTH 640 0
DWIDTH 8 0
BBX 6 11 1 -2
BITMAP
30
C8
88
88
B0
8C
84
C4
B8
80
80
ENDCHAR
STARTCHAR 03B3
ENCODING 947
SWIDTH 480 0
DWIDTH 6 0
BBX 6 8 0 -2
BITMAP
84
48
48
30
30
10
10
10
ENDCHAR
STARTCHAR 03B4
ENCODING 948
SWIDTH 560 0
DWIDTH 7 0
BBX 6 9 0 0
BITMAP
3C
20
10
38
44
84
84
44
78
ENDCHAR
STARTCHAR 03B5
ENCODING 949
SWIDTH 480 0
DWIDTH 6 0
BBX 4 6 1 0
BITMAP
F0
80
80
C0
80
F0
ENDCHAR
STARTCHAR 03B6
ENCODING 950
SWIDTH 480 0
DWIDTH 6 0
BBX 4 11 1 -2
BITMAP
F0
20
40
80
80
80
80
80
E0
10
30
ENDCHAR
STARTCHAR 03B7
ENCODING 951
SWIDTH 560 0
DWIDTH 7 0
BBX 5 8 1 -2
BITMAP
F8
88
88
88
88
88
08
08
ENDCHAR
STARTCHAR 03B8
ENCODING 952
SWIDTH 560 0
DWIDTH 7 0
BBX 5 9 1 0
BITMAP
70
88
88
88
F8
88
88
88
70
ENDCHAR
STARTCHAR 03B9
ENCODING 953
SWIDTH 320 0
DWIDTH 4 0
BBX 3 6 1 0
BITMAP
80
80
80
80
80
E0
ENDCHAR
STARTCHAR 03BA
ENCODING 954
SWIDTH 480 0
DWIDTH 6 0
BBX 4 6 1 0
BITMAP
90
A0
C0
C0
A0
90
ENDCHAR
STARTCHAR 03BB
ENCODING 955
SWIDTH 480 0
DWIDTH 6 0
BBX 5 9 1 0
BITMAP
40
40
20
20
60
50
90
90
08
ENDCHAR
STARTCHAR 03BC
ENCODING 956
SWIDTH 560 0
DWIDTH 7 0
BBX 5 8 1 -2
BITMAP
88
88
88
88
88
F8
80
80
ENDCHAR
STARTCHAR 03BD
ENCODING 957
SWIDTH 480 0
DWIDTH 6 0
BBX 6 6 0 0
BITMAP
84
48
48
30
30
10
ENDCHAR
STARTCHAR 03BE
ENCODING 958
SWIDTH 480 0
DWIDTH 6 0
BBX 4 11 1 -2
BITMAP
70
80
70
80
80
80
80
80
E0
10
30
ENDCHAR
STARTCHAR 03BF
ENCODING 959
SWIDTH 560 0
DWIDTH 7 0
BBX 5 6 1 0
BITMAP
F0
88
88
88
88
70
ENDCHAR
STARTCHAR 03C0
ENCODING 960
SWIDTH 560 0
DWIDTH 7 0
BBX 7 5 0 0
BITMAP
FE
48
48
48
48
ENDCHAR
STARTCHAR 03C1
ENCODING 961
SWIDTH 560 0
DWIDTH 7 0
BBX 5 8 1 -2
BITMAP
70
88
88
88
88
F0
80
80
ENDCHAR
STARTCHAR 03C3
ENCODING 963
SWIDTH 560 0
DWIDTH 7 0
BBX 6 6 1 0
BITMAP
7C
88
88
88
88
70
ENDCHAR
STARTCHAR 03C4
ENCODING 964
SWIDTH 480 0
DWIDTH 6 0
BBX 5 6 0 0
BITMAP
F8
20
20
20
20
20
ENDCHAR
STARTCHAR 03C5
ENCODING 965
SWIDTH 560 0
DWIDTH 7 0
BBX 5 6 1 0
BITMAP
88
88
88
88
88
70
ENDCHAR
STARTCHAR 03C6
ENCODING 966
SWIDTH 560 0
DWIDTH 7 0
BBX 6 8 1 -2
BITMAP
58
A8
A4
A4
A8
70
20
20
ENDCHAR
STARTCHAR 03C7
ENCODING 967
SWIDTH 560 0
DWIDTH 7 0
BBX 5 8 1 -2
BITMAP
88
90
50
20
20
50
88
88
ENDCHAR
STARTCHAR 03C8
ENCODING 968
SWIDTH 640 0
DWIDTH 8 0
BBX 6 8 1 -2
BITMAP
94
94
94
94
94
78
10
10
ENDCHAR
STARTCHAR 03C9
ENCODING 969
SWIDTH 800 0
DWIDTH 10 0
BBX 8 6 1 0
BITMAP
82
81
91
91
91
FE
ENDCHAR
STARTCHAR 0401
ENCODING 1025
SWIDTH 560 0
DWIDTH 7 0
BBX 5 11 1 0
BITMAP
58
00
F8
80
80
80
F8
80
80
80
F8
ENDCHAR
STARTCHAR 0410
ENCODING 1040
SWIDTH 640 0
DWIDTH 8 0
BBX 7 9 0 0
BITMAP
10
18
28
24
24
7C
42
42
82
ENDCHAR
STARTCHAR 0411
ENCODING 1041
SWIDTH 560 0
DWIDTH 7 0
BBX 6 9 1 0
BITMAP
F8
80
80
80
F8
84
84
84
F8
ENDCHAR
STARTCHAR 0412
ENCODING 1042
SWIDTH 560 0
DWIDTH 7 0
BBX 6 9 1 0
BITMAP
F0
88
88
88
F0
8C
84
84
F8
ENDCHAR
STARTCHAR 0413
ENCODING 1043
SWIDTH 480 0
DWIDTH 6 0
BBX 5 9 1 0
BITMAP
F8
80
80
80
80
80
80
80
80
ENDCHAR
STARTCHAR 0414
ENCODING 1044
SWIDTH 720 0
DWIDTH 9 0
BBX 8 10 0 -1
BITMAP
3E
22
22
22
22
22
22
42
FF
81
ENDCHAR
STARTCHAR 0415
ENCODING 1045
SWIDTH 560 0
DWIDTH 7 0
BBX 5 9 1 0
BITMAP
F8
80
80
80
F8
80
80
80
F8
ENDCHAR
STARTCHAR 0416
ENCODING 1046
SWIDTH 800 0
DWIDTH 10 0
BBX 10 9 0 0
BITMAP
4480
2480
2500
1600
0E00
1600
2500
4480
C440
ENDCHAR
STARTCHAR 0417
ENCODING 1047
SWIDTH 560 0
DWIDTH 7 0
BBX 5 9 1 0
BITMAP
70
88
08
08
70
08
08
08
F0
ENDCHAR
STARTCHAR 0418
ENCODING 1048
SWIDTH 640 0
DWIDTH 8 0
BBX 6 9 1 0
BITMAP
84
8C
8C
94
94
A4
A4
C4
C4
ENDCHAR
STARTCHAR 0419
ENCODING 1049
SWIDTH 720 0
DWIDTH 9 0
BBX 6 10 1 1
BITMAP
38
84
8C
8C
94
94
A4
A4
C4
C4
ENDCHAR
STARTCHAR 041A
ENCODING 1050
SWIDTH 560 0
DWIDTH 7 0
BBX 6 9 1 0
BITMAP
88
90
90
A0
C0
A0
90
88
84
ENDCHAR
STARTCHAR 041B
ENCODING 1051
SWIDTH 720 0
DWIDTH 9 0
BBX 8 9 0 0
BITMAP
3F
21
21
21
21
21
21
21
E1
ENDCHAR
STARTCHAR 041C
ENCODING 1052
SWIDTH 880 0
DWIDTH 11 0
BBX 8 9 1 0
BITMAP
C1
C3
C3
A3
A5
A5
95
99
88
ENDCHAR
STARTCHAR 041D
ENCODING 1053
SWIDTH 640 0
DWIDTH 8 0
BBX 6 9 1 0
BITMAP
84
84
84
84
FC
84
84
84
84
ENDCHAR
STARTCHAR 041E
ENCODING 1054
SWIDTH 720 0
DWIDTH 9 0
BBX 7 9 1 0
BITMAP
38
46
82
82
82
82
82
82
7C
ENDCHAR
STARTCHAR 041F
ENCODING 1055
SWIDTH 640 0
DWIDTH 8 0
BBX 6 9 1 0
BITMAP
FC
84
84
84
84
84
84
84
84
ENDCHAR
STARTCHAR 0420
ENCODING 1056
SWIDTH 560 0
DWIDTH 7 0
BBX 6 9 1 0
BITMAP
F0
88
84
88
B8
80
80
80
80
ENDCHAR
STARTCHAR 0421
ENCODING 1057
SWIDTH 640 0
DWIDTH 8 0
BBX 6 9 1 0
BITMAP
38
44
80
80
80
80
80
40
3C
ENDCHAR
STARTCHAR 0422
ENCODING 1058
SWIDTH 480 0
DWIDTH 6 0
BBX 6 9 0 0
BITMAP
FC
10
10
10
10
10
10
10
10
ENDCHAR
STARTCHAR 0423
ENCODING 1059
SWIDTH 560 0
DWIDTH 7 0
BBX 6 9 0 0
BITMAP
80
44
44
28
28
10
10
20
20
ENDCHAR
STARTCHAR 0424
ENCODING 1060
SWIDTH 720 0
DWIDTH 9 0
BBX 8 9 1 0
BITMAP
10
38
D6
91
91
91
92
7C
10
ENDCHAR
STARTCHAR 0425
ENCODING 1061
SWIDTH 560 0
DWIDTH 7 0
BBX 7 9 0 0
BITMAP
44
44
28
30
10
28
28
44
82
ENDCHAR
STARTCHAR 0426
ENCODING 1062
SWIDTH 720 0
DWIDTH 9 0
BBX 7 10 1 -1
BITMAP
84
84
84
84
84
84
84
84
FE
02
ENDCHAR
STARTCHAR 0427
ENCODING 1063
SWIDTH 640 0
DWIDTH 8 0
BBX 6 9 1 0
BITMAP
84
84
84
84
84
DC
24
04
04
ENDCHAR
STARTCHAR 0428
ENCODING 1064
SWIDTH 880 0
DWIDTH 11 0
BBX 8 9 1 0
BITMAP
89
89
89
89
89
89
89
89
FF
ENDCHAR
STARTCHAR 0429
ENCODING 1065
SWIDTH 880 0
DWIDTH 11 0
BBX 9 10 1 -1
BITMAP
8900
8900
8900
8900
8900
8900
8900
8900
FF80
0080
ENDCHAR
STARTCHAR 042A
ENCODING 1066
SWIDTH 720 0
DWIDTH 9 0
BBX 9 9 0 0
BITMAP
F000
1000
1000
1000
1F00
1080
1080
1180
1F00
ENDCHAR
STARTCHAR 042B
ENCODING 1067
SWIDTH 800 0
DWIDTH 10 0
BBX 8 9 1 0
BITMAP
81
81
81
81
F9
85
85
85
F9
ENDCHAR
STARTCHAR 042C
ENCODING 1068
SWIDTH 560 0
DWIDTH 7 0
BBX 6 9 1 0
BITMAP
80
80
80
80
F8
84
84
84
F8
ENDCHAR
STARTCHAR 042D
ENCODING 1069
SWIDTH 640 0
DWIDTH 8 0
BBX 6 9 1 0
BITMAP
70
88
04
04
7C
04
04
08
F0
ENDCHAR
STARTCHAR 042E
ENCODING 1070
SWIDTH 880 0
DWIDTH 11 0
BBX 10 9 1 0
BITMAP
8F00
9080
9080
A040
E040
A040
9080
9080
8F00
ENDCHAR
STARTCHAR 042F
ENCODING 1071
SWIDTH 560 0
DWIDTH 7 0
BBX 5 9 1 0
BITMAP
78
88
88
88
78
48
88
88
88
ENDCHAR
STARTCHAR 0430
ENCODING 1072
SWIDTH 480 0
DWIDTH 6 0
BBX 4 6 1 0
BITMAP
F0
10
30
D0
90
E0
ENDCHAR
STARTCHAR 0431
ENCODING 1073
SWIDTH 560 0
DWIDTH 7 0
BBX 5 9 1 0
BITMAP
08
10
60
F0
88
88
88
88
70
ENDCHAR
STARTCHAR 0432
ENCODING 1074
SWIDTH 480 0
DWIDTH 6 0
BBX 5 6 1 0
BITMAP
F0
90
B0
C8
88
F0
ENDCHAR
STARTCHAR 0433
ENCODING 1075
SWIDTH 400 0
DWIDTH 5 0
BBX 4 6 1 0
BITMAP
F0
80
80
80
80
80
ENDCHAR
STARTCHAR 0434
ENCODING 1076
SWIDTH 560 0
DWIDTH 7 0
BBX 6 7 0 -1
BITMAP
38
28
48
48
48
FC
80
ENDCHAR
STARTCHAR 0435
ENCODING 1077
SWIDTH 560 0
DWIDTH 7 0
BBX 5 6 1 0
BITMAP
70
88
F8
80
80
78
ENDCHAR
STARTCHAR 0436
ENCODING 1078
SWIDTH 640 0
DWIDTH 8 0
BBX 7 6 0 0
BITMAP
52
34
18
2C
54
C2
ENDCHAR
STARTCHAR 0437
ENCODING 1079
SWIDTH 480 0
DWIDTH 6 0
BBX 4 6 1 0
BITMAP
E0
10
20
10
10
E0
ENDCHAR
STARTCHAR 0438
ENCODING 1080
SWIDTH 480 0
DWIDTH 6 0
BBX 4 6 1 0
BITMAP
90
B0
B0
D0
D0
80
ENDCHAR
STARTCHAR 0439
ENCODING 1081
SWIDTH 480 0
DWIDTH 6 0
BBX 4 8 1 0
BITMAP
90
60
90
B0
B0
D0
D0
80
ENDCHAR
STARTCHAR 043A
ENCODING 1082
SWIDTH 480 0
DWIDTH 6 0
BBX 4 6 1 0
BITMAP
90
A0
C0
C0
A0
90
ENDCHAR
STARTCHAR 043B
ENCODING 1083
SWIDTH 560 0
DWIDTH 7 0
BBX 6 6 0 0
BITMAP
3C
24
24
24
24
C4
ENDCHAR
STARTCHAR 043C
ENCODING 1084
SWIDTH 640 0
DWIDTH 8 0
BBX 6 6 1 0
BITMAP
8C
CC
CC
B4
B4
A4
ENDCHAR
STARTCHAR 043D
ENCODING 1085
SWIDTH 480 0
DWIDTH 6 0
BBX 4 6 1 0
BITMAP
90
90
90
F0
90
80
ENDCHAR
STARTCHAR 043E
ENCODING 1086
SWIDTH 560 0
DWIDTH 7 0
BBX 5 6 1 0
BITMAP
F0
88
88
88
88
70
ENDCHAR
STARTCHAR 043F
ENCODING 1087
SWIDTH 480 0
DWIDTH 6 0
BBX 4 6 1 0
BITMAP
F0
90
90
90
90
80
ENDCHAR
STARTCHAR 0440
ENCODING 1088
SWIDTH 560 0
DWIDTH 7 0
BBX 5 8 1 -2
BITMAP
F0
88
88
88
88
F0
80
80
ENDCHAR
STARTCHAR 0441
ENCODING 1089
SWIDTH 480 0
DWIDTH 6 0
BBX 5 6 1 0
BITMAP
78
88
80
80
80
78
ENDCHAR
STARTCHAR 0442
ENCODING 1090
SWIDTH 480 0
DWIDTH 6 0
BBX 5 6 0 0
BITMAP
F8
20
20
20
20
20
ENDCHAR
STARTCHAR 0443
ENCODING 1091
SWIDTH 480 0
DWIDTH 6 0
BBX 5 8 0 -2
BITMAP
88
48
48
50
30
30
20
20
ENDCHAR
STARTCHAR 0444
ENCODING 1092
SWIDTH 880 0
DWIDTH 11 0
BBX 9 12 1 -3
BITMAP
0800
0800
0800
FF00
8880
8880
8880
8880
7F00
0800
0800
0800
ENDCHAR
STARTCHAR 0445
ENCODING 1093
SWIDTH 480 0
DWIDTH 6 0
BBX 4 5 1 0
BITMAP
90
60
60
60
90
ENDCHAR
STARTCHAR 0446
ENCODING 1094
SWIDTH 480 0
DWIDTH 6 0
BBX 5 6 1 -1
BITMAP
90
90
90
90
90
F8
ENDCHAR
STARTCHAR 0447
ENCODING 1095
SWIDTH 560 0
DWIDTH 7 0
BBX 5 6 1 0
BITMAP
88
88
88
F8
08
08
ENDCHAR
STARTCHAR 0448
ENCODING 1096
SWIDTH 640 0
DWIDTH 8 0
BBX 6 6 1 0
BITMAP
A4
A4
A4
A4
A4
FC
ENDCHAR
STARTCHAR 0449
ENCODING 1097
SWIDTH 640 0
DWIDTH 8 0
BBX 7 7 1 -1
BITMAP
A4
A4
A4
A4
A4
FE
02
ENDCHAR
STARTCHAR 044A
ENCODING 1098
SWIDTH 560 0
DWIDTH 7 0
BBX 7 6 0 0
BITMAP
E0
20
38
26
22
3C
ENDCHAR
STARTCHAR 044B
ENCODING 1099
SWIDTH 640 0
DWIDTH 8 0
BBX 6 6 1 0
BITMAP
84
84
E4
94
8C
F4
ENDCHAR
STARTCHAR 044C
ENCODING 1100
SWIDTH 480 0
DWIDTH 6 0
BBX 5 6 1 0
BITMAP
80
80
E0
98
88
F0
ENDCHAR
STARTCHAR 044D
ENCODING 1101
SWIDTH 480 0
DWIDTH 6 0
BBX 6 6 0 0
BITMAP
78
84
04
1C
08
70
ENDCHAR
STARTCHAR 044E
ENCODING 1102
SWIDTH 720 0
DWIDTH 9 0
BBX 7 6 1 0
BITMAP
9C
A2
A2
E2
A2
9C
ENDCHAR
STARTCHAR 044F
ENCODING 1103
SWIDTH 480 0
DWIDTH 6 0
BBX 4 6 1 0
BITMAP
F0
90
90
70
90
80
ENDCHAR
STARTCHAR 0451
ENCODING 1105
SWIDTH 560 0
DWIDTH 7 0
BBX 5 8 1 0
BITMAP
50
00
70
88
F8
80
80
78
ENDCHAR
STARTCHAR 2015
ENCODING 8213
SWIDTH 960 0
DWIDTH 12 0
BBX 11 1 0 4
BITMAP
FFE0
ENDCHAR
STARTCHAR 2018
ENCODING 8216
SWIDTH 240 0
DWIDTH 3 0
BBX 1 3 1 7
BITMAP
80
80
80
ENDCHAR
STARTCHAR 2019
ENCODING 8217
SWIDTH 240 0
DWIDTH 3 0
BBX 1 3 1 7
BITMAP
80
80
80
ENDCHAR
STARTCHAR 201B
ENCODING 8219
SWIDTH 240 0
DWIDTH 3 0
BBX 1 2 1 7
BITMAP
80
80
ENDCHAR
STARTCHAR 201C
ENCODING 8220
SWIDTH 400 0
DWIDTH 5 0
BBX 3 3 1 7
BITMAP
20
C0
A0
ENDCHAR
STARTCHAR 201D
ENCODING 8221
SWIDTH 400 0
DWIDTH 5 0
BBX 3 3 1 7
BITMAP
A0
A0
A0
ENDCHAR
STARTCHAR 201F
ENCODING 8223
SWIDTH 400 0
DWIDTH 5 0
BBX 3 2 1 7
BITMAP
A0
C0
ENDCHAR
STARTCHAR 2020
ENCODING 8224
SWIDTH 960 0
DWIDTH 12 0
BBX 5 10 3 -2
BITMAP
20
20
F8
20
20
20
20
20
20
20
ENDCHAR
STARTCHAR 2021
ENCODING 8225
SWIDTH 960 0
DWIDTH 12 0
BBX 5 10 3 -2
BITMAP
20
20
F8
E8
30
20
20
20
20
20
ENDCHAR
STARTCHAR 2022
ENCODING 8226
SWIDTH 960 0
DWIDTH 12 0
BBX 3 3 4 2
BITMAP
60
E0
40
ENDCHAR
STARTCHAR 2025
ENCODING 8229
SWIDTH 560 0
DWIDTH 7 0
BBX 5 1 1 3
BITMAP
88
ENDCHAR
STARTCHAR 2026
ENCODING 8230
SWIDTH 880 0
DWIDTH 11 0
BBX 8 1 1 3
BITMAP
89
ENDCHAR
STARTCHAR 2030
ENCODING 8240
SWIDTH 960 0
DWIDTH 12 0
BBX 11 8 0 0
BITMAP
6400
A800
A800
AFE0
B5A0
55A0
15A0
0660
ENDCHAR
STARTCHAR 2032
ENCODING 8242
SWIDTH 240 0
DWIDTH 3 0
BBX 1 2 1 6
BITMAP
80
80
ENDCHAR
STARTCHAR 2033
ENCODING 8243
SWIDTH 400 0
DWIDTH 5 0
BBX 3 3 1 6
BITMAP
E0
A0
40
ENDCHAR
STARTCHAR 2034
ENCODING 8244
SWIDTH 480 0
DWIDTH 6 0
BBX 5 3 0 6
BITMAP
78
B0
80
ENDCHAR
STARTCHAR 2039
ENCODING 8249
SWIDTH 960 0
DWIDTH 12 0
BBX 9 11 2 -2
BITMAP
0100
0200
0C00
1000
6000
8000
6000
1800
0400
0300
0080
ENDCHAR
STARTCHAR 203A
ENCODING 8250
SWIDTH 960 0
DWIDTH 12 0
BBX 9 11 0 -2
BITMAP
4000
3000
0800
0600
0100
0080
0300
0400
1800
6000
8000
ENDCHAR
STARTCHAR 203B
ENCODING 8251
SWIDTH 960 0
DWIDTH 12 0
BBX 7 8 2 0
BITMAP
80
52
24
18
9A
24
52
90
ENDCHAR
STARTCHAR 203C
ENCODING 8252
SWIDTH 960 0
DWIDTH 12 0
BBX 4 10 4 -1
BITMAP
90
90
90
90
90
90
90
10
00
90
ENDCHAR
STARTCHAR 2042
ENCODING 8258
SWIDTH 960 0
DWIDTH 12 0
BBX 9 9 1 0
BITMAP
0800
1A00
0C00
1800
0000
0000
6280
F380
6300
ENDCHAR
STARTCHAR 2074
ENCODING 8308
SWIDTH 400 0
DWIDTH 5 0
BBX 3 5 1 4
BITMAP
40
C0
C0
E0
40
ENDCHAR
STARTCHAR 207A
ENCODING 8314
SWIDTH 480 0
DWIDTH 6 0
BBX 4 3 1 6
BITMAP
40
F0
40
ENDCHAR
STARTCHAR 207B
ENCODING 8315
SWIDTH 480 0
DWIDTH 6 0
BBX 4 1 1 7
BITMAP
F0
ENDCHAR
STARTCHAR 207C
ENCODING 8316
SWIDTH 480 0
DWIDTH 6 0
BBX 3 2 1 6
BITMAP
E0
60
ENDCHAR
STARTCHAR 207D
ENCODING 8317
SWIDTH 160 0
DWIDTH 2 0
BBX 1 5 1 4
BITMAP
80
80
80
80
80
ENDCHAR
STARTCHAR 207E
ENCODING 8318
SWIDTH 160 0
DWIDTH 2 0
BBX 2 4 0 4
BITMAP
80
40
40
40
ENDCHAR
STARTCHAR 207F
ENCODING 8319
SWIDTH 400 0
DWIDTH 5 0
BBX 3 5 1 4
BITMAP
60
A0
A0
A0
A0
ENDCHAR
STARTCHAR 2081
ENCODING 8321
SWIDTH 400 0
DWIDTH 5 0
BBX 1 5 2 -1
BITMAP
80
80
80
80
80
ENDCHAR
STARTCHAR 2082
ENCODING 8322
SWIDTH 400 0
DWIDTH 5 0
BBX 3 5 1 -1
BITMAP
40
A0
20
40
C0
ENDCHAR
STARTCHAR 2083
ENCODING 8323
SWIDTH 400 0
DWIDTH 5 0
BBX 3 5 1 -1
BITMAP
C0
20
40
20
E0
ENDCHAR
STARTCHAR 2084
ENCODING 8324
SWIDTH 400 0
DWIDTH 5 0
BBX 3 4 1 0
BITMAP
40
C0
E0
40
ENDCHAR
STARTCHAR 20A9
ENCODING 8361
SWIDTH 960 0
DWIDTH 12 0
BBX 10 9 1 0
BITMAP
8880
8C80
4C80
5480
FFC0
5300
5300
3300
2100
ENDCHAR
STARTCHAR 20AC
ENCODING 8364
SWIDTH 720 0
DWIDTH 9 0
BBX 8 9 1 0
BITMAP
1E
21
40
FE
40
FE
40
20
1E
ENDCHAR
STARTCHAR 2103
ENCODING 8451
SWIDTH 880 0
DWIDTH 11 0
BBX 10 10 0 0
BITMAP
4000
A780
A840
4800
1000
1000
1000
0800
0800
07C0
ENDCHAR
STARTCHAR 2109
ENCODING 8457
SWIDTH 960 0
DWIDTH 12 0
BBX 8 10 1 -1
BITMAP
E0
AF
48
08
08
0F
08
08
08
08
ENDCHAR
STARTCHAR 2113
ENCODING 8467
SWIDTH 960 0
DWIDTH 12 0
BBX 5 10 3 -1
BITMAP
30
50
50
50
50
50
50
60
E8
10
ENDCHAR
STARTCHAR 2116
ENCODING 8470
SWIDTH 960 0
DWIDTH 12 0
BBX 10 9 1 0
BITMAP
8800
8800
C800
CBC0
AA40
AA40
AA40
9980
9BC0
ENDCHAR
STARTCHAR 2121
ENCODING 8481
SWIDTH 960 0
DWIDTH 12 0
BBX 11 9 0 0
BITMAP
FC20
2020
2020
27A0
28A0
2FA0
2820
2420
03A0
ENDCHAR
STARTCHAR 2122
ENCODING 8482
SWIDTH 960 0
DWIDTH 12 0
BBX 9 5 1 4
BITMAP
F480
2480
2D80
2B80
2280
ENDCHAR
STARTCHAR 2126
ENCODING 8486
SWIDTH 960 0
DWIDTH 12 0
BBX 7 9 2 0
BITMAP
10
6C
82
82
82
82
44
28
6E
ENDCHAR
STARTCHAR 212B
ENCODING 8491
SWIDTH 640 0
DWIDTH 8 0
BBX 7 10 0 0
BITMAP
38
28
18
28
24
24
7C
42
42
82
ENDCHAR
STARTCHAR 2153
ENCODING 8531
SWIDTH 960 0
DWIDTH 12 0
BBX 9 10 1 -1
BITMAP
4080
4100
4200
4400
4800
1300
2080
2100
4080
8300
ENDCHAR
STARTCHAR 2154
ENCODING 8532
SWIDTH 960 0
DWIDTH 12 0
BBX 9 10 1 -1
BITMAP
C080
2100
4200
4400
E800
1300
2080
2100
4080
8300
ENDCHAR
STARTCHAR 215B
ENCODING 8539
SWIDTH 960 0
DWIDTH 12 0
BBX 9 10 1 -1
BITMAP
4080
4100
4200
4400
4800
1300
2480
2300
4480
8380
ENDCHAR
STARTCHAR 215C
ENCODING 8540
SWIDTH 960 0
DWIDTH 12 0
BBX 9 10 1 -1
BITMAP
E080
2100
4200
2400
A800
5300
2480
2300
4480
8380
ENDCHAR
STARTCHAR 215D
ENCODING 8541
SWIDTH 960 0
DWIDTH 12 0
BBX 9 10 1 -1
BITMAP
E080
8100
E200
2400
A800
5300
2480
2300
4480
8380
ENDCHAR
STARTCHAR 215E
ENCODING 8542
SWIDTH 960 0
DWIDTH 12 0
BBX 9 10 1 -1
BITMAP
E080
2100
4200
4400
8800
1300
2480
2300
4480
8380
ENDCHAR
STARTCHAR 2160
ENCODING 8544
SWIDTH 960 0
DWIDTH 12 0
BBX 1 9 5 0
BITMAP
80
80
80
80
80
80
80
80
80
ENDCHAR
STARTCHAR 2161
ENCODING 8545
SWIDTH 960 0
DWIDTH 12 0
BBX 4 9 4 0
BITMAP
10
90
90
90
90
90
90
90
10
ENDCHAR
STARTCHAR 2162
ENCODING 8546
SWIDTH 960 0
DWIDTH 12 0
BBX 5 9 3 0
BITMAP
A0
A8
A8
A8
A8
A8
A8
A8
A0
ENDCHAR
STARTCHAR 2163
ENCODING 8547
SWIDTH 960 0
DWIDTH 12 0
BBX 8 9 2 0
BITMAP
81
A2
A2
A2
94
94
94
98
88
ENDCHAR
STARTCHAR 2164
ENCODING 8548
SWIDTH 960 0
DWIDTH 12 0
BBX 7 9 2 0
BITMAP
80
82
42
44
44
24
28
18
10
ENDCHAR
STARTCHAR 2165
ENCODING 8549
SWIDTH 960 0
DWIDTH 12 0
BBX 7 9 2 0
BITMAP
84
8A
8A
8A
4A
52
52
32
20
ENDCHAR
STARTCHAR 2166
ENCODING 8550
SWIDTH 960 0
DWIDTH 12 0
BBX 9 9 1 0
BITMAP
8680
8A80
4A80
4A80
4A80
5280
3280
3280
3280
ENDCHAR
STARTCHAR 2167
ENCODING 8551
SWIDTH 960 0
DWIDTH 12 0
BBX 9 9 1 0
BITMAP
8D00
8D80
9580
9580
9580
5580
6580
2580
2500
ENDCHAR
STARTCHAR 2168
ENCODING 8552
SWIDTH 960 0
DWIDTH 12 0
BBX 8 9 2 0
BITMAP
80
A2
94
94
88
94
94
A2
C1
ENDCHAR
STARTCHAR 2169
ENCODING 8553
SWIDTH 960 0
DWIDTH 12 0
BBX 6 9 3 0
BITMAP
84
88
50
30
20
50
48
88
84
ENDCHAR
STARTCHAR 2170
ENCODING 8560
SWIDTH 960 0
DWIDTH 12 0
BBX 1 9 5 0
BITMAP
80
00
00
80
80
80
80
80
80
ENDCHAR
STARTCHAR 2171
ENCODING 8561
SWIDTH 960 0
DWIDTH 12 0
BBX 4 9 4 0
BITMAP
10
00
00
90
90
90
90
90
10
ENDCHAR
STARTCHAR 2172
ENCODING 8562
SWIDTH 960 0
DWIDTH 12 0
BBX 5 9 3 0
BITMAP
A0
00
00
A8
A8
A8
A8
A8
A0
ENDCHAR
STARTCHAR 2173
ENCODING 8563
SWIDTH 960 0
DWIDTH 12 0
BBX 7 9 2 0
BITMAP
80
00
00
A2
A2
92
94
94
88
ENDCHAR
STARTCHAR 2174
ENCODING 8564
SWIDTH 960 0
DWIDTH 12 0
BBX 5 6 3 0
BITMAP
88
88
48
50
50
20
ENDCHAR
STARTCHAR 2175
ENCODING 8565
SWIDTH 960 0
DWIDTH 12 0
BBX 7 6 2 3
BITMAP
8A
8A
4A
52
52
20
ENDCHAR
STARTCHAR 2176
ENCODING 8566
SWIDTH 960 0
DWIDTH 12 0
BBX 9 9 1 0
BITMAP
0280
0000
0000
8A80
4A80
4A80
5280
3280
3280
ENDCHAR
STARTCHAR 2177
ENCODING 8567
SWIDTH 960 0
DWIDTH 12 0
BBX 9 9 1 0
BITMAP
0500
0000
0000
8D80
9580
9580
5580
6580
2500
ENDCHAR
STARTCHAR 2178
ENCODING 8568
SWIDTH 960 0
DWIDTH 12 0
BBX 7 9 2 0
BITMAP
80
00
00
A2
94
88
94
94
A2
ENDCHAR
STARTCHAR 2179
ENCODING 8569
SWIDTH 960 0
DWIDTH 12 0
BBX 5 6 3 0
BITMAP
C8
50
20
30
48
88
ENDCHAR
STARTCHAR 2190
ENCODING 8592
SWIDTH 960 0
DWIDTH 12 0
BBX 9 2 1 3
BITMAP
8000
FF80
ENDCHAR
STARTCHAR 2191
ENCODING 8593
SWIDTH 960 0
DWIDTH 12 0
BBX 3 10 4 -1
BITMAP
60
C0
40
40
40
40
40
40
40
40
ENDCHAR
STARTCHAR 2192
ENCODING 8594
SWIDTH 960 0
DWIDTH 12 0
BBX 10 3 1 3
BITMAP
0040
FFC0
0080
ENDCHAR
STARTCHAR 2193
ENCODING 8595
SWIDTH 960 0
DWIDTH 12 0
BBX 2 11 5 -1
BITMAP
80
80
80
80
80
80
80
80
80
C0
80
ENDCHAR
STARTCHAR 2194
ENCODING 8596
SWIDTH 960 0
DWIDTH 12 0
BBX 10 3 1 3
BITMAP
8040
FFC0
0080
ENDCHAR
STARTCHAR 2195
ENCODING 8597
SWIDTH 960 0
DWIDTH 12 0
BBX 3 10 4 -1
BITMAP
40
60
40
40
40
40
40
40
C0
60
ENDCHAR
STARTCHAR 2196
ENCODING 8598
SWIDTH 960 0
DWIDTH 12 0
BBX 10 10 1 -1
BITMAP
C000
8000
4000
2000
1000
0800
0400
0200
0100
00C0
ENDCHAR
STARTCHAR 2197
ENCODING 8599
SWIDTH 960 0
DWIDTH 12 0
BBX 10 10 1 -1
BITMAP
01C0
00C0
0100
0200
0400
0800
1000
2000
4000
8000
ENDCHAR
STARTCHAR 2198
ENCODING 8600
SWIDTH 960 0
DWIDTH 12 0
BBX 10 10 1 -2
BITMAP
8000
8000
4000
2000
1000
0800
0400
0200
0140
00C0
ENDCHAR
STARTCHAR 2199
ENCODING 8601
SWIDTH 960 0
DWIDTH 12 0
BBX 11 10 0 -1
BITMAP
0020
0040
0080
0100
0200
0400
0800
1000
A000
6000
ENDCHAR
STARTCHAR 21B0
ENCODING 8624
SWIDTH 960 0
DWIDTH 12 0
BBX 10 10 0 -2
BITMAP
4000
FFC0
4040
0040
0040
0040
0040
0040
0040
0040
ENDCHAR
STARTCHAR 21B1
ENCODING 8625
SWIDTH 960 0
DWIDTH 12 0
BBX 9 9 2 -2
BITMAP
0080
FF80
8080
8000
8000
8000
8000
8000
8000
ENDCHAR
STARTCHAR 21B2
ENCODING 8626
SWIDTH 960 0
DWIDTH 12 0
BBX 10 11 0 -1
BITMAP
0040
0040
0040
0040
0040
0040
0040
4040
C040
FF80
4000
ENDCHAR
STARTCHAR 21B3
ENCODING 8627
SWIDTH 960 0
DWIDTH 12 0
BBX 9 9 2 0
BITMAP
8000
8000
8000
8000
8000
8000
8000
8080
7F80
ENDCHAR
STARTCHAR 21B4
ENCODING 8628
SWIDTH 960 0
DWIDTH 12 0
BBX 9 10 1 -2
BITMAP
FF00
0100
0100
0100
0100
0100
0100
0100
0380
0100
ENDCHAR
STARTCHAR 21BC
ENCODING 8636
SWIDTH 960 0
DWIDTH 12 0
BBX 10 2 1 4
BITMAP
2000
FFC0
ENDCHAR
STARTCHAR 21C0
ENCODING 8640
SWIDTH 960 0
DWIDTH 12 0
BBX 10 2 1 4
BITMAP
0100
FFC0
ENDCHAR
STARTCHAR 21C4
ENCODING 8644
SWIDTH 960 0
DWIDTH 12 0
BBX 11 6 0 1
BITMAP
0080
FFE0
0000
0000
2000
7FE0
ENDCHAR
STARTCHAR 21C5
ENCODING 8645
SWIDTH 960 0
DWIDTH 12 0
BBX 5 10 3 -2
BITMAP
88
C8
88
88
88
88
88
98
88
88
ENDCHAR
STARTCHAR 21CD
ENCODING 8653
SWIDTH 960 0
DWIDTH 12 0
BBX 11 7 0 1
BITMAP
0200
4200
BFE0
8400
7FE0
2400
0400
ENDCHAR
STARTCHAR 21CF
ENCODING 8655
SWIDTH 960 0
DWIDTH 12 0
BBX 10 6 1 1
BITMAP
0800
0880
F740
1040
FF80
2000
ENDCHAR
STARTCHAR 21D0
ENCODING 8656
SWIDTH 960 0
DWIDTH 12 0
BBX 11 5 0 2
BITMAP
4000
BFE0
8000
7FE0
2000
ENDCHAR
STARTCHAR 21D1
ENCODING 8657
SWIDTH 960 0
DWIDTH 12 0
BBX 11 11 0 -1
BITMAP
0900
3A80
2A80
4A40
8A20
0A00
0A00
0A00
0A00
0A00
0800
ENDCHAR
STARTCHAR 21D2
ENCODING 8658
SWIDTH 960 0
DWIDTH 12 0
BBX 11 6 0 1
BITMAP
0080
0040
7FA0
0020
FFC0
0080
ENDCHAR
STARTCHAR 21D3
ENCODING 8659
SWIDTH 960 0
DWIDTH 12 0
BBX 11 12 0 -2
BITMAP
0800
0A00
0A00
0A00
0A00
0A00
0A00
8A20
4A40
2A80
1B00
0800
ENDCHAR
STARTCHAR 21D4
ENCODING 8660
SWIDTH 960 0
DWIDTH 12 0
BBX 11 6 0 1
BITMAP
1080
2040
5FA0
8020
7FC0
2080
ENDCHAR
STARTCHAR 21E0
ENCODING 8672
SWIDTH 960 0
DWIDTH 12 0
BBX 10 4 1 1
BITMAP
4000
D240
DA40
4000
ENDCHAR
STARTCHAR 21E1
ENCODING 8673
SWIDTH 960 0
DWIDTH 12 0
BBX 4 10 4 -2
BITMAP
60
F0
00
60
60
00
60
60
00
60
ENDCHAR
STARTCHAR 21E2
ENCODING 8674
SWIDTH 960 0
DWIDTH 12 0
BBX 10 4 1 1
BITMAP
0080
80C0
B6C0
0080
ENDCHAR
STARTCHAR 21E3
ENCODING 8675
SWIDTH 960 0
DWIDTH 12 0
BBX 4 10 4 -2
BITMAP
60
00
00
60
00
00
60
00
F0
60
ENDCHAR
STARTCHAR 21E6
ENCODING 8678
SWIDTH 960 0
DWIDTH 12 0
BBX 11 8 0 -1
BITMAP
0800
1800
27E0
4020
8020
4020
2FC0
1800
ENDCHAR
STARTCHAR 21E7
ENCODING 8679
SWIDTH 960 0
DWIDTH 12 0
BBX 8 11 2 -2
BITMAP
18
24
42
81
46
44
44
44
44
44
3C
ENDCHAR
STARTCHAR 21E8
ENCODING 8680
SWIDTH 960 0
DWIDTH 12 0
BBX 11 8 0 -1
BITMAP
0100
0280
FC40
8020
8020
8040
7E80
0100
ENDCHAR
STARTCHAR 21E9
ENCODING 8681
SWIDTH 960 0
DWIDTH 12 0
BBX 9 11 1 -2
BITMAP
3E00
2200
2200
2200
2200
2200
C180
4100
2200
1400
0800
ENDCHAR
STARTCHAR 2200
ENCODING 8704
SWIDTH 560 0
DWIDTH 7 0
BBX 7 9 0 0
BITMAP
82
82
44
7C
44
28
28
28
10
ENDCHAR
STARTCHAR 2202
ENCODING 8706
SWIDTH 400 0
DWIDTH 5 0
BBX 4 5 1 1
BITMAP
E0
10
E0
A0
C0
ENDCHAR
STARTCHAR 2203
ENCODING 8707
SWIDTH 560 0
DWIDTH 7 0
BBX 4 9 1 0
BITMAP
F0
10
10
10
F0
10
10
10
F0
ENDCHAR
STARTCHAR 2206
ENCODING 8710
SWIDTH 960 0
DWIDTH 12 0
BBX 8 8 2 0
BITMAP
18
28
24
44
46
82
82
FF
ENDCHAR
STARTCHAR 2207
ENCODING 8711
SWIDTH 960 0
DWIDTH 12 0
BBX 9 7 1 0
BITMAP
FF80
4100
4100
2200
2200
1400
0C00
ENDCHAR
STARTCHAR 2208
ENCODING 8712
SWIDTH 960 0
DWIDTH 12 0
BBX 9 7 1 0
BITMAP
3F80
4000
8000
FF80
8000
4000
3F80
ENDCHAR
STARTCHAR 2209
ENCODING 8713
SWIDTH 960 0
DWIDTH 12 0
BBX 7 7 2 1
BITMAP
3E
C8
90
FC
90
70
0C
ENDCHAR
STARTCHAR 220B
ENCODING 8715
SWIDTH 960 0
DWIDTH 12 0
BBX 8 7 2 0
BITMAP
FC
02
01
FF
01
02
FC
ENDCHAR
STARTCHAR 220C
ENCODING 8716
SWIDTH 960 0
DWIDTH 12 0
BBX 8 8 2 0
BITMAP
08
FC
12
11
7F
12
24
58
ENDCHAR
STARTCHAR 220F
ENCODING 8719
SWIDTH 640 0
DWIDTH 8 0
BBX 6 9 1 0
BITMAP
FC
84
84
84
84
84
84
84
84
ENDCHAR
STARTCHAR 2211
ENCODING 8721
SWIDTH 480 0
DWIDTH 6 0
BBX 5 9 0 0
BITMAP
F8
40
20
10
10
10
20
40
F8
ENDCHAR
STARTCHAR 2213
ENCODING 8723
SWIDTH 960 0
DWIDTH 12 0
BBX 8 7 2 0
BITMAP
7E
00
10
10
FF
10
10
ENDCHAR
STARTCHAR 221A
ENCODING 8730
SWIDTH 960 0
DWIDTH 12 0
BBX 9 11 2 -2
BITMAP
0180
0200
0400
0400
0400
0800
8800
9000
5000
5000
2000
ENDCHAR
STARTCHAR 221D
ENCODING 8733
SWIDTH 960 0
DWIDTH 12 0
BBX 8 4 2 2
BITMAP
F7
88
88
F7
ENDCHAR
STARTCHAR 221E
ENCODING 8734
SWIDTH 960 0
DWIDTH 12 0
BBX 8 4 2 2
BITMAP
66
99
91
EE
ENDCHAR
STARTCHAR 221F
ENCODING 8735
SWIDTH 960 0
DWIDTH 12 0
BBX 6 7 2 1
BITMAP
80
80
80
80
80
80
FC
ENDCHAR
STARTCHAR 2220
ENCODING 8736
SWIDTH 960 0
DWIDTH 12 0
BBX 8 7 2 1
BITMAP
06
04
08
10
20
40
FF
ENDCHAR
STARTCHAR 2222
ENCODING 8738
SWIDTH 960 0
DWIDTH 12 0
BBX 6 7 3 0
BITMAP
14
18
E8
88
68
1C
10
ENDCHAR
STARTCHAR 2225
ENCODING 8741
SWIDTH 960 0
DWIDTH 12 0
BBX 3 11 4 -2
BITMAP
A0
A0
A0
A0
A0
A0
A0
A0
A0
A0
80
ENDCHAR
STARTCHAR 2226
ENCODING 8742
SWIDTH 960 0
DWIDTH 12 0
BBX 8 6 2 1
BITMAP
29
2E
28
38
E8
28
ENDCHAR
STARTCHAR 2227
ENCODING 8743
SWIDTH 960 0
DWIDTH 12 0
BBX 7 7 2 1
BITMAP
10
28
28
44
44
82
80
ENDCHAR
STARTCHAR 2228
ENCODING 8744
SWIDTH 960 0
DWIDTH 12 0
BBX 7 8 2 0
BITMAP
80
82
42
44
24
28
18
10
ENDCHAR
STARTCHAR 2229
ENCODING 8745
SWIDTH 960 0
DWIDTH 12 0
BBX 6 8 3 0
BITMAP
78
84
84
84
84
84
84
84
ENDCHAR
STARTCHAR 222A
ENCODING 8746
SWIDTH 960 0
DWIDTH 12 0
BBX 6 9 3 -1
BITMAP
84
84
84
84
84
84
84
C8
30
ENDCHAR
STARTCHAR 222B
ENCODING 8747
SWIDTH 960 0
DWIDTH 12 0
BBX 5 10 3 -1
BITMAP
08
30
20
20
20
20
20
20
40
C0
ENDCHAR
STARTCHAR 222C
ENCODING 8748
SWIDTH 960 0
DWIDTH 12 0
BBX 7 10 2 -1
BITMAP
12
24
24
24
44
44
44
48
48
90
ENDCHAR
STARTCHAR 222E
ENCODING 8750
SWIDTH 960 0
DWIDTH 12 0
BBX 5 9 3 -1
BITMAP
18
10
30
E8
A8
A8
70
20
C0
ENDCHAR
STARTCHAR 2234
ENCODING 8756
SWIDTH 960 0
DWIDTH 12 0
BBX 7 6 2 1
BITMAP
10
00
00
00
00
82
ENDCHAR
STARTCHAR 2235
ENCODING 8757
SWIDTH 960 0
DWIDTH 12 0
BBX 7 6 2 1
BITMAP
C2
00
00
00
00
10
ENDCHAR
STARTCHAR 223C
ENCODING 8764
SWIDTH 960 0
DWIDTH 12 0
BBX 9 3 1 3
BITMAP
3000
4880
8780
ENDCHAR
STARTCHAR 223D
ENCODING 8765
SWIDTH 960 0
DWIDTH 12 0
BBX 9 4 1 2
BITMAP
7780
8880
8880
7380
ENDCHAR
STARTCHAR 2243
ENCODING 8771
SWIDTH 960 0
DWIDTH 12 0
BBX 8 5 2 1
BITMAP
60
9E
00
00
FF
ENDCHAR
STARTCHAR 2245
ENCODING 8773
SWIDTH 960 0
DWIDTH 12 0
BBX 8 6 2 0
BITMAP
71
8E
00
00
7E
7E
ENDCHAR
STARTCHAR 2248
ENCODING 8776
SWIDTH 960 0
DWIDTH 12 0
BBX 7 5 2 1
BITMAP
60
9E
00
00
FE
ENDCHAR
STARTCHAR 2250
ENCODING 8784
SWIDTH 960 0
DWIDTH 12 0
BBX 9 6 1 1
BITMAP
0800
0800
0000
FF80
0000
FF80
ENDCHAR
STARTCHAR 2251
ENCODING 8785
SWIDTH 960 0
DWIDTH 12 0
BBX 8 7 2 0
BITMAP
18
00
7E
00
FF
00
18
ENDCHAR
STARTCHAR 2252
ENCODING 8786
SWIDTH 960 0
DWIDTH 12 0
BBX 7 8 2 0
BITMAP
40
40
00
FE
00
FE
00
02
ENDCHAR
STARTCHAR 2253
ENCODING 8787
SWIDTH 960 0
DWIDTH 12 0
BBX 8 7 2 0
BITMAP
02
00
7E
00
FF
40
40
ENDCHAR
STARTCHAR 225A
ENCODING 8794
SWIDTH 960 0
DWIDTH 12 0
BBX 8 8 2 0
BITMAP
42
44
24
28
18
10
FF
7E
ENDCHAR
STARTCHAR 2260
ENCODING 8800
SWIDTH 960 0
DWIDTH 12 0
BBX 8 8 2 0
BITMAP
08
08
08
76
10
FF
20
20
ENDCHAR
STARTCHAR 2261
ENCODING 8801
SWIDTH 960 0
DWIDTH 12 0
BBX 8 4 2 2
BITMAP
FF
00
7E
7E
ENDCHAR
STARTCHAR 2262
ENCODING 8802
SWIDTH 960 0
DWIDTH 12 0
BBX 6 6 3 1
BITMAP
10
FC
20
FC
40
FC
ENDCHAR
STARTCHAR 2264
ENCODING 8804
SWIDTH 960 0
DWIDTH 12 0
BBX 8 8 2 0
BITMAP
06
18
60
E0
18
06
00
FF
ENDCHAR
STARTCHAR 2265
ENCODING 8805
SWIDTH 960 0
DWIDTH 12 0
BBX 8 8 2 0
BITMAP
C0
38
06
06
18
E0
00
FF
ENDCHAR
STARTCHAR 2266
ENCODING 8806
SWIDTH 960 0
DWIDTH 12 0
BBX 7 8 2 0
BITMAP
06
18
E0
60
1C
00
7E
7E
ENDCHAR
STARTCHAR 2267
ENCODING 8807
SWIDTH 960 0
DWIDTH 12 0
BBX 8 8 2 0
BITMAP
C0
38
07
0C
30
40
7E
FF
ENDCHAR
STARTCHAR 226A
ENCODING 8810
SWIDTH 960 0
DWIDTH 12 0
BBX 8 8 2 0
BITMAP
01
1A
2C
D0
A0
58
34
0B
ENDCHAR
STARTCHAR 226B
ENCODING 8811
SWIDTH 960 0
DWIDTH 12 0
BBX 9 8 1 0
BITMAP
9000
4800
3600
0D00
0480
1B00
2400
D800
ENDCHAR
STARTCHAR 226E
ENCODING 8814
SWIDTH 960 0
DWIDTH 12 0
BBX 8 8 2 0
BITMAP
01
06
18
70
90
70
18
06
ENDCHAR
STARTCHAR 226F
ENCODING 8815
SWIDTH 960 0
DWIDTH 12 0
BBX 8 8 2 0
BITMAP
88
68
18
16
13
24
18
60
ENDCHAR
STARTCHAR 2270
ENCODING 8816
SWIDTH 960 0
DWIDTH 12 0
BBX 8 9 2 0
BITMAP
06
18
E8
70
1C
12
6E
FF
20
ENDCHAR
STARTCHAR 2271
ENCODING 8817
SWIDTH 960 0
DWIDTH 12 0
BBX 8 9 2 0
BITMAP
68
18
0F
16
38
50
6E
FF
20
ENDCHAR
STARTCHAR 2272
ENCODING 8818
SWIDTH 960 0
DWIDTH 12 0
BBX 7 8 2 0
BITMAP
02
1C
60
20
1C
02
00
FE
ENDCHAR
STARTCHAR 2273
ENCODING 8819
SWIDTH 960 0
DWIDTH 12 0
BBX 7 8 2 0
BITMAP
C0
38
06
0C
30
40
00
FE
ENDCHAR
STARTCHAR 2276
ENCODING 8822
SWIDTH 960 0
DWIDTH 12 0
BBX 8 8 2 0
BITMAP
01
0E
70
30
7F
0E
0C
F0
ENDCHAR
STARTCHAR 2277
ENCODING 8823
SWIDTH 960 0
DWIDTH 12 0
BBX 8 8 2 0
BITMAP
80
70
0E
0C
FE
70
30
0F
ENDCHAR
STARTCHAR 2279
ENCODING 8825
SWIDTH 960 0
DWIDTH 12 0
BBX 8 8 2 -1
BITMAP
80
78
0E
0C
FE
70
30
2F
ENDCHAR
STARTCHAR 227A
ENCODING 8826
SWIDTH 960 0
DWIDTH 12 0
BBX 6 6 3 1
BITMAP
04
08
70
C0
30
0C
ENDCHAR
STARTCHAR 227B
ENCODING 8827
SWIDTH 960 0
DWIDTH 12 0
BBX 8 7 2 0
BITMAP
80
40
38
07
1C
60
80
ENDCHAR
STARTCHAR 2280
ENCODING 8832
SWIDTH 960 0
DWIDTH 12 0
BBX 6 6 3 1
BITMAP
24
28
70
E0
10
2C
ENDCHAR
STARTCHAR 2281
ENCODING 8833
SWIDTH 960 0
DWIDTH 12 0
BBX 7 6 2 1
BITMAP
90
70
08
16
18
70
ENDCHAR
STARTCHAR 2282
ENCODING 8834
SWIDTH 960 0
DWIDTH 12 0
BBX 9 7 1 0
BITMAP
3F80
4000
8000
8000
4000
4000
3F80
ENDCHAR
STARTCHAR 2283
ENCODING 8835
SWIDTH 960 0
DWIDTH 12 0
BBX 8 7 2 0
BITMAP
FC
02
01
01
01
02
FC
ENDCHAR
STARTCHAR 2284
ENCODING 8836
SWIDTH 960 0
DWIDTH 12 0
BBX 8 8 2 0
BITMAP
04
3F
C8
88
88
90
70
1E
ENDCHAR
STARTCHAR 2285
ENCODING 8837
SWIDTH 960 0
DWIDTH 12 0
BBX 7 7 2 1
BITMAP
F8
16
12
22
22
24
58
ENDCHAR
STARTCHAR 2286
ENCODING 8838
SWIDTH 960 0
DWIDTH 12 0
BBX 8 8 2 0
BITMAP
7F
80
80
80
80
7F
00
FF
ENDCHAR
STARTCHAR 2287
ENCODING 8839
SWIDTH 960 0
DWIDTH 12 0
BBX 8 8 2 0
BITMAP
FE
01
01
01
01
FE
00
FF
ENDCHAR
STARTCHAR 228A
ENCODING 8842
SWIDTH 960 0
DWIDTH 12 0
BBX 7 9 2 -1
BITMAP
3E
C0
80
80
40
3E
76
10
7E
ENDCHAR
STARTCHAR 228B
ENCODING 8843
SWIDTH 960 0
DWIDTH 12 0
BBX 7 9 3 -1
BITMAP
F8
04
02
04
04
F8
EC
20
FC
ENDCHAR
STARTCHAR 2295
ENCODING 8853
SWIDTH 960 0
DWIDTH 12 0
BBX 10 10 1 -1
BITMAP
1E00
6100
8880
8840
8840
BF40
8840
8880
4080
3F00
ENDCHAR
STARTCHAR 2296
ENCODING 8854
SWIDTH 960 0
DWIDTH 12 0
BBX 10 10 1 -1
BITMAP
1E00
6100
8080
8040
8040
BF40
8040
8080
4080
3F00
ENDCHAR
STARTCHAR 2297
ENCODING 8855
SWIDTH 960 0
DWIDTH 12 0
BBX 10 10 1 -1
BITMAP
1E00
6100
8180
A240
9440
8840
9440
A280
8080
7F00
ENDCHAR
STARTCHAR 2299
ENCODING 8857
SWIDTH 960 0
DWIDTH 12 0
BBX 10 10 1 -1
BITMAP
0C00
3300
4080
8C80
9C80
9E40
9C80
8080
4100
3E00
ENDCHAR
STARTCHAR 22A3
ENCODING 8867
SWIDTH 960 0
DWIDTH 12 0
BBX 6 8 3 0
BITMAP
04
04
04
04
FC
04
04
04
ENDCHAR
STARTCHAR 22A4
ENCODING 8868
SWIDTH 960 0
DWIDTH 12 0
BBX 8 5 2 1
BITMAP
FF
10
10
10
10
ENDCHAR
STARTCHAR 22A5
ENCODING 8869
SWIDTH 960 0
DWIDTH 12 0
BBX 8 7 2 0
BITMAP
10
10
10
10
10
10
FF
ENDCHAR
STARTCHAR 22BB
ENCODING 8891
SWIDTH 960 0
DWIDTH 12 0
BBX 8 8 2 0
BITMAP
02
82
44
24
28
18
00
FF
ENDCHAR
STARTCHAR 22BC
ENCODING 8892
SWIDTH 960 0
DWIDTH 12 0
BBX 7 7 2 0
BITMAP
7E
10
28
28
44
44
82
ENDCHAR
STARTCHAR 22CE
ENCODING 8910
SWIDTH 960 0
DWIDTH 12 0
BBX 6 7 3 1
BITMAP
20
30
50
50
88
88
04
ENDCHAR
STARTCHAR 22CF
ENCODING 8911
SWIDTH 960 0
DWIDTH 12 0
BBX 6 6 3 1
BITMAP
84
88
50
50
30
20
ENDCHAR
STARTCHAR 22DA
ENCODING 8922
SWIDTH 960 0
DWIDTH 12 0
BBX 7 9 2 -1
BITMAP
0E
F0
3C
02
7E
C0
3C
0A
F0
ENDCHAR
STARTCHAR 22DB
ENCODING 8923
SWIDTH 960 0
DWIDTH 12 0
BBX 7 9 3 -1
BITMAP
E0
1E
78
80
FC
06
78
A0
1E
ENDCHAR
STARTCHAR 2306
ENCODING 8966
SWIDTH 960 0
DWIDTH 12 0
BBX 8 8 2 0
BITMAP
FF
00
7E
10
28
24
44
42
ENDCHAR
STARTCHAR 2312
ENCODING 8978
SWIDTH 960 0
DWIDTH 12 0
BBX 8 4 2 4
BITMAP
18
66
82
01
ENDCHAR
STARTCHAR 2314
ENCODING 8980
SWIDTH 960 0
DWIDTH 12 0
BBX 7 7 2 0
BITMAP
FE
82
82
44
28
28
10
ENDCHAR
STARTCHAR 2460
ENCODING 9312
SWIDTH 960 0
DWIDTH 12 0
BBX 11 11 0 -2
BITMAP
1F80
6040
4C20
8420
8420
8420
8420
8420
4040
2080
1F00
ENDCHAR
STARTCHAR 2461
ENCODING 9313
SWIDTH 960 0
DWIDTH 12 0
BBX 11 11 0 -2
BITMAP
1F80
6440
4B20
8120
8120
8220
8420
8820
4F40
2080
1F00
ENDCHAR
STARTCHAR 2462
ENCODING 9314
SWIDTH 960 0
DWIDTH 12 0
BBX 11 11 0 -2
BITMAP
1F80
6440
4B20
8120
8220
8120
8120
8920
4640
2080
1F00
ENDCHAR
STARTCHAR 2463
ENCODING 9315
SWIDTH 960 0
DWIDTH 12 0
BBX 11 11 0 -2
BITMAP
1F80
6240
4620
8A20
8A20
9220
9F20
8220
4240
2080
1F00
ENDCHAR
STARTCHAR 2464
ENCODING 9316
SWIDTH 960 0
DWIDTH 12 0
BBX 11 11 0 -2
BITMAP
1F80
6040
4E20
8820
8E20
8120
8120
8920
4640
2080
1F00
ENDCHAR
STARTCHAR 2465
ENCODING 9317
SWIDTH 960 0
DWIDTH 12 0
BBX 11 11 0 -2
BITMAP
1F80
6440
4B20
9020
9620
8920
9120
8920
4640
2080
1F00
ENDCHAR
STARTCHAR 2466
ENCODING 9318
SWIDTH 960 0
DWIDTH 12 0
BBX 11 11 0 -2
BITMAP
1F80
6040
4F20
8220
8220
8220
8420
8420
4040
2080
1F00
ENDCHAR
STARTCHAR 2467
ENCODING 9319
SWIDTH 960 0
DWIDTH 12 0
BBX 11 11 0 -2
BITMAP
1F80
6440
4B20
9120
8A20
8E20
9120
8920
4640
2080
1F00
ENDCHAR
STARTCHAR 2468
ENCODING 9320
SWIDTH 960 0
DWIDTH 12 0
BBX 11 11 0 -2
BITMAP
1F80
6440
4B20
9120
8920
8F20
8120
8920
4640
2080
1F00
ENDCHAR
STARTCHAR 2469
ENCODING 9321
SWIDTH 960 0
DWIDTH 12 0
BBX 11 11 0 -2
BITMAP
1F80
6340
74A0
94A0
94A0
94A0
94A0
94A0
4340
2080
1F00
ENDCHAR
STARTCHAR 246A
ENCODING 9322
SWIDTH 960 0
DWIDTH 12 0
BBX 11 11 0 -2
BITMAP
1F80
6040
5B20
8920
8920
8920
8920
8920
4940
2080
1F00
ENDCHAR
STARTCHAR 246B
ENCODING 9323
SWIDTH 960 0
DWIDTH 12 0
BBX 11 11 0 -2
BITMAP
1F80
6140
76A0
90A0
90A0
9120
9120
9220
47C0
2080
1F00
ENDCHAR
STARTCHAR 246C
ENCODING 9324
SWIDTH 960 0
DWIDTH 12 0
BBX 11 11 0 -2
BITMAP
1F80
6140
76A0
90A0
90A0
91A0
90A0
94A0
4340
2080
1F00
ENDCHAR
STARTCHAR 246D
ENCODING 9325
SWIDTH 960 0
DWIDTH 12 0
BBX 11 11 0 -2
BITMAP
1F80
6040
7120
9320
9520
9520
97E0
9120
4040
2080
1F00
ENDCHAR
STARTCHAR 246E
ENCODING 9326
SWIDTH 960 0
DWIDTH 12 0
BBX 11 11 0 -2
BITMAP
1F80
6040
7720
9420
9720
90A0
90A0
94A0
4340
2080
1F00
ENDCHAR
STARTCHAR 246F
ENCODING 9327
SWIDTH 960 0
DWIDTH 12 0
BBX 11 11 0 -2
BITMAP
1F80
6040
57A0
9420
9520
96A0
94A0
94A0
4340
2080
1F00
ENDCHAR
STARTCHAR 2470
ENCODING 9328
SWIDTH 960 0
DWIDTH 12 0
BBX 11 11 0 -2
BITMAP
1F80
6040
57A0
90A0
9120
9120
9220
9220
4040
2080
1F00
ENDCHAR
STARTCHAR 2471
ENCODING 9329
SWIDTH 960 0
DWIDTH 12 0
BBX 11 11 0 -2
BITMAP
1F80
6040
77A0
94A0
94A0
97A0
94A0
94A0
4340
2080
1F00
ENDCHAR
STARTCHAR 2472
ENCODING 9330
SWIDTH 960 0
DWIDTH 12 0
BBX 11 11 0 -2
BITMAP
1F80
6040
77A0
94A0
94A0
93A0
90A0
94A0
4340
2080
1F00
ENDCHAR
STARTCHAR 2473
ENCODING 9331
SWIDTH 960 0
DWIDTH 12 0
BBX 11 11 0 -2
BITMAP
1F80
6040
7BA0
8660
8A60
8A60
9260
A2A0
5940
2080
1F00
ENDCHAR
STARTCHAR 2474
ENCODING 9332
SWIDTH 960 0
DWIDTH 12 0
BBX 11 10 0 -1
BITMAP
0040
4020
8C20
8420
8420
8420
8420
8420
8020
4040
ENDCHAR
STARTCHAR 2475
ENCODING 9333
SWIDTH 960 0
DWIDTH 12 0
BBX 11 10 0 -1
BITMAP
0040
4420
8A20
8120
8220
8220
8420
8820
8620
4040
ENDCHAR
STARTCHAR 2476
ENCODING 9334
SWIDTH 960 0
DWIDTH 12 0
BBX 11 10 0 -1
BITMAP
0040
4420
8B20
8120
8220
8120
8120
8920
8620
4040
ENDCHAR
STARTCHAR 2477
ENCODING 9335
SWIDTH 960 0
DWIDTH 12 0
BBX 11 10 0 -1
BITMAP
0040
4220
8620
8A20
8A20
9220
9F20
8220
8020
4040
ENDCHAR
STARTCHAR 2478
ENCODING 9336
SWIDTH 960 0
DWIDTH 12 0
BBX 11 10 0 -1
BITMAP
0040
4020
8E20
8820
8E20
8120
8120
8920
8620
4040
ENDCHAR
STARTCHAR 2479
ENCODING 9337
SWIDTH 960 0
DWIDTH 12 0
BBX 11 10 0 -1
BITMAP
0040
4620
8920
8820
9620
8920
8920
8920
8620
4040
ENDCHAR
STARTCHAR 247A
ENCODING 9338
SWIDTH 960 0
DWIDTH 12 0
BBX 11 10 0 -1
BITMAP
0040
4020
8F20
8220
8220
8220
8420
8420
8020
4040
ENDCHAR
STARTCHAR 247B
ENCODING 9339
SWIDTH 960 0
DWIDTH 12 0
BBX 11 10 0 -1
BITMAP
0040
4420
8B20
9120
8A20
8E20
9120
9120
8E20
4040
ENDCHAR
STARTCHAR 247C
ENCODING 9340
SWIDTH 960 0
DWIDTH 12 0
BBX 11 10 0 -1
BITMAP
0040
4420
8A20
9120
8920
8720
8120
8920
8620
4040
ENDCHAR
STARTCHAR 247D
ENCODING 9341
SWIDTH 960 0
DWIDTH 12 0
BBX 11 10 0 -1
BITMAP
0040
4020
93A0
94A0
94A0
94A0
94A0
92A0
8120
4040
ENDCHAR
STARTCHAR 247E
ENCODING 9342
SWIDTH 960 0
DWIDTH 12 0
BBX 11 10 0 -1
BITMAP
0040
4020
9B20
8920
8920
8920
8920
8920
8020
4040
ENDCHAR
STARTCHAR 247F
ENCODING 9343
SWIDTH 960 0
DWIDTH 12 0
BBX 11 10 0 -1
BITMAP
0040
4020
B7A0
90A0
90A0
9120
9220
9420
83A0
4040
ENDCHAR
STARTCHAR 2480
ENCODING 9344
SWIDTH 960 0
DWIDTH 12 0
BBX 11 10 0 -1
BITMAP
0040
4020
B7A0
90A0
91A0
90A0
90A0
94A0
8320
4040
ENDCHAR
STARTCHAR 2481
ENCODING 9345
SWIDTH 960 0
DWIDTH 12 0
BBX 11 10 0 -1
BITMAP
0040
4020
B120
9320
9520
9520
97A0
9120
8020
4040
ENDCHAR
STARTCHAR 2482
ENCODING 9346
SWIDTH 960 0
DWIDTH 12 0
BBX 11 10 0 -1
BITMAP
0040
4020
B720
9420
9520
92A0
90A0
94A0
8320
4040
ENDCHAR
STARTCHAR 2483
ENCODING 9347
SWIDTH 960 0
DWIDTH 12 0
BBX 11 10 0 -1
BITMAP
0040
4020
97A0
9420
9520
96A0
94A0
94A0
8320
4040
ENDCHAR
STARTCHAR 2484
ENCODING 9348
SWIDTH 960 0
DWIDTH 12 0
BBX 11 10 0 -1
BITMAP
0040
4020
97A0
90A0
9120
9120
9220
9220
8020
4040
ENDCHAR
STARTCHAR 2485
ENCODING 9349
SWIDTH 960 0
DWIDTH 12 0
BBX 11 10 0 -1
BITMAP
0040
4020
B7A0
94A0
94A0
97A0
94A0
94A0
8320
4040
ENDCHAR
STARTCHAR 2486
ENCODING 9350
SWIDTH 960 0
DWIDTH 12 0
BBX 11 10 0 -1
BITMAP
0040
4020
B7A0
94A0
94A0
93A0
90A0
94A0
8320
4040
ENDCHAR
STARTCHAR 2487
ENCODING 9351
SWIDTH 960 0
DWIDTH 12 0
BBX 11 10 0 -1
BITMAP
0040
4020
BBA0
8660
8A60
8A60
9260
A2A0
9920
4040
ENDCHAR
STARTCHAR 249C
ENCODING 9372
SWIDTH 960 0
DWIDTH 12 0
BBX 11 10 0 -1
BITMAP
0040
4020
8620
8920
8120
8F20
8920
8F20
8020
4040
ENDCHAR
STARTCHAR 249D
ENCODING 9373
SWIDTH 960 0
DWIDTH 12 0
BBX 11 10 0 -1
BITMAP
0040
4820
8820
8820
8F20
8920
8920
8920
8720
4040
ENDCHAR
STARTCHAR 249E
ENCODING 9374
SWIDTH 960 0
DWIDTH 12 0
BBX 11 10 0 -1
BITMAP
0040
4020
8020
8F20
9020
9020
8820
8F20
8020
4040
ENDCHAR
STARTCHAR 249F
ENCODING 9375
SWIDTH 960 0
DWIDTH 12 0
BBX 11 10 0 -1
BITMAP
0040
4120
8120
8120
8F20
9120
9120
9120
8F20
4040
ENDCHAR
STARTCHAR 24A0
ENCODING 9376
SWIDTH 960 0
DWIDTH 12 0
BBX 11 10 0 -1
BITMAP
0040
4020
8020
8F20
9120
9E20
8820
8F20
8020
4040
ENDCHAR
STARTCHAR 24A1
ENCODING 9377
SWIDTH 960 0
DWIDTH 12 0
BBX 11 10 0 -1
BITMAP
0040
4220
8420
8420
8E20
8420
8420
8420
8420
4040
ENDCHAR
STARTCHAR 24A2
ENCODING 9378
SWIDTH 960 0
DWIDTH 12 0
BBX 11 10 0 -1
BITMAP
0040
4420
8B20
9120
9120
8920
8720
8120
8E20
4040
ENDCHAR
STARTCHAR 24A3
ENCODING 9379
SWIDTH 960 0
DWIDTH 12 0
BBX 11 10 0 -1
BITMAP
0040
4820
8820
8820
8F20
8920
8920
8920
8920
4040
ENDCHAR
STARTCHAR 24A4
ENCODING 9380
SWIDTH 960 0
DWIDTH 12 0
BBX 11 10 0 -1
BITMAP
0040
4420
8020
8020
8420
8420
8420
8420
8420
4040
ENDCHAR
STARTCHAR 24A5
ENCODING 9381
SWIDTH 960 0
DWIDTH 12 0
BBX 11 10 0 -1
BITMAP
0040
4220
8020
8220
8220
8220
8220
8220
8420
4040
ENDCHAR
STARTCHAR 24A6
ENCODING 9382
SWIDTH 960 0
DWIDTH 12 0
BBX 11 10 0 -1
BITMAP
0040
4820
8820
8820
8B20
8C20
8C20
8A20
8920
4040
ENDCHAR
STARTCHAR 24A7
ENCODING 9383
SWIDTH 960 0
DWIDTH 12 0
BBX 11 10 0 -1
BITMAP
0040
4420
8420
8420
8420
8420
8420
8420
8420
4040
ENDCHAR
STARTCHAR 24A8
ENCODING 9384
SWIDTH 960 0
DWIDTH 12 0
BBX 11 10 0 -1
BITMAP
0040
4020
8920
B6A0
A4A0
A4A0
A4A0
A020
8020
4040
ENDCHAR
STARTCHAR 24A9
ENCODING 9385
SWIDTH 960 0
DWIDTH 12 0
BBX 11 10 0 -1
BITMAP
0040
4020
8220
8D20
8920
8920
8920
8920
8020
4040
ENDCHAR
STARTCHAR 24AA
ENCODING 9386
SWIDTH 960 0
DWIDTH 12 0
BBX 11 10 0 -1
BITMAP
0040
4020
8620
8920
9120
9120
9120
8E20
8020
4040
ENDCHAR
STARTCHAR 24AB
ENCODING 9387
SWIDTH 960 0
DWIDTH 12 0
BBX 11 10 0 -1
BITMAP
0040
4020
8F20
8920
8920
8920
8E20
8820
8820
4040
ENDCHAR
STARTCHAR 24AC
ENCODING 9388
SWIDTH 960 0
DWIDTH 12 0
BBX 11 10 0 -1
BITMAP
0040
4020
9F20
9120
9120
9320
8D20
8120
8120
4040
ENDCHAR
STARTCHAR 24AD
ENCODING 9389
SWIDTH 960 0
DWIDTH 12 0
BBX 11 10 0 -1
BITMAP
0040
4020
8020
8A20
8420
8820
8820
8020
8020
4040
ENDCHAR
STARTCHAR 24AE
ENCODING 9390
SWIDTH 960 0
DWIDTH 12 0
BBX 11 10 0 -1
BITMAP
0040
4020
8620
8820
8820
8620
8120
8E20
8020
4040
ENDCHAR
STARTCHAR 24AF
ENCODING 9391
SWIDTH 960 0
DWIDTH 12 0
BBX 11 10 0 -1
BITMAP
0040
4020
8420
8E20
8420
8420
8420
8420
8220
4040
ENDCHAR
STARTCHAR 24B0
ENCODING 9392
SWIDTH 960 0
DWIDTH 12 0
BBX 11 10 0 -1
BITMAP
0040
4020
8120
9120
9120
9120
9120
8F20
8020
4040
ENDCHAR
STARTCHAR 24B1
ENCODING 9393
SWIDTH 960 0
DWIDTH 12 0
BBX 11 10 0 -1
BITMAP
0040
4020
8020
9120
8920
8A20
8620
8420
8020
4040
ENDCHAR
STARTCHAR 24B2
ENCODING 9394
SWIDTH 960 0
DWIDTH 12 0
BBX 11 10 0 -1
BITMAP
0040
4020
8020
A4A0
96A0
9AA0
9B20
8920
8020
4040
ENDCHAR
STARTCHAR 24B3
ENCODING 9395
SWIDTH 960 0
DWIDTH 12 0
BBX 11 10 0 -1
BITMAP
0040
4020
8020
8B20
8620
8620
8A20
8120
8020
4040
ENDCHAR
STARTCHAR 24B4
ENCODING 9396
SWIDTH 960 0
DWIDTH 12 0
BBX 11 10 0 -1
BITMAP
0040
4020
9120
8920
8A20
8620
8620
8420
8420
4040
ENDCHAR
STARTCHAR 24B5
ENCODING 9397
SWIDTH 960 0
DWIDTH 12 0
BBX 11 10 0 -1
BITMAP
0040
4020
8020
8E20
8220
8420
8820
8F20
8020
4040
ENDCHAR
STARTCHAR 24B6
ENCODING 9398
SWIDTH 960 0
DWIDTH 12 0
BBX 11 11 0 -2
BITMAP
1F80
6440
4620
8A20
8A20
8920
9720
9120
50C0
2080
1F00
ENDCHAR
STARTCHAR 24B7
ENCODING 9399
SWIDTH 960 0
DWIDTH 12 0
BBX 11 11 0 -2
BITMAP
1F80
6C40
5320
9120
9120
9F20
90A0
9120
4F40
2080
1F00
ENDCHAR
STARTCHAR 24B8
ENCODING 9400
SWIDTH 960 0
DWIDTH 12 0
BBX 11 11 0 -2
BITMAP
1F80
6E40
5120
9020
A020
A020
9020
9020
4F40
2080
1F00
ENDCHAR
STARTCHAR 24B9
ENCODING 9401
SWIDTH 960 0
DWIDTH 12 0
BBX 11 11 0 -2
BITMAP
1F80
6C40
4B20
88A0
88A0
88A0
88A0
88A0
4F40
2080
1F00
ENDCHAR
STARTCHAR 24BA
ENCODING 9402
SWIDTH 960 0
DWIDTH 12 0
BBX 11 11 0 -2
BITMAP
1F80
6F40
5020
9020
9020
9E20
9020
9020
4F40
2080
1F00
ENDCHAR
STARTCHAR 24BB
ENCODING 9403
SWIDTH 960 0
DWIDTH 12 0
BBX 11 11 0 -2
BITMAP
1F80
6040
4F20
8820
8820
8E20
8820
8820
4840
2080
1F00
ENDCHAR
STARTCHAR 24BC
ENCODING 9404
SWIDTH 960 0
DWIDTH 12 0
BBX 11 11 0 -2
BITMAP
1F80
6640
5920
9020
A020
A320
9120
9120
4F40
2080
1F00
ENDCHAR
STARTCHAR 24BD
ENCODING 9405
SWIDTH 960 0
DWIDTH 12 0
BBX 11 11 0 -2
BITMAP
1F80
7040
5120
9120
9120
9F20
9120
9120
5040
2080
1F00
ENDCHAR
STARTCHAR 24BE
ENCODING 9406
SWIDTH 960 0
DWIDTH 12 0
BBX 11 11 0 -2
BITMAP
1F80
6440
4420
8420
8420
8420
8420
8420
4440
2080
1F00
ENDCHAR
STARTCHAR 24BF
ENCODING 9407
SWIDTH 960 0
DWIDTH 12 0
BBX 11 11 0 -2
BITMAP
1F80
6240
4220
8220
8220
8220
8220
8220
4C40
2080
1F00
ENDCHAR
STARTCHAR 24C0
ENCODING 9408
SWIDTH 960 0
DWIDTH 12 0
BBX 11 11 0 -2
BITMAP
1F80
7140
5220
9420
9820
9420
9220
9120
5140
2080
1F00
ENDCHAR
STARTCHAR 24C1
ENCODING 9409
SWIDTH 960 0
DWIDTH 12 0
BBX 11 11 0 -2
BITMAP
1F80
6840
4820
8820
8820
8820
8820
8820
4F40
2080
1F00
ENDCHAR
STARTCHAR 24C2
ENCODING 9410
SWIDTH 960 0
DWIDTH 12 0
BBX 11 11 0 -2
BITMAP
1F80
6040
50A0
B1A0
A9A0
AAA0
AAA0
A6A0
4440
2080
1F00
ENDCHAR
STARTCHAR 24C3
ENCODING 9411
SWIDTH 960 0
DWIDTH 12 0
BBX 11 11 0 -2
BITMAP
1F80
6040
5920
9920
9520
9520
9320
9320
5140
2080
1F00
ENDCHAR
STARTCHAR 24C4
ENCODING 9412
SWIDTH 960 0
DWIDTH 12 0
BBX 11 11 0 -2
BITMAP
1F80
6640
5920
90A0
A0A0
A0A0
A0A0
90A0
4F40
2080
1F00
ENDCHAR
STARTCHAR 24C5
ENCODING 9413
SWIDTH 960 0
DWIDTH 12 0
BBX 11 11 0 -2
BITMAP
1F80
6040
4F20
88A0
8920
8F20
8820
8820
4840
2080
1F00
ENDCHAR
STARTCHAR 24C6
ENCODING 9414
SWIDTH 960 0
DWIDTH 12 0
BBX 11 11 0 -2
BITMAP
1F80
6E40
5120
A120
A0A0
A0A0
A120
9120
4FC0
2080
1F00
ENDCHAR
STARTCHAR 24C7
ENCODING 9415
SWIDTH 960 0
DWIDTH 12 0
BBX 11 11 0 -2
BITMAP
1F80
6E40
5120
9120
9120
9620
9120
9120
4140
2080
1F00
ENDCHAR
STARTCHAR 24C8
ENCODING 9416
SWIDTH 960 0
DWIDTH 12 0
BBX 11 11 0 -2
BITMAP
1F80
6640
4820
9020
8C20
8220
8120
8120
4F40
2080
1F00
ENDCHAR
STARTCHAR 24C9
ENCODING 9417
SWIDTH 960 0
DWIDTH 12 0
BBX 11 11 0 -2
BITMAP
1F80
6040
4F20
8420
8420
8420
8420
8420
4440
2080
1F00
ENDCHAR
STARTCHAR 24CA
ENCODING 9418
SWIDTH 960 0
DWIDTH 12 0
BBX 11 11 0 -2
BITMAP
1F80
6040
5120
9120
9120
9120
9120
9120
4940
2680
1F00
ENDCHAR
STARTCHAR 24CB
ENCODING 9419
SWIDTH 960 0
DWIDTH 12 0
BBX 11 11 0 -2
BITMAP
1F80
6040
5120
9120
9120
8A20
8A20
8A20
4440
2080
1F00
ENDCHAR
STARTCHAR 24CC
ENCODING 9420
SWIDTH 960 0
DWIDTH 12 0
BBX 11 11 0 -2
BITMAP
1F80
6040
64A0
A4A0
AAA0
AAA0
9AA0
9B20
5140
2080
1F00
ENDCHAR
STARTCHAR 24CD
ENCODING 9421
SWIDTH 960 0
DWIDTH 12 0
BBX 11 11 0 -2
BITMAP
1F80
7040
4920
8A20
8620
8420
8A20
8920
5040
2080
1F00
ENDCHAR
STARTCHAR 24CE
ENCODING 9422
SWIDTH 960 0
DWIDTH 12 0
BBX 11 11 0 -2
BITMAP
1F80
6040
5120
8920
8A20
8420
8420
8420
4440
2080
1F00
ENDCHAR
STARTCHAR 24CF
ENCODING 9423
SWIDTH 960 0
DWIDTH 12 0
BBX 11 11 0 -2
BITMAP
1F80
6040
4F20
8220
8220
8420
8820
8820
5F40
2080
1F00
ENDCHAR
STARTCHAR 24D0
ENCODING 9424
SWIDTH 960 0
DWIDTH 12 0
BBX 11 11 0 -2
BITMAP
1F80
6040
4620
8920
8120
8F20
9120
8F20
4040
2080
1F00
ENDCHAR
STARTCHAR 24D1
ENCODING 9425
SWIDTH 960 0
DWIDTH 12 0
BBX 11 11 0 -2
BITMAP
1F80
6840
4820
8820
8F20
8920
8920
8920
4740
2080
1F00
ENDCHAR
STARTCHAR 24D2
ENCODING 9426
SWIDTH 960 0
DWIDTH 12 0
BBX 11 11 0 -2
BITMAP
1F80
6040
4020
8F20
9020
9020
8820
8F20
4040
2080
1F00
ENDCHAR
STARTCHAR 24D3
ENCODING 9427
SWIDTH 960 0
DWIDTH 12 0
BBX 11 11 0 -2
BITMAP
1F80
6140
4120
8120
8F20
9120
9120
9120
4F40
2080
1F00
ENDCHAR
STARTCHAR 24D4
ENCODING 9428
SWIDTH 960 0
DWIDTH 12 0
BBX 11 11 0 -2
BITMAP
1F80
6040
4020
8F20
9120
9E20
8820
8F20
4040
2080
1F00
ENDCHAR
STARTCHAR 24D5
ENCODING 9429
SWIDTH 960 0
DWIDTH 12 0
BBX 11 11 0 -2
BITMAP
1F80
6240
4420
8420
8E20
8420
8420
8420
4440
2080
1F00
ENDCHAR
STARTCHAR 24D6
ENCODING 9430
SWIDTH 960 0
DWIDTH 12 0
BBX 11 11 0 -2
BITMAP
1F80
6440
4B20
9120
9120
8920
8720
8120
4E40
2080
1F00
ENDCHAR
STARTCHAR 24D7
ENCODING 9431
SWIDTH 960 0
DWIDTH 12 0
BBX 11 11 0 -2
BITMAP
1F80
6840
4820
8820
8F20
8920
8920
8920
4940
2080
1F00
ENDCHAR
STARTCHAR 24D8
ENCODING 9432
SWIDTH 960 0
DWIDTH 12 0
BBX 11 11 0 -2
BITMAP
1F80
6440
4020
8020
8420
8420
8420
8420
4440
2080
1F00
ENDCHAR
STARTCHAR 24D9
ENCODING 9433
SWIDTH 960 0
DWIDTH 12 0
BBX 11 11 0 -2
BITMAP
1F80
6240
4020
8220
8220
8220
8220
8220
4440
2080
1F00
ENDCHAR
STARTCHAR 24DA
ENCODING 9434
SWIDTH 960 0
DWIDTH 12 0
BBX 11 11 0 -2
BITMAP
1F80
6840
4820
8820
8B20
8C20
8C20
8A20
4940
2080
1F00
ENDCHAR
STARTCHAR 24DB
ENCODING 9435
SWIDTH 960 0
DWIDTH 12 0
BBX 11 11 0 -2
BITMAP
1F80
6440
4420
8420
8420
8420
8420
8420
4440
2080
1F00
ENDCHAR
STARTCHAR 24DC
ENCODING 9436
SWIDTH 960 0
DWIDTH 12 0
BBX 11 11 0 -2
BITMAP
1F80
6040
4920
B6A0
A4A0
A4A0
A4A0
A020
4040
2080
1F00
ENDCHAR
STARTCHAR 24DD
ENCODING 9437
SWIDTH 960 0
DWIDTH 12 0
BBX 11 11 0 -2
BITMAP
1F80
6040
4220
8D20
8920
8920
8920
8920
4040
2080
1F00
ENDCHAR
STARTCHAR 24DE
ENCODING 9438
SWIDTH 960 0
DWIDTH 12 0
BBX 11 11 0 -2
BITMAP
1F80
6040
4620
8920
9120
9120
9120
8E20
4040
2080
1F00
ENDCHAR
STARTCHAR 24DF
ENCODING 9439
SWIDTH 960 0
DWIDTH 12 0
BBX 11 11 0 -2
BITMAP
1F80
6040
4F20
8920
8920
8920
8E20
8820
4840
2080
1F00
ENDCHAR
STARTCHAR 24E0
ENCODING 9440
SWIDTH 960 0
DWIDTH 12 0
BBX 11 11 0 -2
BITMAP
1F80
6040
5F20
9120
9120
9320
8D20
8120
4140
2080
1F00
ENDCHAR
STARTCHAR 24E1
ENCODING 9441
SWIDTH 960 0
DWIDTH 12 0
BBX 11 11 0 -2
BITMAP
1F80
6040
4020
8A20
8420
8820
8820
8020
4040
2080
1F00
ENDCHAR
STARTCHAR 24E2
ENCODING 9442
SWIDTH 960 0
DWIDTH 12 0
BBX 11 11 0 -2
BITMAP
1F80
6040
4620
8820
8820
8620
8120
8E20
4040
2080
1F00
ENDCHAR
STARTCHAR 24E3
ENCODING 9443
SWIDTH 960 0
DWIDTH 12 0
BBX 11 11 0 -2
BITMAP
1F80
6040
4420
8E20
8420
8420
8420
8420
4240
2080
1F00
ENDCHAR
STARTCHAR 24E4
ENCODING 9444
SWIDTH 960 0
DWIDTH 12 0
BBX 11 11 0 -2
BITMAP
1F80
6040
4120
9120
9120
9120
9120
8F20
4040
2080
1F00
ENDCHAR
STARTCHAR 24E5
ENCODING 9445
SWIDTH 960 0
DWIDTH 12 0
BBX 11 11 0 -2
BITMAP
1F80
6040
4020
9120
8920
8A20
8620
8420
4040
2080
1F00
ENDCHAR
STARTCHAR 24E6
ENCODING 9446
SWIDTH 960 0
DWIDTH 12 0
BBX 11 11 0 -2
BITMAP
1F80
6040
4020
A4A0
96A0
9AA0
9B20
8920
4040
2080
1F00
ENDCHAR
STARTCHAR 24E7
ENCODING 9447
SWIDTH 960 0
DWIDTH 12 0
BBX 11 11 0 -2
BITMAP
1F80
6040
4020
8B20
8620
8620
8A20
8120
4040
2080
1F00
ENDCHAR
STARTCHAR 24E8
ENCODING 9448
SWIDTH 960 0
DWIDTH 12 0
BBX 11 11 0 -2
BITMAP
1F80
6040
5120
8920
8A20
8620
8620
8420
4440
2080
1F00
ENDCHAR
STARTCHAR 24E9
ENCODING 9449
SWIDTH 960 0
DWIDTH 12 0
BBX 11 11 0 -2
BITMAP
1F80
6040
4020
8E20
8220
8420
8820
8F20
4040
2080
1F00
ENDCHAR
STARTCHAR 2500
ENCODING 9472
SWIDTH 960 0
DWIDTH 12 0
BBX 11 1 0 4
BITMAP
FFE0
ENDCHAR
STARTCHAR 2501
ENCODING 9473
SWIDTH 960 0
DWIDTH 12 0
BBX 12 1 0 3
BITMAP
FFF0
ENDCHAR
STARTCHAR 2502
ENCODING 9474
SWIDTH 960 0
DWIDTH 12 0
BBX 1 12 5 -2
BITMAP
80
80
80
80
80
80
80
80
80
80
80
80
ENDCHAR
STARTCHAR 2503
ENCODING 9475
SWIDTH 960 0
DWIDTH 12 0
BBX 1 12 5 -2
BITMAP
80
80
80
80
80
80
80
80
80
80
80
80
ENDCHAR
STARTCHAR 250C
ENCODING 9484
SWIDTH 960 0
DWIDTH 12 0
BBX 5 6 6 -2
BITMAP
F8
80
80
80
80
80
ENDCHAR
STARTCHAR 250D
ENCODING 9485
SWIDTH 960 0
DWIDTH 12 0
BBX 6 6 6 -2
BITMAP
FC
80
80
80
80
80
ENDCHAR
STARTCHAR 250E
ENCODING 9486
SWIDTH 960 0
DWIDTH 12 0
BBX 6 6 5 -2
BITMAP
FC
80
80
80
80
80
ENDCHAR
STARTCHAR 250F
ENCODING 9487
SWIDTH 960 0
DWIDTH 12 0
BBX 7 6 5 -2
BITMAP
FE
80
80
80
80
80
ENDCHAR
STARTCHAR 2510
ENCODING 9488
SWIDTH 960 0
DWIDTH 12 0
BBX 6 6 0 -2
BITMAP
FC
04
04
04
04
04
ENDCHAR
STARTCHAR 2511
ENCODING 9489
SWIDTH 960 0
DWIDTH 12 0
BBX 6 6 0 -2
BITMAP
FC
04
04
04
04
04
ENDCHAR
STARTCHAR 2512
ENCODING 9490
SWIDTH 960 0
DWIDTH 12 0
BBX 6 6 0 -2
BITMAP
FC
04
04
04
04
04
ENDCHAR
STARTCHAR 2513
ENCODING 9491
SWIDTH 960 0
DWIDTH 12 0
BBX 6 6 0 -2
BITMAP
FC
04
04
04
04
04
ENDCHAR
STARTCHAR 2514
ENCODING 9492
SWIDTH 960 0
DWIDTH 12 0
BBX 5 6 6 4
BITMAP
80
80
80
80
80
F8
ENDCHAR
STARTCHAR 2515
ENCODING 9493
SWIDTH 960 0
DWIDTH 12 0
BBX 6 7 6 3
BITMAP
80
80
80
80
80
80
FC
ENDCHAR
STARTCHAR 2516
ENCODING 9494
SWIDTH 960 0
DWIDTH 12 0
BBX 6 6 5 4
BITMAP
80
80
80
80
80
FC
ENDCHAR
STARTCHAR 2517
ENCODING 9495
SWIDTH 960 0
DWIDTH 12 0
BBX 7 7 5 3
BITMAP
80
80
80
80
80
80
FE
ENDCHAR
STARTCHAR 2518
ENCODING 9496
SWIDTH 960 0
DWIDTH 12 0
BBX 6 6 0 4
BITMAP
04
04
04
04
04
FC
ENDCHAR
STARTCHAR 2519
ENCODING 9497
SWIDTH 960 0
DWIDTH 12 0
BBX 6 7 0 3
BITMAP
04
04
04
04
04
04
FC
ENDCHAR
STARTCHAR 251A
ENCODING 9498
SWIDTH 960 0
DWIDTH 12 0
BBX 6 6 0 4
BITMAP
04
04
04
04
04
FC
ENDCHAR
STARTCHAR 251B
ENCODING 9499
SWIDTH 960 0
DWIDTH 12 0
BBX 6 7 0 3
BITMAP
04
04
04
04
04
04
FC
ENDCHAR
STARTCHAR 251C
ENCODING 9500
SWIDTH 960 0
DWIDTH 12 0
BBX 5 12 6 -2
BITMAP
80
80
80
80
80
80
F8
80
80
80
80
80
ENDCHAR
STARTCHAR 251D
ENCODING 9501
SWIDTH 960 0
DWIDTH 12 0
BBX 6 12 6 -2
BITMAP
80
80
80
80
80
80
FC
80
80
80
80
80
ENDCHAR
STARTCHAR 251E
ENCODING 9502
SWIDTH 960 0
DWIDTH 12 0
BBX 6 12 5 -2
BITMAP
80
80
80
80
80
80
FC
80
80
80
80
80
ENDCHAR
STARTCHAR 251F
ENCODING 9503
SWIDTH 960 0
DWIDTH 12 0
BBX 6 12 5 -2
BITMAP
80
80
80
80
80
80
FC
80
80
80
80
80
ENDCHAR
STARTCHAR 2520
ENCODING 9504
SWIDTH 960 0
DWIDTH 12 0
BBX 6 12 5 -2
BITMAP
80
80
80
80
80
80
FC
80
80
80
80
80
ENDCHAR
STARTCHAR 2521
ENCODING 9505
SWIDTH 960 0
DWIDTH 12 0
BBX 7 12 5 -2
BITMAP
80
80
80
80
80
80
7E
80
80
80
80
80
ENDCHAR
STARTCHAR 2522
ENCODING 9506
SWIDTH 960 0
DWIDTH 12 0
BBX 7 12 5 -2
BITMAP
80
80
80
80
80
80
FE
80
80
80
80
80
ENDCHAR
STARTCHAR 2523
ENCODING 9507
SWIDTH 960 0
DWIDTH 12 0
BBX 7 12 5 -2
BITMAP
80
80
80
80
80
80
FE
80
80
80
80
80
ENDCHAR
STARTCHAR 2524
ENCODING 9508
SWIDTH 960 0
DWIDTH 12 0
BBX 6 12 0 -2
BITMAP
04
04
04
04
04
04
FC
04
04
04
04
04
ENDCHAR
STARTCHAR 2525
ENCODING 9509
SWIDTH 960 0
DWIDTH 12 0
BBX 6 12 0 -2
BITMAP
04
04
04
04
04
04
FC
04
04
04
04
04
ENDCHAR
STARTCHAR 2526
ENCODING 9510
SWIDTH 960 0
DWIDTH 12 0
BBX 6 12 0 -2
BITMAP
04
04
04
04
04
04
FC
04
04
04
04
04
ENDCHAR
STARTCHAR 2527
ENCODING 9511
SWIDTH 960 0
DWIDTH 12 0
BBX 6 12 0 -2
BITMAP
04
04
04
04
04
04
FC
04
04
04
04
04
ENDCHAR
STARTCHAR 2528
ENCODING 9512
SWIDTH 960 0
DWIDTH 12 0
BBX 6 12 0 -2
BITMAP
04
04
04
04
04
04
FC
04
04
04
04
04
ENDCHAR
STARTCHAR 2529
ENCODING 9513
SWIDTH 960 0
DWIDTH 12 0
BBX 6 12 0 -2
BITMAP
04
04
04
04
04
04
FC
04
04
04
04
04
ENDCHAR
STARTCHAR 252A
ENCODING 9514
SWIDTH 960 0
DWIDTH 12 0
BBX 6 12 0 -2
BITMAP
04
04
04
04
04
04
FC
04
04
04
04
04
ENDCHAR
STARTCHAR 252B
ENCODING 9515
SWIDTH 960 0
DWIDTH 12 0
BBX 6 12 0 -2
BITMAP
04
04
04
04
04
04
FC
04
04
04
04
04
ENDCHAR
STARTCHAR 252C
ENCODING 9516
SWIDTH 960 0
DWIDTH 12 0
BBX 11 6 0 -2
BITMAP
FFE0
0400
0400
0400
0400
0400
ENDCHAR
STARTCHAR 252D
ENCODING 9517
SWIDTH 960 0
DWIDTH 12 0
BBX 11 6 0 -2
BITMAP
FFE0
0400
0400
0400
0400
0400
ENDCHAR
STARTCHAR 252E
ENCODING 9518
SWIDTH 960 0
DWIDTH 12 0
BBX 12 6 0 -2
BITMAP
FFF0
0400
0400
0400
0400
0400
ENDCHAR
STARTCHAR 252F
ENCODING 9519
SWIDTH 960 0
DWIDTH 12 0
BBX 12 6 0 -2
BITMAP
FFF0
0400
0400
0400
0400
0400
ENDCHAR
STARTCHAR 2530
ENCODING 9520
SWIDTH 960 0
DWIDTH 12 0
BBX 11 6 0 -2
BITMAP
FFE0
0400
0400
0400
0400
0400
ENDCHAR
STARTCHAR 2531
ENCODING 9521
SWIDTH 960 0
DWIDTH 12 0
BBX 11 6 0 -2
BITMAP
FFE0
0400
0400
0400
0400
0400
ENDCHAR
STARTCHAR 2532
ENCODING 9522
SWIDTH 960 0
DWIDTH 12 0
BBX 12 6 0 -2
BITMAP
FFF0
0400
0400
0400
0400
0400
ENDCHAR
STARTCHAR 2533
ENCODING 9523
SWIDTH 960 0
DWIDTH 12 0
BBX 12 6 0 -2
BITMAP
FFF0
0400
0400
0400
0400
0400
ENDCHAR
STARTCHAR 2534
ENCODING 9524
SWIDTH 960 0
DWIDTH 12 0
BBX 11 6 0 4
BITMAP
0400
0400
0400
0400
0400
FFE0
ENDCHAR
STARTCHAR 2535
ENCODING 9525
SWIDTH 960 0
DWIDTH 12 0
BBX 11 7 0 3
BITMAP
0400
0400
0400
0400
0400
0400
FFE0
ENDCHAR
STARTCHAR 2536
ENCODING 9526
SWIDTH 960 0
DWIDTH 12 0
BBX 12 7 0 3
BITMAP
0400
0400
0400
0400
0400
0400
FBF0
ENDCHAR
STARTCHAR 2537
ENCODING 9527
SWIDTH 960 0
DWIDTH 12 0
BBX 12 7 0 3
BITMAP
0400
0400
0400
0400
0400
0400
FFF0
ENDCHAR
STARTCHAR 2538
ENCODING 9528
SWIDTH 960 0
DWIDTH 12 0
BBX 11 6 0 4
BITMAP
0400
0400
0400
0400
0400
FFE0
ENDCHAR
STARTCHAR 2539
ENCODING 9529
SWIDTH 960 0
DWIDTH 12 0
BBX 11 7 0 3
BITMAP
0400
0400
0400
0400
0400
0400
FFE0
ENDCHAR
STARTCHAR 253A
ENCODING 9530
SWIDTH 960 0
DWIDTH 12 0
BBX 12 7 0 3
BITMAP
0400
0400
0400
0400
0400
0400
FBF0
ENDCHAR
STARTCHAR 253B
ENCODING 9531
SWIDTH 960 0
DWIDTH 12 0
BBX 12 7 0 3
BITMAP
0400
0400
0400
0400
0400
0400
FFF0
ENDCHAR
STARTCHAR 253C
ENCODING 9532
SWIDTH 960 0
DWIDTH 12 0
BBX 11 12 0 -2
BITMAP
0400
0400
0400
0400
0400
0400
FFE0
0400
0400
0400
0400
0400
ENDCHAR
STARTCHAR 253D
ENCODING 9533
SWIDTH 960 0
DWIDTH 12 0
BBX 11 12 0 -2
BITMAP
0400
0400
0400
0400
0400
0400
FFE0
0400
0400
0400
0400
0400
ENDCHAR
STARTCHAR 253E
ENCODING 9534
SWIDTH 960 0
DWIDTH 12 0
BBX 12 12 0 -2
BITMAP
0400
0400
0400
0400
0400
0400
FBF0
0400
0400
0400
0400
0400
ENDCHAR
STARTCHAR 253F
ENCODING 9535
SWIDTH 960 0
DWIDTH 12 0
BBX 12 12 0 -2
BITMAP
0400
0400
0400
0400
0400
0400
FFF0
0400
0400
0400
0400
0400
ENDCHAR
STARTCHAR 2540
ENCODING 9536
SWIDTH 960 0
DWIDTH 12 0
BBX 11 12 0 -2
BITMAP
0400
0400
0400
0400
0400
0400
FFE0
0400
0400
0400
0400
0400
ENDCHAR
STARTCHAR 2541
ENCODING 9537
SWIDTH 960 0
DWIDTH 12 0
BBX 11 12 0 -2
BITMAP
0400
0400
0400
0400
0400
0400
FFE0
0400
0400
0400
0400
0400
ENDCHAR
STARTCHAR 2542
ENCODING 9538
SWIDTH 960 0
DWIDTH 12 0
BBX 11 12 0 -2
BITMAP
0400
0400
0400
0400
0400
0400
FFE0
0400
0400
0400
0400
0400
ENDCHAR
STARTCHAR 2543
ENCODING 9539
SWIDTH 960 0
DWIDTH 12 0
BBX 11 12 0 -2
BITMAP
0400
0400
0400
0400
0400
0400
FFE0
0400
0400
0400
0400
0400
ENDCHAR
STARTCHAR 2544
ENCODING 9540
SWIDTH 960 0
DWIDTH 12 0
BBX 12 12 0 -2
BITMAP
0400
0400
0400
0400
0400
0400
FBF0
0400
0400
0400
0400
0400
ENDCHAR
STARTCHAR 2545
ENCODING 9541
SWIDTH 960 0
DWIDTH 12 0
BBX 11 12 0 -2
BITMAP
0400
0400
0400
0400
0400
0400
FFE0
0400
0400
0400
0400
0400
ENDCHAR
STARTCHAR 2546
ENCODING 9542
SWIDTH 960 0
DWIDTH 12 0
BBX 12 12 0 -2
BITMAP
0400
0400
0400
0400
0400
0400
FFF0
0400
0400
0400
0400
0400
ENDCHAR
STARTCHAR 2547
ENCODING 9543
SWIDTH 960 0
DWIDTH 12 0
BBX 12 12 0 -2
BITMAP
0400
0400
0400
0400
0400
0400
FFF0
0400
0400
0400
0400
0400
ENDCHAR
STARTCHAR 2548
ENCODING 9544
SWIDTH 960 0
DWIDTH 12 0
BBX 12 12 0 -2
BITMAP
0400
0400
0400
0400
0400
0400
FFF0
0400
0400
0400
0400
0400
ENDCHAR
STARTCHAR 2549
ENCODING 9545
SWIDTH 960 0
DWIDTH 12 0
BBX 11 12 0 -2
BITMAP
0400
0400
0400
0400
0400
0400
FFE0
0400
0400
0400
0400
0400
ENDCHAR
STARTCHAR 254A
ENCODING 9546
SWIDTH 960 0
DWIDTH 12 0
BBX 12 12 0 -2
BITMAP
0400
0400
0400
0400
0400
0400
FFF0
0400
0400
0400
0400
0400
ENDCHAR
STARTCHAR 254B
ENCODING 9547
SWIDTH 960 0
DWIDTH 12 0
BBX 12 12 0 -2
BITMAP
0400
0400
0400
0400
0400
0400
FFF0
0400
0400
0400
0400
0400
ENDCHAR
STARTCHAR 2592
ENCODING 9618
SWIDTH 960 0
DWIDTH 12 0
BBX 10 10 1 -1
BITMAP
FBC0
FBC0
FBC0
FBC0
0000
FBC0
FBC0
FBC0
0000
FBC0
ENDCHAR
STARTCHAR 25A0
ENCODING 9632
SWIDTH 960 0
DWIDTH 12 0
BBX 5 6 3 1
BITMAP
F8
F8
F8
F8
F8
F8
ENDCHAR
STARTCHAR 25A1
ENCODING 9633
SWIDTH 960 0
DWIDTH 12 0
BBX 5 6 3 1
BITMAP
F8
88
88
88
88
F8
ENDCHAR
STARTCHAR 25A3
ENCODING 9635
SWIDTH 960 0
DWIDTH 12 0
BBX 9 8 1 0
BITMAP
FF80
8080
9E80
9E80
9E80
9E80
8080
FF80
ENDCHAR
STARTCHAR 25A4
ENCODING 9636
SWIDTH 960 0
DWIDTH 12 0
BBX 10 10 1 -1
BITMAP
FFC0
8040
FFC0
FFC0
FFC0
8040
FFC0
FFC0
FFC0
FFC0
ENDCHAR
STARTCHAR 25A5
ENCODING 9637
SWIDTH 960 0
DWIDTH 12 0
BBX 10 10 1 -1
BITMAP
FFC0
F740
F740
F740
F740
F740
F740
F740
F740
FFC0
ENDCHAR
STARTCHAR 25A6
ENCODING 9638
SWIDTH 960 0
DWIDTH 12 0
BBX 10 10 1 -1
BITMAP
FFC0
F740
FFC0
FFC0
FFC0
F740
FFC0
FFC0
FFC0
FFC0
ENDCHAR
STARTCHAR 25A7
ENCODING 9639
SWIDTH 960 0
DWIDTH 12 0
BBX 10 10 1 -1
BITMAP
FFC0
AB40
D5C0
EAC0
B540
DAC0
AD40
D6C0
EB40
FFC0
ENDCHAR
STARTCHAR 25A8
ENCODING 9640
SWIDTH 960 0
DWIDTH 12 0
BBX 10 10 1 -1
BITMAP
FFC0
DAC0
B540
EBC0
D6C0
AD40
DAC0
B540
EAC0
FFC0
ENDCHAR
STARTCHAR 25A9
ENCODING 9641
SWIDTH 960 0
DWIDTH 12 0
BBX 10 10 1 -1
BITMAP
FFC0
EFC0
D7C0
ABC0
D5C0
ABC0
D540
AEC0
D740
FFC0
ENDCHAR
STARTCHAR 25B1
ENCODING 9649
SWIDTH 960 0
DWIDTH 12 0
BBX 8 6 2 1
BITMAP
7F
81
82
82
82
FE
ENDCHAR
STARTCHAR 25B2
ENCODING 9650
SWIDTH 960 0
DWIDTH 12 0
BBX 9 8 1 0
BITMAP
0800
0C00
1C00
1E00
3E00
3F00
7F80
FF80
ENDCHAR
STARTCHAR 25B3
ENCODING 9651
SWIDTH 960 0
DWIDTH 12 0
BBX 9 8 1 0
BITMAP
0800
0C00
1400
2200
2200
4100
4080
FF80
ENDCHAR
STARTCHAR 25B5
ENCODING 9653
SWIDTH 960 0
DWIDTH 12 0
BBX 8 7 2 1
BITMAP
10
18
38
24
44
42
FF
ENDCHAR
STARTCHAR 25B6
ENCODING 9654
SWIDTH 960 0
DWIDTH 12 0
BBX 7 8 2 -1
BITMAP
C0
E0
F8
FE
FE
F8
F0
C0
ENDCHAR
STARTCHAR 25B7
ENCODING 9655
SWIDTH 960 0
DWIDTH 12 0
BBX 7 8 2 -1
BITMAP
C0
A0
98
86
82
8C
90
E0
ENDCHAR
STARTCHAR 25B9
ENCODING 9657
SWIDTH 960 0
DWIDTH 12 0
BBX 7 8 3 0
BITMAP
80
E0
B0
8C
8E
98
E0
80
ENDCHAR
STARTCHAR 25BC
ENCODING 9660
SWIDTH 960 0
DWIDTH 12 0
BBX 8 7 2 0
BITMAP
FF
FE
7E
3C
38
18
10
ENDCHAR
STARTCHAR 25BD
ENCODING 9661
SWIDTH 960 0
DWIDTH 12 0
BBX 9 7 1 0
BITMAP
FF80
4100
2100
2200
1400
1400
0800
ENDCHAR
STARTCHAR 25BF
ENCODING 9663
SWIDTH 960 0
DWIDTH 12 0
BBX 8 7 2 0
BITMAP
FF
C2
46
24
28
18
10
ENDCHAR
STARTCHAR 25C0
ENCODING 9664
SWIDTH 960 0
DWIDTH 12 0
BBX 7 8 2 -1
BITMAP
02
0E
3E
7E
FE
3E
0E
06
ENDCHAR
STARTCHAR 25C1
ENCODING 9665
SWIDTH 960 0
DWIDTH 12 0
BBX 7 8 2 -1
BITMAP
02
0E
32
42
82
62
1A
06
ENDCHAR
STARTCHAR 25C3
ENCODING 9667
SWIDTH 960 0
DWIDTH 12 0
BBX 7 8 2 0
BITMAP
02
0E
32
62
C2
32
1E
06
ENDCHAR
STARTCHAR 25C6
ENCODING 9670
SWIDTH 960 0
DWIDTH 12 0
BBX 7 8 2 0
BITMAP
10
38
7C
FE
FE
7C
38
10
ENDCHAR
STARTCHAR 25C7
ENCODING 9671
SWIDTH 960 0
DWIDTH 12 0
BBX 7 8 2 0
BITMAP
10
28
44
82
82
44
28
10
ENDCHAR
STARTCHAR 25C8
ENCODING 9672
SWIDTH 960 0
DWIDTH 12 0
BBX 10 10 1 -2
BITMAP
0C00
1200
2900
5C80
BE40
BE40
5C80
2900
1200
0C00
ENDCHAR
STARTCHAR 25CA
ENCODING 9674
SWIDTH 960 0
DWIDTH 12 0
BBX 8 10 2 -1
BITMAP
10
18
24
42
82
81
42
64
28
10
ENDCHAR
STARTCHAR 25CB
ENCODING 9675
SWIDTH 960 0
DWIDTH 12 0
BBX 7 6 2 1
BITMAP
7C
42
82
82
82
7C
ENDCHAR
STARTCHAR 25CC
ENCODING 9676
SWIDTH 960 0
DWIDTH 12 0
BBX 11 10 0 -1
BITMAP
1100
4040
0000
0020
8000
8020
0020
0020
0040
1000
ENDCHAR
STARTCHAR 25CE
ENCODING 9678
SWIDTH 960 0
DWIDTH 12 0
BBX 10 10 1 -1
BITMAP
1E00
6100
9E80
A140
C140
C140
C140
A280
5D00
3E00
ENDCHAR
STARTCHAR 25CF
ENCODING 9679
SWIDTH 960 0
DWIDTH 12 0
BBX 7 6 2 1
BITMAP
7C
7E
FE
FE
7E
7C
ENDCHAR
STARTCHAR 25D0
ENCODING 9680
SWIDTH 960 0
DWIDTH 12 0
BBX 10 10 1 -1
BITMAP
0C00
3B00
7880
F880
F880
F840
F880
7880
7900
1E00
ENDCHAR
STARTCHAR 25D1
ENCODING 9681
SWIDTH 960 0
DWIDTH 12 0
BBX 10 10 1 -1
BITMAP
0C00
3700
4780
8780
8780
87C0
8780
8780
4700
3E00
ENDCHAR
STARTCHAR 25E6
ENCODING 9702
SWIDTH 960 0
DWIDTH 12 0
BBX 8 8 2 0
BITMAP
38
66
82
81
81
82
46
3C
ENDCHAR
STARTCHAR 25EF
ENCODING 9711
SWIDTH 960 0
DWIDTH 12 0
BBX 11 10 0 -1
BITMAP
1F00
20C0
4040
8020
8020
8020
8020
4020
4040
3F80
ENDCHAR
STARTCHAR 2605
ENCODING 9733
SWIDTH 960 0
DWIDTH 12 0
BBX 8 8 2 -1
BITMAP
10
18
18
FF
7E
3C
7C
46
ENDCHAR
STARTCHAR 2606
ENCODING 9734
SWIDTH 960 0
DWIDTH 12 0
BBX 8 8 2 -1
BITMAP
10
18
28
E7
42
24
5C
66
ENDCHAR
STARTCHAR 260E
ENCODING 9742
SWIDTH 960 0
DWIDTH 12 0
BBX 10 7 1 0
BITMAP
7F80
D580
DFC0
2200
3300
7F00
7F00
ENDCHAR
STARTCHAR 260F
ENCODING 9743
SWIDTH 960 0
DWIDTH 12 0
BBX 9 7 1 0
BITMAP
7F80
FF80
EF80
5600
5500
4900
7F00
ENDCHAR
STARTCHAR 261C
ENCODING 9756
SWIDTH 960 0
DWIDTH 12 0
BBX 9 4 1 2
BITMAP
FE00
3980
1D80
3E80
ENDCHAR
STARTCHAR 261D
ENCODING 9757
SWIDTH 960 0
DWIDTH 12 0
BBX 3 8 4 0
BITMAP
20
20
60
E0
A0
E0
A0
E0
ENDCHAR
STARTCHAR 261E
ENCODING 9758
SWIDTH 960 0
DWIDTH 12 0
BBX 9 4 1 2
BITMAP
1F80
EF00
9E00
FE00
ENDCHAR
STARTCHAR 261F
ENCODING 9759
SWIDTH 960 0
DWIDTH 12 0
BBX 4 8 4 0
BITMAP
E0
E0
90
B0
F0
B0
50
10
ENDCHAR
STARTCHAR 262F
ENCODING 9775
SWIDTH 960 0
DWIDTH 12 0
BBX 9 10 1 -1
BITMAP
0C00
3300
4080
8080
8780
8780
FF80
7F80
7F00
1C00
ENDCHAR
STARTCHAR 2640
ENCODING 9792
SWIDTH 960 0
DWIDTH 12 0
BBX 6 10 3 -1
BITMAP
70
88
88
70
20
20
FC
20
20
20
ENDCHAR
STARTCHAR 2642
ENCODING 9794
SWIDTH 960 0
DWIDTH 12 0
BBX 6 10 3 -1
BITMAP
20
70
A8
24
20
20
70
88
88
78
ENDCHAR
STARTCHAR 2660
ENCODING 9824
SWIDTH 960 0
DWIDTH 12 0
BBX 7 9 2 0
BITMAP
10
18
3C
7E
FE
FE
7E
10
3C
ENDCHAR
STARTCHAR 2661
ENCODING 9825
SWIDTH 960 0
DWIDTH 12 0
BBX 8 8 2 -1
BITMAP
EE
91
81
82
42
44
28
10
ENDCHAR
STARTCHAR 2663
ENCODING 9827
SWIDTH 960 0
DWIDTH 12 0
BBX 9 9 1 -1
BITMAP
1C00
1E00
1E00
7F80
FF80
7F80
3B00
0800
1E00
ENDCHAR
STARTCHAR 2664
ENCODING 9828
SWIDTH 960 0
DWIDTH 12 0
BBX 7 9 2 0
BITMAP
10
28
44
82
82
82
6E
28
3C
ENDCHAR
STARTCHAR 2665
ENCODING 9829
SWIDTH 960 0
DWIDTH 12 0
BBX 8 8 2 -1
BITMAP
EE
FF
FF
FE
7E
3C
18
10
ENDCHAR
STARTCHAR 2667
ENCODING 9831
SWIDTH 960 0
DWIDTH 12 0
BBX 9 9 1 -1
BITMAP
1C00
2200
1200
6180
8080
8C80
7F00
1400
1E00
ENDCHAR
STARTCHAR 2668
ENCODING 9832
SWIDTH 960 0
DWIDTH 12 0
BBX 10 10 1 -1
BITMAP
1800
1A00
2A00
2A00
1A00
1600
D680
AA40
C8C0
7F80
ENDCHAR
STARTCHAR 2669
ENCODING 9833
SWIDTH 960 0
DWIDTH 12 0
BBX 3 10 4 -1
BITMAP
20
20
20
20
20
20
20
20
E0
C0
ENDCHAR
STARTCHAR 266A
ENCODING 9834
SWIDTH 960 0
DWIDTH 12 0
BBX 5 9 3 0
BITMAP
20
10
28
28
28
28
20
E0
E0
ENDCHAR
STARTCHAR 266C
ENCODING 9836
SWIDTH 960 0
DWIDTH 12 0
BBX 7 9 2 -1
BITMAP
0E
3A
3E
22
22
26
EE
C4
80
ENDCHAR
STARTCHAR 266D
ENCODING 9837
SWIDTH 960 0
DWIDTH 12 0
BBX 2 7 5 0
BITMAP
80
80
80
80
C0
C0
80
ENDCHAR
STARTCHAR 266F
ENCODING 9839
SWIDTH 960 0
DWIDTH 12 0
BBX 6 9 3 0
BITMAP
50
50
FC
50
50
7C
D0
50
40
ENDCHAR
STARTCHAR 2716
ENCODING 10006
SWIDTH 960 0
DWIDTH 12 0
BBX 8 8 2 0
BITMAP
44
EE
FF
7E
7C
FE
FF
66
ENDCHAR
STARTCHAR 271A
ENCODING 10010
SWIDTH 960 0
DWIDTH 12 0
BBX 9 9 1 -1
BITMAP
1C00
1C00
1C00
FF80
FF80
FF80
1C00
1C00
1C00
ENDCHAR
STARTCHAR 273D
ENCODING 10045
SWIDTH 960 0
DWIDTH 12 0
BBX 6 6 3 1
BITMAP
20
A4
78
70
AC
20
ENDCHAR
STARTCHAR 2756
ENCODING 10070
SWIDTH 960 0
DWIDTH 12 0
BBX 8 8 2 -1
BITMAP
18
3C
1A
C7
E7
52
38
18
ENDCHAR
STARTCHAR 2776
ENCODING 10102
SWIDTH 960 0
DWIDTH 12 0
BBX 11 11 0 -2
BITMAP
1F80
3FC0
77E0
7FE0
FFE0
FFE0
FFE0
7FE0
7FC0
3F80
0600
ENDCHAR
STARTCHAR 2777
ENCODING 10103
SWIDTH 960 0
DWIDTH 12 0
BBX 11 11 0 -2
BITMAP
1F80
3BC0
77E0
7EE0
FFE0
FDE0
FBE0
77E0
7FC0
3F80
0600
ENDCHAR
STARTCHAR 2778
ENCODING 10104
SWIDTH 960 0
DWIDTH 12 0
BBX 11 11 0 -2
BITMAP
1F80
3BC0
76E0
7EE0
FDE0
FEE0
FEE0
76E0
7BC0
3F80
0600
ENDCHAR
STARTCHAR 2779
ENCODING 10105
SWIDTH 960 0
DWIDTH 12 0
BBX 11 11 0 -2
BITMAP
1F80
3DC0
79E0
7DE0
F5E0
FDE0
E0E0
7DE0
7FC0
3F80
0600
ENDCHAR
STARTCHAR 277A
ENCODING 10106
SWIDTH 960 0
DWIDTH 12 0
BBX 11 11 0 -2
BITMAP
1F80
3FC0
77E0
77E0
F1E0
FEE0
FEE0
76E0
7BC0
3F80
0600
ENDCHAR
STARTCHAR 277B
ENCODING 10107
SWIDTH 960 0
DWIDTH 12 0
BBX 11 11 0 -2
BITMAP
1F80
39C0
76E0
77E0
F9E0
F6E0
F6E0
76E0
7BC0
3F80
0600
ENDCHAR
STARTCHAR 277C
ENCODING 10108
SWIDTH 960 0
DWIDTH 12 0
BBX 11 11 0 -2
BITMAP
1F80
3FC0
7EE0
7FE0
FDE0
FDE0
FFE0
7BE0
7FC0
3F80
0600
ENDCHAR
STARTCHAR 277D
ENCODING 10109
SWIDTH 960 0
DWIDTH 12 0
BBX 11 11 0 -2
BITMAP
1F80
3BC0
76E0
7EE0
F5E0
F7E0
FEE0
7EE0
7BC0
3F80
0600
ENDCHAR
STARTCHAR 277E
ENCODING 10110
SWIDTH 960 0
DWIDTH 12 0
BBX 11 11 0 -2
BITMAP
1F80
3BC0
76E0
7EE0
F6E0
FAE0
FEE0
76E0
7BC0
3F80
0600
ENDCHAR
STARTCHAR 277F
ENCODING 10111
SWIDTH 960 0
DWIDTH 12 0
BBX 11 11 0 -2
BITMAP
1F80
3FC0
7D60
7F60
FF60
FFE0
FF60
7D60
7EC0
3F80
0600
ENDCHAR
STARTCHAR 278A
ENCODING 10122
SWIDTH 960 0
DWIDTH 12 0
BBX 12 11 0 -1
BITMAP
3F80
79C0
71E0
F9E0
F9E0
F9F0
F9E0
79E0
79C0
3FC0
0F00
ENDCHAR
STARTCHAR 278B
ENCODING 10123
SWIDTH 960 0
DWIDTH 12 0
BBX 12 11 0 -1
BITMAP
3F80
70C0
74E0
FCE0
FCE0
FDF0
FBE0
73E0
70C0
3FC0
0F00
ENDCHAR
STARTCHAR 278C
ENCODING 10124
SWIDTH 960 0
DWIDTH 12 0
BBX 12 11 0 -1
BITMAP
3F80
71C0
74E0
FCE0
F8E0
F9F0
FCE0
74E0
70C0
3FC0
0F00
ENDCHAR
STARTCHAR 278D
ENCODING 10125
SWIDTH 960 0
DWIDTH 12 0
BBX 12 11 0 -1
BITMAP
3F80
79C0
79E0
F1E0
F5E0
F5F0
E0E0
7DE0
7DC0
3FC0
0F00
ENDCHAR
STARTCHAR 278E
ENCODING 10126
SWIDTH 960 0
DWIDTH 12 0
BBX 12 11 0 -1
BITMAP
3F80
70C0
77E0
F7E0
F0E0
FCF0
FCE0
74E0
70C0
3FC0
0F00
ENDCHAR
STARTCHAR 278F
ENCODING 10127
SWIDTH 960 0
DWIDTH 12 0
BBX 12 11 0 -1
BITMAP
3F80
79C0
70E0
F6E0
F1E0
F0F0
F6E0
76E0
70C0
3FC0
0F00
ENDCHAR
STARTCHAR 2790
ENCODING 10128
SWIDTH 960 0
DWIDTH 12 0
BBX 12 11 0 -1
BITMAP
3F80
70C0
70E0
FCE0
FDE0
FDF0
F9E0
79E0
7BC0
3FC0
0F00
ENDCHAR
STARTCHAR 2791
ENCODING 10129
SWIDTH 960 0
DWIDTH 12 0
BBX 12 11 0 -1
BITMAP
3F80
71C0
70E0
F4E0
F0E0
F0F0
F4E0
74E0
70C0
3FC0
0F00
ENDCHAR
STARTCHAR 2792
ENCODING 10130
SWIDTH 960 0
DWIDTH 12 0
BBX 12 11 0 -1
BITMAP
3F80
71C0
74E0
F4E0
F4E0
F0F0
FCE0
74E0
71C0
3FC0
0F00
ENDCHAR
STARTCHAR 2793
ENCODING 10131
SWIDTH 960 0
DWIDTH 12 0
BBX 12 11 0 -1
BITMAP
3F80
7440
4560
E560
E560
E570
E560
6560
6440
3FC0
0F00
ENDCHAR
STARTCHAR 3000
ENCODING 12288
SWIDTH 960 0
DWIDTH 12 0
BBX 0 0 0 0
BITMAP
ENDCHAR
STARTCHAR 3001
ENCODING 12289
SWIDTH 320 0
DWIDTH 4 0
BBX 3 2 0 0
BITMAP
C0
20
ENDCHAR
STARTCHAR 3002
ENCODING 12290
SWIDTH 320 0
DWIDTH 4 0
BBX 2 2 1 -2
BITMAP
C0
C0
ENDCHAR
STARTCHAR 3003
ENCODING 12291
SWIDTH 960 0
DWIDTH 12 0
BBX 5 4 3 2
BITMAP
08
48
50
80
ENDCHAR
STARTCHAR 3008
ENCODING 12296
SWIDTH 480 0
DWIDTH 6 0
BBX 4 11 1 -1
BITMAP
20
20
40
80
80
80
80
40
20
20
10
ENDCHAR
STARTCHAR 3009
ENCODING 12297
SWIDTH 480 0
DWIDTH 6 0
BBX 4 10 1 -1
BITMAP
80
40
40
20
20
10
20
40
40
80
ENDCHAR
STARTCHAR 300A
ENCODING 12298
SWIDTH 480 0
DWIDTH 6 0
BBX 4 10 1 -1
BITMAP
50
60
60
C0
C0
C0
C0
A0
60
50
ENDCHAR
STARTCHAR 300B
ENCODING 12299
SWIDTH 480 0
DWIDTH 6 0
BBX 4 10 1 -1
BITMAP
C0
C0
60
60
50
50
60
60
C0
C0
ENDCHAR
STARTCHAR 300C
ENCODING 12300
SWIDTH 320 0
DWIDTH 4 0
BBX 3 4 1 4
BITMAP
E0
80
80
80
ENDCHAR
STARTCHAR 300D
ENCODING 12301
SWIDTH 320 0
DWIDTH 4 0
BBX 3 5 1 -2
BITMAP
20
20
20
20
E0
ENDCHAR
STARTCHAR 300E
ENCODING 12302
SWIDTH 320 0
DWIDTH 4 0
BBX 3 5 1 4
BITMAP
E0
C0
80
80
80
ENDCHAR
STARTCHAR 300F
ENCODING 12303
SWIDTH 320 0
DWIDTH 4 0
BBX 3 5 1 -2
BITMAP
60
60
60
E0
E0
ENDCHAR
STARTCHAR 3010
ENCODING 12304
SWIDTH 480 0
DWIDTH 6 0
BBX 3 12 1 -2
BITMAP
E0
C0
C0
80
80
80
80
80
80
C0
C0
E0
ENDCHAR
STARTCHAR 3011
ENCODING 12305
SWIDTH 480 0
DWIDTH 6 0
BBX 4 12 1 -2
BITMAP
F0
70
30
30
10
10
10
10
30
30
70
F0
ENDCHAR
STARTCHAR 3012
ENCODING 12306
SWIDTH 960 0
DWIDTH 12 0
BBX 8 8 2 0
BITMAP
FF
00
00
7E
10
10
10
10
ENDCHAR
STARTCHAR 3013
ENCODING 12307
SWIDTH 960 0
DWIDTH 12 0
BBX 8 3 2 2
BITMAP
FE
00
FF
ENDCHAR
STARTCHAR 3014
ENCODING 12308
SWIDTH 320 0
DWIDTH 4 0
BBX 2 10 1 -2
BITMAP
40
80
80
80
80
80
80
80
80
40
ENDCHAR
STARTCHAR 3015
ENCODING 12309
SWIDTH 320 0
DWIDTH 4 0
BBX 3 11 0 -2
BITMAP
40
20
20
20
20
20
20
20
20
40
80
ENDCHAR
STARTCHAR 3016
ENCODING 12310
SWIDTH 320 0
DWIDTH 4 0
BBX 3 10 0 -1
BITMAP
E0
A0
C0
C0
C0
C0
C0
C0
C0
E0
ENDCHAR
STARTCHAR 3017
ENCODING 12311
SWIDTH 320 0
DWIDTH 4 0
BBX 4 10 0 -1
BITMAP
F0
50
50
50
30
30
50
50
50
70
ENDCHAR
STARTCHAR 3018
ENCODING 12312
SWIDTH 400 0
DWIDTH 5 0
BBX 4 10 1 -1
BITMAP
20
E0
C0
C0
C0
C0
C0
C0
C0
70
ENDCHAR
STARTCHAR 3019
ENCODING 12313
SWIDTH 400 0
DWIDTH 5 0
BBX 4 10 0 -1
BITMAP
40
70
30
10
10
10
10
10
70
E0
ENDCHAR
STARTCHAR 3020
ENCODING 12320
SWIDTH 960 0
DWIDTH 12 0
BBX 9 8 1 0
BITMAP
1000
1E00
4F80
9900
4200
5280
2C80
1F00
ENDCHAR
STARTCHAR 3036
ENCODING 12342
SWIDTH 960 0
DWIDTH 12 0
BBX 10 10 1 -1
BITMAP
1C00
6300
8080
BE80
8040
9E40
8880
8880
4100
3E00
ENDCHAR
STARTCHAR 3041
ENCODING 12353
SWIDTH 960 0
DWIDTH 12 0
BBX 7 7 2 -1
BITMAP
20
38
60
7C
B2
A2
4C
ENDCHAR
STARTCHAR 3042
ENCODING 12354
SWIDTH 960 0
DWIDTH 12 0
BBX 9 9 1 -1
BITMAP
1000
1E00
7000
1E00
3500
5480
9880
B080
4300
ENDCHAR
STARTCHAR 3043
ENCODING 12355
SWIDTH 960 0
DWIDTH 12 0
BBX 7 6 2 0
BITMAP
80
84
84
82
80
60
ENDCHAR
STARTCHAR 3044
ENCODING 12356
SWIDTH 960 0
DWIDTH 12 0
BBX 9 9 1 -1
BITMAP
8000
8000
8000
8100
8080
8080
8000
4800
3000
ENDCHAR
STARTCHAR 3045
ENCODING 12357
SWIDTH 960 0
DWIDTH 12 0
BBX 4 7 4 -1
BITMAP
60
00
E0
10
10
20
40
ENDCHAR
STARTCHAR 3046
ENCODING 12358
SWIDTH 960 0
DWIDTH 12 0
BBX 5 10 3 -1
BITMAP
20
18
00
30
C8
08
08
08
10
20
ENDCHAR
STARTCHAR 3047
ENCODING 12359
SWIDTH 960 0
DWIDTH 12 0
BBX 7 7 2 -1
BITMAP
38
00
78
10
30
50
8E
ENDCHAR
STARTCHAR 3048
ENCODING 12360
SWIDTH 960 0
DWIDTH 12 0
BBX 8 9 1 -1
BITMAP
3C
00
FE
04
08
18
28
48
07
ENDCHAR
STARTCHAR 3049
ENCODING 12361
SWIDTH 960 0
DWIDTH 12 0
BBX 7 7 2 -1
BITMAP
20
34
62
3C
62
B2
6C
ENDCHAR
STARTCHAR 304A
ENCODING 12362
SWIDTH 960 0
DWIDTH 12 0
BBX 9 9 1 -1
BITMAP
1000
1300
F880
1000
3F00
5080
9880
9480
7300
ENDCHAR
STARTCHAR 304B
ENCODING 12363
SWIDTH 960 0
DWIDTH 12 0
BBX 9 9 1 -1
BITMAP
1000
1000
F800
2500
2480
4480
4800
4800
1000
ENDCHAR
STARTCHAR 304C
ENCODING 12364
SWIDTH 960 0
DWIDTH 12 0
BBX 9 9 1 -1
BITMAP
1080
1100
F800
2900
2900
4880
4800
4800
9000
ENDCHAR
STARTCHAR 304D
ENCODING 12365
SWIDTH 960 0
DWIDTH 12 0
BBX 7 9 2 -1
BITMAP
10
7C
08
FE
08
78
80
80
7C
ENDCHAR
STARTCHAR 304E
ENCODING 12366
SWIDTH 960 0
DWIDTH 12 0
BBX 9 9 2 0
BITMAP
1380
FD00
1000
FC00
0800
7800
8000
8000
7C00
ENDCHAR
STARTCHAR 304F
ENCODING 12367
SWIDTH 960 0
DWIDTH 12 0
BBX 4 9 4 -1
BITMAP
20
60
40
80
80
40
40
20
10
ENDCHAR
STARTCHAR 3050
ENCODING 12368
SWIDTH 960 0
DWIDTH 12 0
BBX 7 9 3 -1
BITMAP
10
26
40
80
80
40
20
10
10
ENDCHAR
STARTCHAR 3051
ENCODING 12369
SWIDTH 960 0
DWIDTH 12 0
BBX 8 9 2 -1
BITMAP
84
84
BF
84
84
84
84
88
90
ENDCHAR
STARTCHAR 3052
ENCODING 12370
SWIDTH 960 0
DWIDTH 12 0
BBX 10 10 1 -1
BITMAP
0080
8340
8280
9F80
8200
8200
C200
8200
8400
0800
ENDCHAR
STARTCHAR 3053
ENCODING 12371
SWIDTH 960 0
DWIDTH 12 0
BBX 9 7 1 0
BITMAP
3F00
0000
0000
0000
8000
8000
7F80
ENDCHAR
STARTCHAR 3054
ENCODING 12372
SWIDTH 960 0
DWIDTH 12 0
BBX 10 9 1 0
BITMAP
0080
0140
7E80
0000
0000
0000
8000
8000
7F00
ENDCHAR
STARTCHAR 3055
ENCODING 12373
SWIDTH 960 0
DWIDTH 12 0
BBX 7 9 2 -1
BITMAP
10
12
3C
C8
04
7C
80
40
3C
ENDCHAR
STARTCHAR 3056
ENCODING 12374
SWIDTH 960 0
DWIDTH 12 0
BBX 9 10 2 -1
BITMAP
0100
2280
1200
3C00
C800
0800
7C00
8000
8000
7C00
ENDCHAR
STARTCHAR 3057
ENCODING 12375
SWIDTH 960 0
DWIDTH 12 0
BBX 7 9 2 -1
BITMAP
80
80
80
80
80
80
82
84
78
ENDCHAR
STARTCHAR 3058
ENCODING 12376
SWIDTH 960 0
DWIDTH 12 0
BBX 7 9 2 -1
BITMAP
82
84
80
80
80
80
80
86
78
ENDCHAR
STARTCHAR 3059
ENCODING 12377
SWIDTH 960 0
DWIDTH 12 0
BBX 7 9 2 -1
BITMAP
10
10
FE
10
68
48
38
10
10
ENDCHAR
STARTCHAR 305A
ENCODING 12378
SWIDTH 960 0
DWIDTH 12 0
BBX 8 10 2 -1
BITMAP
01
12
10
FE
10
68
48
38
08
10
ENDCHAR
STARTCHAR 305B
ENCODING 12379
SWIDTH 960 0
DWIDTH 12 0
BBX 9 9 1 -1
BITMAP
2200
2200
2780
FA00
2200
2200
2400
2000
1F00
ENDCHAR
STARTCHAR 305C
ENCODING 12380
SWIDTH 960 0
DWIDTH 12 0
BBX 10 10 1 -1
BITMAP
0080
22C0
2200
2780
FA00
2200
2200
2400
2000
1F00
ENDCHAR
STARTCHAR 305D
ENCODING 12381
SWIDTH 960 0
DWIDTH 12 0
BBX 9 9 1 -1
BITMAP
3E00
0400
0800
3780
F800
1000
1000
1000
0E00
ENDCHAR
STARTCHAR 305E
ENCODING 12382
SWIDTH 960 0
DWIDTH 12 0
BBX 9 10 1 -1
BITMAP
0080
3F00
0400
0800
3700
F800
1000
1000
1000
0E00
ENDCHAR
STARTCHAR 305F
ENCODING 12383
SWIDTH 960 0
DWIDTH 12 0
BBX 9 9 1 -1
BITMAP
1000
2000
F200
2180
4000
4000
4000
8800
0780
ENDCHAR
STARTCHAR 3060
ENCODING 12384
SWIDTH 960 0
DWIDTH 12 0
BBX 9 9 1 0
BITMAP
1180
2000
F200
2180
4000
4000
4000
8800
0700
ENDCHAR
STARTCHAR 3061
ENCODING 12385
SWIDTH 960 0
DWIDTH 12 0
BBX 8 9 2 -1
BITMAP
20
24
78
A0
3E
21
01
02
3C
ENDCHAR
STARTCHAR 3062
ENCODING 12386
SWIDTH 960 0
DWIDTH 12 0
BBX 9 10 2 -1
BITMAP
0100
2280
2400
7800
A000
3E00
2200
0200
0200
3C00
ENDCHAR
STARTCHAR 3063
ENCODING 12387
SWIDTH 960 0
DWIDTH 12 0
BBX 7 5 2 1
BITMAP
1C
62
82
02
0C
ENDCHAR
STARTCHAR 3064
ENCODING 12388
SWIDTH 960 0
DWIDTH 12 0
BBX 9 7 1 0
BITMAP
1F00
6080
8080
0080
0080
0100
0E00
ENDCHAR
STARTCHAR 3065
ENCODING 12389
SWIDTH 960 0
DWIDTH 12 0
BBX 10 9 1 0
BITMAP
0080
0140
1F00
6080
8080
0080
0080
0100
0E00
ENDCHAR
STARTCHAR 3066
ENCODING 12390
SWIDTH 960 0
DWIDTH 12 0
BBX 9 9 1 -1
BITMAP
0780
FC00
0800
1000
1000
1000
1000
0800
0700
ENDCHAR
STARTCHAR 3067
ENCODING 12391
SWIDTH 960 0
DWIDTH 12 0
BBX 9 9 1 -1
BITMAP
0780
FC00
0880
1100
1000
1000
1000
0800
0700
ENDCHAR
STARTCHAR 3068
ENCODING 12392
SWIDTH 960 0
DWIDTH 12 0
BBX 7 9 2 -1
BITMAP
20
20
20
2C
30
C0
80
80
7E
ENDCHAR
STARTCHAR 3069
ENCODING 12393
SWIDTH 960 0
DWIDTH 12 0
BBX 8 9 2 -1
BITMAP
25
22
20
2C
30
C0
80
80
7E
ENDCHAR
STARTCHAR 306A
ENCODING 12394
SWIDTH 960 0
DWIDTH 12 0
BBX 8 9 2 -1
BITMAP
20
30
C6
45
44
84
BE
25
38
ENDCHAR
STARTCHAR 306B
ENCODING 12395
SWIDTH 960 0
DWIDTH 12 0
BBX 8 9 1 -1
BITMAP
40
9F
80
80
80
80
80
58
47
ENDCHAR
STARTCHAR 306C
ENCODING 12396
SWIDTH 960 0
DWIDTH 12 0
BBX 9 9 1 -1
BITMAP
0800
8800
9E00
7100
5080
B080
AF00
A980
4600
ENDCHAR
STARTCHAR 306D
ENCODING 12397
SWIDTH 960 0
DWIDTH 12 0
BBX 9 9 1 -1
BITMAP
2000
2000
EF00
3100
6100
6100
AF00
A980
2600
ENDCHAR
STARTCHAR 306E
ENCODING 12398
SWIDTH 960 0
DWIDTH 12 0
BBX 9 8 1 -1
BITMAP
3E00
4500
8880
9080
9080
A080
6100
0600
ENDCHAR
STARTCHAR 306F
ENCODING 12399
SWIDTH 960 0
DWIDTH 12 0
BBX 9 9 1 -1
BITMAP
8200
8200
9F00
8200
8200
8E00
9300
A280
5C00
ENDCHAR
STARTCHAR 3070
ENCODING 12400
SWIDTH 960 0
DWIDTH 12 0
BBX 9 10 1 -1
BITMAP
0080
8280
8200
9F00
8200
8200
8E00
9300
A280
5C00
ENDCHAR
STARTCHAR 3071
ENCODING 12401
SWIDTH 960 0
DWIDTH 12 0
BBX 10 10 1 -1
BITMAP
01C0
8340
8280
9F00
8200
8200
8E00
9300
A280
5C00
ENDCHAR
STARTCHAR 3072
ENCODING 12402
SWIDTH 960 0
DWIDTH 12 0
BBX 9 9 1 -1
BITMAP
0200
2300
E280
4200
4200
4200
4200
4400
3800
ENDCHAR
STARTCHAR 3073
ENCODING 12403
SWIDTH 960 0
DWIDTH 12 0
BBX 8 10 2 -1
BITMAP
01
05
66
C5
85
84
84
84
88
70
ENDCHAR
STARTCHAR 3074
ENCODING 12404
SWIDTH 960 0
DWIDTH 12 0
BBX 9 10 2 -1
BITMAP
0380
0680
6700
C500
8500
8400
8400
8400
8800
7000
ENDCHAR
STARTCHAR 3075
ENCODING 12405
SWIDTH 960 0
DWIDTH 12 0
BBX 9 9 1 -1
BITMAP
1800
0000
2000
2100
1D00
0480
4200
8400
1800
ENDCHAR
STARTCHAR 3076
ENCODING 12406
SWIDTH 960 0
DWIDTH 12 0
BBX 9 9 1 -1
BITMAP
1880
0100
2000
2100
1D00
0480
4200
8400
1800
ENDCHAR
STARTCHAR 3077
ENCODING 12407
SWIDTH 960 0
DWIDTH 12 0
BBX 9 9 1 0
BITMAP
1B80
0180
2000
2100
1D00
0480
4200
8400
1800
ENDCHAR
STARTCHAR 3078
ENCODING 12408
SWIDTH 960 0
DWIDTH 12 0
BBX 9 6 1 0
BITMAP
1000
2800
4400
8200
0100
0080
ENDCHAR
STARTCHAR 3079
ENCODING 12409
SWIDTH 960 0
DWIDTH 12 0
BBX 9 8 1 0
BITMAP
0100
0180
1000
2800
4400
8200
0100
0080
ENDCHAR
STARTCHAR 307A
ENCODING 12410
SWIDTH 960 0
DWIDTH 12 0
BBX 9 8 1 0
BITMAP
0180
0280
1100
2800
4400
8200
0100
0080
ENDCHAR
STARTCHAR 307B
ENCODING 12411
SWIDTH 960 0
DWIDTH 12 0
BBX 9 9 1 -1
BITMAP
8700
8A00
8380
9E00
8200
8200
DF00
9280
5C00
ENDCHAR
STARTCHAR 307C
ENCODING 12412
SWIDTH 960 0
DWIDTH 12 0
BBX 10 10 1 -1
BITMAP
0140
8780
9A00
8300
9E00
8200
8200
9F00
A300
1C00
ENDCHAR
STARTCHAR 307D
ENCODING 12413
SWIDTH 960 0
DWIDTH 12 0
BBX 10 10 1 -1
BITMAP
01C0
87C0
9A00
8300
9E00
8200
8200
9F00
A300
1C00
ENDCHAR
STARTCHAR 307E
ENCODING 12414
SWIDTH 960 0
DWIDTH 12 0
BBX 8 9 2 -1
BITMAP
10
FF
10
FC
10
10
F8
96
70
ENDCHAR
STARTCHAR 307F
ENCODING 12415
SWIDTH 960 0
DWIDTH 12 0
BBX 9 9 1 -1
BITMAP
3C00
0800
0900
0900
7D00
9300
A280
4400
1800
ENDCHAR
STARTCHAR 3080
ENCODING 12416
SWIDTH 960 0
DWIDTH 12 0
BBX 9 9 1 -1
BITMAP
1000
1000
7B00
1080
F000
9000
6100
4100
7E00
ENDCHAR
STARTCHAR 3081
ENCODING 12417
SWIDTH 960 0
DWIDTH 12 0
BBX 9 9 1 -1
BITMAP
4400
4400
5E00
6900
A880
9880
9080
6100
0600
ENDCHAR
STARTCHAR 3082
ENCODING 12418
SWIDTH 960 0
DWIDTH 12 0
BBX 8 9 2 -1
BITMAP
20
20
F0
20
FA
41
41
22
1C
ENDCHAR
STARTCHAR 3083
ENCODING 12419
SWIDTH 960 0
DWIDTH 12 0
BBX 7 7 2 -1
BITMAP
50
5E
EA
22
24
20
10
ENDCHAR
STARTCHAR 3084
ENCODING 12420
SWIDTH 960 0
DWIDTH 12 0
BBX 9 9 1 -1
BITMAP
4800
4F00
7480
A080
2080
1300
1000
1000
0800
ENDCHAR
STARTCHAR 3085
ENCODING 12421
SWIDTH 960 0
DWIDTH 12 0
BBX 7 6 2 0
BITMAP
9C
F2
D2
B4
18
20
ENDCHAR
STARTCHAR 3086
ENCODING 12422
SWIDTH 960 0
DWIDTH 12 0
BBX 9 9 1 -1
BITMAP
4400
8E00
9500
A480
C480
5500
4E00
0800
1000
ENDCHAR
STARTCHAR 3087
ENCODING 12423
SWIDTH 960 0
DWIDTH 12 0
BBX 5 7 3 -1
BITMAP
20
20
18
20
60
B8
E0
ENDCHAR
STARTCHAR 3088
ENCODING 12424
SWIDTH 960 0
DWIDTH 12 0
BBX 7 9 2 -1
BITMAP
10
10
16
18
10
30
CC
92
F0
ENDCHAR
STARTCHAR 3089
ENCODING 12425
SWIDTH 960 0
DWIDTH 12 0
BBX 8 9 2 -1
BITMAP
20
80
80
9C
E2
81
02
06
38
ENDCHAR
STARTCHAR 308A
ENCODING 12426
SWIDTH 960 0
DWIDTH 12 0
BBX 5 9 3 -1
BITMAP
88
88
88
88
88
88
08
10
60
ENDCHAR
STARTCHAR 308B
ENCODING 12427
SWIDTH 960 0
DWIDTH 12 0
BBX 8 9 2 -1
BITMAP
7C
08
10
28
56
81
39
2A
3C
ENDCHAR
STARTCHAR 308C
ENCODING 12428
SWIDTH 960 0
DWIDTH 12 0
BBX 9 9 1 -1
BITMAP
1000
1200
FE00
3A00
3200
7200
5280
9280
1100
ENDCHAR
STARTCHAR 308D
ENCODING 12429
SWIDTH 960 0
DWIDTH 12 0
BBX 9 9 1 -1
BITMAP
7E00
0400
0800
1F00
2080
C080
0080
0100
0E00
ENDCHAR
STARTCHAR 308E
ENCODING 12430
SWIDTH 960 0
DWIDTH 12 0
BBX 7 7 2 -1
BITMAP
20
20
6C
72
62
A4
20
ENDCHAR
STARTCHAR 308F
ENCODING 12431
SWIDTH 960 0
DWIDTH 12 0
BBX 9 9 1 -1
BITMAP
1000
1000
F000
1F00
3080
5080
9080
1300
1000
ENDCHAR
STARTCHAR 3090
ENCODING 12432
SWIDTH 960 0
DWIDTH 12 0
BBX 9 9 1 -1
BITMAP
7800
0800
0800
3F00
5080
9080
9E80
E900
0600
ENDCHAR
STARTCHAR 3091
ENCODING 12433
SWIDTH 960 0
DWIDTH 12 0
BBX 9 9 1 -1
BITMAP
3C00
0800
1E00
6100
3900
1E00
2300
6480
9880
ENDCHAR
STARTCHAR 3092
ENCODING 12434
SWIDTH 960 0
DWIDTH 12 0
BBX 7 9 2 -1
BITMAP
20
FC
20
72
9C
30
C0
80
7E
ENDCHAR
STARTCHAR 3093
ENCODING 12435
SWIDTH 960 0
DWIDTH 12 0
BBX 9 9 1 -1
BITMAP
0800
0800
1000
1000
2000
3800
4880
8480
8700
ENDCHAR
STARTCHAR 30A1
ENCODING 12449
SWIDTH 960 0
DWIDTH 12 0
BBX 7 6 2 -1
BITMAP
FE
04
14
10
10
20
ENDCHAR
STARTCHAR 30A2
ENCODING 12450
SWIDTH 960 0
DWIDTH 12 0
BBX 9 9 1 -1
BITMAP
FF80
0080
0900
0A00
0800
0800
1000
1000
2000
ENDCHAR
STARTCHAR 30A3
ENCODING 12451
SWIDTH 960 0
DWIDTH 12 0
BBX 5 7 3 -1
BITMAP
08
10
30
50
90
10
10
ENDCHAR
STARTCHAR 30A4
ENCODING 12452
SWIDTH 960 0
DWIDTH 12 0
BBX 5 9 3 -1
BITMAP
08
10
10
30
50
90
10
10
10
ENDCHAR
STARTCHAR 30A5
ENCODING 12453
SWIDTH 960 0
DWIDTH 12 0
BBX 6 7 2 -1
BITMAP
10
FC
84
04
08
08
30
ENDCHAR
STARTCHAR 30A6
ENCODING 12454
SWIDTH 960 0
DWIDTH 12 0
BBX 9 9 1 -1
BITMAP
0800
FF80
8080
8100
0100
0100
0200
0400
1800
ENDCHAR
STARTCHAR 30A7
ENCODING 12455
SWIDTH 960 0
DWIDTH 12 0
BBX 7 6 2 0
BITMAP
7C
10
10
10
10
FE
ENDCHAR
STARTCHAR 30A8
ENCODING 12456
SWIDTH 960 0
DWIDTH 12 0
BBX 9 7 1 0
BITMAP
3F00
0800
0800
0800
0800
0800
FF80
ENDCHAR
STARTCHAR 30A9
ENCODING 12457
SWIDTH 960 0
DWIDTH 12 0
BBX 6 6 3 -1
BITMAP
10
FC
30
50
50
90
ENDCHAR
STARTCHAR 30AA
ENCODING 12458
SWIDTH 960 0
DWIDTH 12 0
BBX 8 9 2 -1
BITMAP
08
FF
08
18
18
28
48
88
08
ENDCHAR
STARTCHAR 30AB
ENCODING 12459
SWIDTH 960 0
DWIDTH 12 0
BBX 8 9 2 -1
BITMAP
10
FF
11
11
12
22
22
42
84
ENDCHAR
STARTCHAR 30AC
ENCODING 12460
SWIDTH 960 0
DWIDTH 12 0
BBX 9 10 2 -1
BITMAP
0100
1280
1000
7F00
1200
1200
2200
2200
4200
8400
ENDCHAR
STARTCHAR 30AD
ENCODING 12461
SWIDTH 960 0
DWIDTH 12 0
BBX 9 9 1 -1
BITMAP
1000
0E00
7800
0800
0F80
F800
0800
0400
0400
ENDCHAR
STARTCHAR 30AE
ENCODING 12462
SWIDTH 960 0
DWIDTH 12 0
BBX 10 10 1 -1
BITMAP
0080
1140
1600
6800
0800
0F80
F800
0800
0400
0400
ENDCHAR
STARTCHAR 30AF
ENCODING 12463
SWIDTH 960 0
DWIDTH 12 0
BBX 7 9 2 -1
BITMAP
20
5E
42
82
04
04
08
10
60
ENDCHAR
STARTCHAR 30B0
ENCODING 12464
SWIDTH 960 0
DWIDTH 12 0
BBX 9 10 2 -1
BITMAP
0280
2100
5E00
4200
8200
0400
0400
0800
3000
4000
ENDCHAR
STARTCHAR 30B1
ENCODING 12465
SWIDTH 960 0
DWIDTH 12 0
BBX 9 9 1 -1
BITMAP
2000
2000
3F80
4400
8400
0400
0800
0800
1000
ENDCHAR
STARTCHAR 30B2
ENCODING 12466
SWIDTH 960 0
DWIDTH 12 0
BBX 10 10 1 -1
BITMAP
0080
2140
2000
3F80
4400
8400
0400
0800
0800
1000
ENDCHAR
STARTCHAR 30B3
ENCODING 12467
SWIDTH 960 0
DWIDTH 12 0
BBX 7 7 2 0
BITMAP
7E
02
02
02
02
02
FE
ENDCHAR
STARTCHAR 30B4
ENCODING 12468
SWIDTH 960 0
DWIDTH 12 0
BBX 9 9 2 0
BITMAP
0100
0280
7E00
0200
0200
0200
0200
0200
FE00
ENDCHAR
STARTCHAR 30B5
ENCODING 12469
SWIDTH 960 0
DWIDTH 12 0
BBX 8 9 2 -1
BITMAP
44
44
44
FF
44
44
08
08
10
ENDCHAR
STARTCHAR 30B6
ENCODING 12470
SWIDTH 960 0
DWIDTH 12 0
BBX 9 10 2 -1
BITMAP
0100
4680
4400
4400
FF00
4400
4400
0800
0800
1000
ENDCHAR
STARTCHAR 30B7
ENCODING 12471
SWIDTH 960 0
DWIDTH 12 0
BBX 8 9 2 -1
BITMAP
40
20
01
82
02
04
08
30
40
ENDCHAR
STARTCHAR 30B8
ENCODING 12472
SWIDTH 960 0
DWIDTH 12 0
BBX 8 10 2 -1
BITMAP
01
42
20
01
82
02
04
08
30
40
ENDCHAR
STARTCHAR 30B9
ENCODING 12473
SWIDTH 960 0
DWIDTH 12 0
BBX 7 9 2 -1
BITMAP
FC
04
04
08
08
18
26
42
80
ENDCHAR
STARTCHAR 30BA
ENCODING 12474
SWIDTH 960 0
DWIDTH 12 0
BBX 9 10 2 -1
BITMAP
0100
FE80
0400
0400
0800
0800
1800
2400
4200
8000
ENDCHAR
STARTCHAR 30BB
ENCODING 12475
SWIDTH 960 0
DWIDTH 12 0
BBX 9 8 1 0
BITMAP
2000
2000
1F80
E100
2100
2200
2000
1E00
ENDCHAR
STARTCHAR 30BC
ENCODING 12476
SWIDTH 960 0
DWIDTH 12 0
BBX 10 9 1 0
BITMAP
0080
2140
2000
1F80
E100
2100
2200
2000
1E00
ENDCHAR
STARTCHAR 30BD
ENCODING 12477
SWIDTH 960 0
DWIDTH 12 0
BBX 7 8 2 -1
BITMAP
82
82
02
04
04
08
10
20
ENDCHAR
STARTCHAR 30BE
ENCODING 12478
SWIDTH 960 0
DWIDTH 12 0
BBX 9 10 2 -1
BITMAP
0100
0180
8200
8200
0400
0400
0400
0800
1000
2000
ENDCHAR
STARTCHAR 30BF
ENCODING 12479
SWIDTH 960 0
DWIDTH 12 0
BBX 7 9 2 -1
BITMAP
3E
22
42
82
1C
04
08
30
40
ENDCHAR
STARTCHAR 30C0
ENCODING 12480
SWIDTH 960 0
DWIDTH 12 0
BBX 9 10 2 -1
BITMAP
0080
3F00
4200
4200
A400
1C00
0800
1000
2000
C000
ENDCHAR
STARTCHAR 30C1
ENCODING 12481
SWIDTH 960 0
DWIDTH 12 0
BBX 8 9 2 -1
BITMAP
0C
F0
10
10
FF
10
10
20
40
ENDCHAR
STARTCHAR 30C2
ENCODING 12482
SWIDTH 960 0
DWIDTH 12 0
BBX 9 10 1 -1
BITMAP
0080
0780
3800
4800
0800
FF00
0800
0800
1000
2000
ENDCHAR
STARTCHAR 30C3
ENCODING 12483
SWIDTH 960 0
DWIDTH 12 0
BBX 7 7 2 -1
BITMAP
02
94
04
04
08
10
20
ENDCHAR
STARTCHAR 30C4
ENCODING 12484
SWIDTH 960 0
DWIDTH 12 0
BBX 8 9 1 -1
BITMAP
10
91
41
01
02
02
04
0C
10
ENDCHAR
STARTCHAR 30C5
ENCODING 12485
SWIDTH 960 0
DWIDTH 12 0
BBX 10 10 1 -1
BITMAP
0140
1080
9100
8100
0200
0200
0400
0400
0800
3000
ENDCHAR
STARTCHAR 30C6
ENCODING 12486
SWIDTH 960 0
DWIDTH 12 0
BBX 9 9 1 -1
BITMAP
7F00
0000
FF80
0800
0800
0800
0800
1000
2000
ENDCHAR
STARTCHAR 30C7
ENCODING 12487
SWIDTH 960 0
DWIDTH 12 0
BBX 10 10 1 -1
BITMAP
0140
7F80
0000
FF80
0800
0800
0800
0800
1000
2000
ENDCHAR
STARTCHAR 30C8
ENCODING 12488
SWIDTH 960 0
DWIDTH 12 0
BBX 3 9 5 -1
BITMAP
80
80
80
E0
80
80
80
80
80
ENDCHAR
STARTCHAR 30C9
ENCODING 12489
SWIDTH 960 0
DWIDTH 12 0
BBX 5 9 5 0
BITMAP
98
80
80
E0
80
80
80
80
80
ENDCHAR
STARTCHAR 30CA
ENCODING 12490
SWIDTH 960 0
DWIDTH 12 0
BBX 9 9 1 -1
BITMAP
0800
0800
FF80
0800
0800
0800
0800
1000
2000
ENDCHAR
STARTCHAR 30CB
ENCODING 12491
SWIDTH 960 0
DWIDTH 12 0
BBX 9 7 1 0
BITMAP
7F00
0000
0000
0000
0000
0000
FF80
ENDCHAR
STARTCHAR 30CC
ENCODING 12492
SWIDTH 960 0
DWIDTH 12 0
BBX 7 8 2 0
BITMAP
FE
02
02
24
14
08
16
60
ENDCHAR
STARTCHAR 30CD
ENCODING 12493
SWIDTH 960 0
DWIDTH 12 0
BBX 8 9 2 0
BITMAP
10
02
7C
08
14
32
D1
10
10
ENDCHAR
STARTCHAR 30CE
ENCODING 12494
SWIDTH 960 0
DWIDTH 12 0
BBX 7 9 2 -1
BITMAP
02
02
04
04
08
08
10
20
C0
ENDCHAR
STARTCHAR 30CF
ENCODING 12495
SWIDTH 960 0
DWIDTH 12 0
BBX 8 6 2 1
BITMAP
08
44
44
42
82
81
ENDCHAR
STARTCHAR 30D0
ENCODING 12496
SWIDTH 960 0
DWIDTH 12 0
BBX 8 7 2 1
BITMAP
01
0A
44
44
42
82
81
ENDCHAR
STARTCHAR 30D1
ENCODING 12497
SWIDTH 960 0
DWIDTH 12 0
BBX 8 7 2 1
BITMAP
03
0B
44
44
42
82
81
ENDCHAR
STARTCHAR 30D2
ENCODING 12498
SWIDTH 960 0
DWIDTH 12 0
BBX 7 8 2 0
BITMAP
80
82
84
F8
80
80
80
FE
ENDCHAR
STARTCHAR 30D3
ENCODING 12499
SWIDTH 960 0
DWIDTH 12 0
BBX 9 9 2 0
BITMAP
0100
8280
8000
8400
F800
8000
8000
8000
FE00
ENDCHAR
STARTCHAR 30D4
ENCODING 12500
SWIDTH 960 0
DWIDTH 12 0
BBX 9 9 2 0
BITMAP
0180
8280
8100
8400
F800
8000
8000
8000
FE00
ENDCHAR
STARTCHAR 30D5
ENCODING 12501
SWIDTH 960 0
DWIDTH 12 0
BBX 7 8 2 -1
BITMAP
FE
02
02
04
04
08
10
20
ENDCHAR
STARTCHAR 30D6
ENCODING 12502
SWIDTH 960 0
DWIDTH 12 0
BBX 8 10 2 -1
BITMAP
01
03
FE
02
04
04
04
08
30
40
ENDCHAR
STARTCHAR 30D7
ENCODING 12503
SWIDTH 960 0
DWIDTH 12 0
BBX 9 10 2 -1
BITMAP
0380
0280
FF00
0200
0400
0400
0800
0800
3000
4000
ENDCHAR
STARTCHAR 30D8
ENCODING 12504
SWIDTH 960 0
DWIDTH 12 0
BBX 9 6 1 0
BITMAP
1000
2800
4400
8200
0100
0080
ENDCHAR
STARTCHAR 30D9
ENCODING 12505
SWIDTH 960 0
DWIDTH 12 0
BBX 9 8 1 0
BITMAP
0100
0180
1000
2800
4400
8200
0100
0080
ENDCHAR
STARTCHAR 30DA
ENCODING 12506
SWIDTH 960 0
DWIDTH 12 0
BBX 9 8 1 0
BITMAP
0180
0280
1100
2800
4400
8200
0100
0080
ENDCHAR
STARTCHAR 30DB
ENCODING 12507
SWIDTH 960 0
DWIDTH 12 0
BBX 9 9 1 -1
BITMAP
0800
0800
FF80
0800
0800
2A00
4900
0800
0800
ENDCHAR
STARTCHAR 30DC
ENCODING 12508
SWIDTH 960 0
DWIDTH 12 0
BBX 9 10 1 -1
BITMAP
0080
0900
0800
FF80
0800
0800
2A00
4900
0800
0800
ENDCHAR
STARTCHAR 30DD
ENCODING 12509
SWIDTH 960 0
DWIDTH 12 0
BBX 9 10 1 -1
BITMAP
0180
0A80
0900
FF80
0800
0800
2A00
4900
0800
0800
ENDCHAR
STARTCHAR 30DE
ENCODING 12510
SWIDTH 960 0
DWIDTH 12 0
BBX 8 6 2 0
BITMAP
FF
01
02
44
20
10
ENDCHAR
STARTCHAR 30DF
ENCODING 12511
SWIDTH 960 0
DWIDTH 12 0
BBX 4 8 3 -1
BITMAP
30
00
00
60
00
00
C0
30
ENDCHAR
STARTCHAR 30E0
ENCODING 12512
SWIDTH 960 0
DWIDTH 12 0
BBX 9 8 1 0
BITMAP
0800
0800
1000
1000
2000
2200
4100
FE80
ENDCHAR
STARTCHAR 30E1
ENCODING 12513
SWIDTH 960 0
DWIDTH 12 0
BBX 7 9 2 -1
BITMAP
02
02
04
34
0C
10
10
60
80
ENDCHAR
STARTCHAR 30E2
ENCODING 12514
SWIDTH 960 0
DWIDTH 12 0
BBX 9 8 1 0
BITMAP
7F00
1000
1000
FF80
1000
1000
1000
1E00
ENDCHAR
STARTCHAR 30E3
ENCODING 12515
SWIDTH 960 0
DWIDTH 12 0
BBX 7 7 2 -1
BITMAP
20
2E
F2
24
10
10
10
ENDCHAR
STARTCHAR 30E4
ENCODING 12516
SWIDTH 960 0
DWIDTH 12 0
BBX 9 9 1 -1
BITMAP
2000
2080
3F80
D100
1100
1200
0800
0800
0800
ENDCHAR
STARTCHAR 30E5
ENCODING 12517
SWIDTH 960 0
DWIDTH 12 0
BBX 7 6 2 0
BITMAP
78
08
08
08
08
FE
ENDCHAR
STARTCHAR 30E6
ENCODING 12518
SWIDTH 960 0
DWIDTH 12 0
BBX 9 7 1 0
BITMAP
3E00
0200
0200
0200
0200
0200
FF80
ENDCHAR
STARTCHAR 30E7
ENCODING 12519
SWIDTH 960 0
DWIDTH 12 0
BBX 5 6 3 0
BITMAP
F8
08
08
78
08
F8
ENDCHAR
STARTCHAR 30E8
ENCODING 12520
SWIDTH 960 0
DWIDTH 12 0
BBX 7 7 2 0
BITMAP
7E
02
02
7E
02
02
FE
ENDCHAR
STARTCHAR 30E9
ENCODING 12521
SWIDTH 960 0
DWIDTH 12 0
BBX 7 9 2 -1
BITMAP
7E
00
FE
02
02
04
04
18
60
ENDCHAR
STARTCHAR 30EA
ENCODING 12522
SWIDTH 960 0
DWIDTH 12 0
BBX 5 9 3 -1
BITMAP
88
88
88
88
88
08
08
10
60
ENDCHAR
STARTCHAR 30EB
ENCODING 12523
SWIDTH 960 0
DWIDTH 12 0
BBX 8 9 2 -1
BITMAP
48
48
48
48
48
48
49
8A
0C
ENDCHAR
STARTCHAR 30EC
ENCODING 12524
SWIDTH 960 0
DWIDTH 12 0
BBX 7 9 2 -1
BITMAP
80
80
80
80
80
82
84
98
60
ENDCHAR
STARTCHAR 30ED
ENCODING 12525
SWIDTH 960 0
DWIDTH 12 0
BBX 7 7 2 0
BITMAP
FE
82
82
82
82
82
FE
ENDCHAR
STARTCHAR 30EE
ENCODING 12526
SWIDTH 960 0
DWIDTH 12 0
BBX 6 6 2 0
BITMAP
FC
84
84
04
08
18
ENDCHAR
STARTCHAR 30EF
ENCODING 12527
SWIDTH 960 0
DWIDTH 12 0
BBX 8 8 2 0
BITMAP
FF
82
82
82
02
04
04
18
ENDCHAR
STARTCHAR 30F0
ENCODING 12528
SWIDTH 960 0
DWIDTH 12 0
BBX 9 8 1 -1
BITMAP
0400
0400
3F00
2400
2400
FF80
0400
0400
ENDCHAR
STARTCHAR 30F1
ENCODING 12529
SWIDTH 960 0
DWIDTH 12 0
BBX 9 8 1 0
BITMAP
7F00
0100
0100
0A00
0800
0800
0800
FF80
ENDCHAR
STARTCHAR 30F2
ENCODING 12530
SWIDTH 960 0
DWIDTH 12 0
BBX 7 9 2 -1
BITMAP
FE
02
02
FE
04
04
08
10
20
ENDCHAR
STARTCHAR 30F3
ENCODING 12531
SWIDTH 960 0
DWIDTH 12 0
BBX 7 9 2 -1
BITMAP
80
40
00
02
02
04
08
30
C0
ENDCHAR
STARTCHAR 30F4
ENCODING 12532
SWIDTH 960 0
DWIDTH 12 0
BBX 10 10 1 -1
BITMAP
0040
0880
FF80
8100
8100
0100
0200
0200
0400
1800
ENDCHAR
STARTCHAR 30F5
ENCODING 12533
SWIDTH 960 0
DWIDTH 12 0
BBX 8 9 2 -1
BITMAP
10
FF
11
11
12
22
22
42
84
ENDCHAR
STARTCHAR 30F6
ENCODING 12534
SWIDTH 960 0
DWIDTH 12 0
BBX 9 9 1 -1
BITMAP
2000
2000
3F80
4400
8400
0400
0800
0800
1000
ENDCHAR
STARTCHAR 3131
ENCODING 12593
SWIDTH 960 0
DWIDTH 12 0
BBX 6 5 3 1
BITMAP
FC
04
04
04
04
ENDCHAR
STARTCHAR 3132
ENCODING 12594
SWIDTH 960 0
DWIDTH 12 0
BBX 8 5 2 1
BITMAP
F7
11
11
11
11
ENDCHAR
STARTCHAR 3133
ENCODING 12595
SWIDTH 960 0
DWIDTH 12 0
BBX 7 5 2 1
BITMAP
E4
24
24
2A
20
ENDCHAR
STARTCHAR 3134
ENCODING 12596
SWIDTH 960 0
DWIDTH 12 0
BBX 6 5 3 1
BITMAP
80
80
80
80
FC
ENDCHAR
STARTCHAR 3135
ENCODING 12597
SWIDTH 960 0
DWIDTH 12 0
BBX 8 4 2 2
BITMAP
8E
82
86
89
ENDCHAR
STARTCHAR 3136
ENCODING 12598
SWIDTH 960 0
DWIDTH 12 0
BBX 8 5 2 1
BITMAP
8C
9F
8A
8A
64
ENDCHAR
STARTCHAR 3137
ENCODING 12599
SWIDTH 960 0
DWIDTH 12 0
BBX 6 5 3 1
BITMAP
FC
80
80
80
FC
ENDCHAR
STARTCHAR 3138
ENCODING 12600
SWIDTH 960 0
DWIDTH 12 0
BBX 7 5 2 1
BITMAP
FE
90
90
90
FE
ENDCHAR
STARTCHAR 3139
ENCODING 12601
SWIDTH 960 0
DWIDTH 12 0
BBX 6 5 3 1
BITMAP
F8
08
F8
80
FC
ENDCHAR
STARTCHAR 313A
ENCODING 12602
SWIDTH 960 0
DWIDTH 12 0
BBX 7 5 2 1
BITMAP
EE
22
E2
82
F2
ENDCHAR
STARTCHAR 313B
ENCODING 12603
SWIDTH 960 0
DWIDTH 12 0
BBX 8 5 2 1
BITMAP
EF
29
E9
89
FF
ENDCHAR
STARTCHAR 313C
ENCODING 12604
SWIDTH 960 0
DWIDTH 12 0
BBX 8 5 2 1
BITMAP
E9
29
EF
89
F7
ENDCHAR
STARTCHAR 313D
ENCODING 12605
SWIDTH 960 0
DWIDTH 12 0
BBX 8 5 2 1
BITMAP
E2
22
E2
85
F0
ENDCHAR
STARTCHAR 313E
ENCODING 12606
SWIDTH 960 0
DWIDTH 12 0
BBX 8 5 2 1
BITMAP
EE
28
E7
88
F7
ENDCHAR
STARTCHAR 313F
ENCODING 12607
SWIDTH 960 0
DWIDTH 12 0
BBX 8 5 2 1
BITMAP
E7
25
E5
85
F7
ENDCHAR
STARTCHAR 3140
ENCODING 12608
SWIDTH 960 0
DWIDTH 12 0
BBX 9 5 2 1
BITMAP
E600
2F80
E900
8900
F600
ENDCHAR
STARTCHAR 3141
ENCODING 12609
SWIDTH 960 0
DWIDTH 12 0
BBX 6 5 3 1
BITMAP
FC
84
84
84
FC
ENDCHAR
STARTCHAR 3142
ENCODING 12610
SWIDTH 960 0
DWIDTH 12 0
BBX 6 5 3 1
BITMAP
84
84
FC
84
FC
ENDCHAR
STARTCHAR 3143
ENCODING 12611
SWIDTH 960 0
DWIDTH 12 0
BBX 7 5 2 1
BITMAP
92
92
FE
92
FE
ENDCHAR
STARTCHAR 3144
ENCODING 12612
SWIDTH 960 0
DWIDTH 12 0
BBX 8 5 2 1
BITMAP
92
92
F2
95
F0
ENDCHAR
STARTCHAR 3145
ENCODING 12613
SWIDTH 960 0
DWIDTH 12 0
BBX 8 6 2 1
BITMAP
08
08
10
1C
22
C1
ENDCHAR
STARTCHAR 3146
ENCODING 12614
SWIDTH 960 0
DWIDTH 12 0
BBX 8 5 2 1
BITMAP
24
44
66
5A
99
ENDCHAR
STARTCHAR 3147
ENCODING 12615
SWIDTH 960 0
DWIDTH 12 0
BBX 6 5 3 1
BITMAP
F8
88
84
88
70
ENDCHAR
STARTCHAR 3148
ENCODING 12616
SWIDTH 960 0
DWIDTH 12 0
BBX 8 5 2 1
BITMAP
7C
08
18
24
C3
ENDCHAR
STARTCHAR 3149
ENCODING 12617
SWIDTH 960 0
DWIDTH 12 0
BBX 9 5 1 1
BITMAP
3700
1100
3300
3380
CC80
ENDCHAR
STARTCHAR 314A
ENCODING 12618
SWIDTH 960 0
DWIDTH 12 0
BBX 7 6 3 1
BITMAP
78
00
FC
08
38
C6
ENDCHAR
STARTCHAR 314B
ENCODING 12619
SWIDTH 960 0
DWIDTH 12 0
BBX 6 5 3 1
BITMAP
FC
04
FC
04
04
ENDCHAR
STARTCHAR 314C
ENCODING 12620
SWIDTH 960 0
DWIDTH 12 0
BBX 6 5 3 1
BITMAP
F8
80
F8
80
FC
ENDCHAR
STARTCHAR 314D
ENCODING 12621
SWIDTH 960 0
DWIDTH 12 0
BBX 7 5 2 1
BITMAP
FE
48
48
48
FE
ENDCHAR
STARTCHAR 314E
ENCODING 12622
SWIDTH 960 0
DWIDTH 12 0
BBX 7 7 2 1
BITMAP
20
18
FE
20
44
44
3C
ENDCHAR
STARTCHAR 314F
ENCODING 12623
SWIDTH 960 0
DWIDTH 12 0
BBX 4 10 4 -1
BITMAP
80
80
80
80
F0
80
80
80
80
80
ENDCHAR
STARTCHAR 3150
ENCODING 12624
SWIDTH 960 0
DWIDTH 12 0
BBX 3 10 4 -1
BITMAP
80
A0
A0
A0
E0
A0
A0
A0
A0
A0
ENDCHAR
STARTCHAR 3151
ENCODING 12625
SWIDTH 960 0
DWIDTH 12 0
BBX 4 10 4 -1
BITMAP
80
80
80
F0
80
80
F0
80
80
80
ENDCHAR
STARTCHAR 3152
ENCODING 12626
SWIDTH 960 0
DWIDTH 12 0
BBX 3 10 4 -1
BITMAP
80
A0
A0
E0
A0
A0
E0
A0
A0
A0
ENDCHAR
STARTCHAR 3153
ENCODING 12627
SWIDTH 960 0
DWIDTH 12 0
BBX 3 10 4 -1
BITMAP
20
20
20
20
E0
20
20
20
20
20
ENDCHAR
STARTCHAR 3154
ENCODING 12628
SWIDTH 960 0
DWIDTH 12 0
BBX 5 10 3 -1
BITMAP
28
28
28
28
E8
28
28
28
28
28
ENDCHAR
STARTCHAR 3155
ENCODING 12629
SWIDTH 960 0
DWIDTH 12 0
BBX 3 10 4 -1
BITMAP
20
20
20
20
E0
20
E0
20
20
20
ENDCHAR
STARTCHAR 3156
ENCODING 12630
SWIDTH 960 0
DWIDTH 12 0
BBX 5 10 3 -1
BITMAP
28
28
28
E8
28
28
E8
28
28
28
ENDCHAR
STARTCHAR 3157
ENCODING 12631
SWIDTH 960 0
DWIDTH 12 0
BBX 10 6 1 1
BITMAP
0800
0800
0800
0800
0800
FFC0
ENDCHAR
STARTCHAR 3158
ENCODING 12632
SWIDTH 960 0
DWIDTH 12 0
BBX 10 10 1 -1
BITMAP
0100
0100
0100
1100
11C0
1100
1100
ED00
0100
0100
ENDCHAR
STARTCHAR 3159
ENCODING 12633
SWIDTH 960 0
DWIDTH 12 0
BBX 9 10 1 -1
BITMAP
0280
0280
0280
2280
2380
2280
2280
DA80
0280
0280
ENDCHAR
STARTCHAR 315A
ENCODING 12634
SWIDTH 960 0
DWIDTH 12 0
BBX 8 10 2 -1
BITMAP
01
01
01
21
21
21
21
DD
01
01
ENDCHAR
STARTCHAR 315B
ENCODING 12635
SWIDTH 960 0
DWIDTH 12 0
BBX 10 6 1 1
BITMAP
0200
2200
2200
2200
2200
FFC0
ENDCHAR
STARTCHAR 315C
ENCODING 12636
SWIDTH 960 0
DWIDTH 12 0
BBX 9 5 1 -1
BITMAP
FF80
0800
0800
0800
0800
ENDCHAR
STARTCHAR 315D
ENCODING 12637
SWIDTH 960 0
DWIDTH 12 0
BBX 8 10 2 -1
BITMAP
01
01
01
01
01
FD
21
27
21
21
ENDCHAR
STARTCHAR 315E
ENCODING 12638
SWIDTH 960 0
DWIDTH 12 0
BBX 8 10 2 -1
BITMAP
05
05
05
05
0D
F5
45
4D
45
45
ENDCHAR
STARTCHAR 315F
ENCODING 12639
SWIDTH 960 0
DWIDTH 12 0
BBX 8 10 2 -1
BITMAP
01
01
01
01
07
F9
21
21
21
01
ENDCHAR
STARTCHAR 3160
ENCODING 12640
SWIDTH 960 0
DWIDTH 12 0
BBX 9 5 1 -1
BITMAP
FF80
2200
2200
2200
2200
ENDCHAR
STARTCHAR 3161
ENCODING 12641
SWIDTH 960 0
DWIDTH 12 0
BBX 10 1 1 1
BITMAP
FFC0
ENDCHAR
STARTCHAR 3162
ENCODING 12642
SWIDTH 960 0
DWIDTH 12 0
BBX 9 10 1 -1
BITMAP
0080
0080
0080
0080
0080
0080
FF80
0080
0080
0080
ENDCHAR
STARTCHAR 3163
ENCODING 12643
SWIDTH 960 0
DWIDTH 12 0
BBX 1 10 5 -1
BITMAP
80
80
80
80
80
80
80
80
80
80
ENDCHAR
STARTCHAR 3165
ENCODING 12645
SWIDTH 960 0
DWIDTH 12 0
BBX 8 5 2 1
BITMAP
88
88
88
88
EF
ENDCHAR
STARTCHAR 3166
ENCODING 12646
SWIDTH 960 0
DWIDTH 12 0
BBX 8 5 2 1
BITMAP
8F
88
88
88
EF
ENDCHAR
STARTCHAR 3167
ENCODING 12647
SWIDTH 960 0
DWIDTH 12 0
BBX 8 5 2 1
BITMAP
82
82
86
85
F8
ENDCHAR
STARTCHAR 3168
ENCODING 12648
SWIDTH 960 0
DWIDTH 12 0
BBX 8 5 2 1
BITMAP
84
86
86
89
FF
ENDCHAR
STARTCHAR 3169
ENCODING 12649
SWIDTH 960 0
DWIDTH 12 0
BBX 10 5 1 1
BITMAP
FC80
2480
E480
8540
E400
ENDCHAR
STARTCHAR 316A
ENCODING 12650
SWIDTH 960 0
DWIDTH 12 0
BBX 8 5 2 1
BITMAP
EE
28
E8
88
FF
ENDCHAR
STARTCHAR 316B
ENCODING 12651
SWIDTH 960 0
DWIDTH 12 0
BBX 10 5 1 1
BITMAP
F480
3480
FC80
9540
FC00
ENDCHAR
STARTCHAR 316C
ENCODING 12652
SWIDTH 960 0
DWIDTH 12 0
BBX 8 5 2 1
BITMAP
E2
22
E5
89
FF
ENDCHAR
STARTCHAR 316D
ENCODING 12653
SWIDTH 960 0
DWIDTH 12 0
BBX 8 5 2 1
BITMAP
EF
26
E9
89
F6
ENDCHAR
STARTCHAR 316E
ENCODING 12654
SWIDTH 960 0
DWIDTH 12 0
BBX 8 5 2 1
BITMAP
F9
99
9F
99
FF
ENDCHAR
STARTCHAR 316F
ENCODING 12655
SWIDTH 960 0
DWIDTH 12 0
BBX 8 5 2 1
BITMAP
F2
92
92
95
F0
ENDCHAR
STARTCHAR 3170
ENCODING 12656
SWIDTH 960 0
DWIDTH 12 0
BBX 8 5 2 1
BITMAP
F2
92
95
99
FF
ENDCHAR
STARTCHAR 3171
ENCODING 12657
SWIDTH 960 0
DWIDTH 12 0
BBX 5 8 3 0
BITMAP
F8
88
88
F8
00
78
88
78
ENDCHAR
STARTCHAR 3172
ENCODING 12658
SWIDTH 960 0
DWIDTH 12 0
BBX 8 5 2 1
BITMAP
97
91
F1
91
F1
ENDCHAR
STARTCHAR 3173
ENCODING 12659
SWIDTH 960 0
DWIDTH 12 0
BBX 8 5 2 1
BITMAP
9F
98
F8
98
FF
ENDCHAR
STARTCHAR 3174
ENCODING 12660
SWIDTH 960 0
DWIDTH 12 0
BBX 9 5 1 1
BITMAP
A780
A480
EC80
AA80
F080
ENDCHAR
STARTCHAR 3175
ENCODING 12661
SWIDTH 960 0
DWIDTH 12 0
BBX 10 5 1 1
BITMAP
A9C0
A900
ED00
AB00
F1C0
ENDCHAR
STARTCHAR 3176
ENCODING 12662
SWIDTH 960 0
DWIDTH 12 0
BBX 9 5 2 1
BITMAP
AF00
A200
E200
A580
E800
ENDCHAR
STARTCHAR 3177
ENCODING 12663
SWIDTH 960 0
DWIDTH 12 0
BBX 8 5 2 1
BITMAP
9F
98
F7
98
F7
ENDCHAR
STARTCHAR 3178
ENCODING 12664
SWIDTH 960 0
DWIDTH 12 0
BBX 5 8 3 0
BITMAP
88
F8
88
F8
00
78
88
78
ENDCHAR
STARTCHAR 3179
ENCODING 12665
SWIDTH 960 0
DWIDTH 12 0
BBX 7 8 2 0
BITMAP
92
FE
92
FE
00
3C
44
3C
ENDCHAR
STARTCHAR 317A
ENCODING 12666
SWIDTH 960 0
DWIDTH 12 0
BBX 6 4 3 1
BITMAP
5C
44
44
A4
ENDCHAR
STARTCHAR 317B
ENCODING 12667
SWIDTH 960 0
DWIDTH 12 0
BBX 8 5 2 1
BITMAP
48
48
48
A8
17
ENDCHAR
STARTCHAR 317C
ENCODING 12668
SWIDTH 960 0
DWIDTH 12 0
BBX 8 5 2 1
BITMAP
4F
48
48
A8
1F
ENDCHAR
STARTCHAR 317D
ENCODING 12669
SWIDTH 960 0
DWIDTH 12 0
BBX 8 5 2 1
BITMAP
49
49
6F
79
9F
ENDCHAR
STARTCHAR 317E
ENCODING 12670
SWIDTH 960 0
DWIDTH 12 0
BBX 8 5 2 1
BITMAP
4E
42
46
A9
10
ENDCHAR
STARTCHAR 317F
ENCODING 12671
SWIDTH 960 0
DWIDTH 12 0
BBX 4 5 4 1
BITMAP
40
60
A0
90
F0
ENDCHAR
STARTCHAR 3180
ENCODING 12672
SWIDTH 960 0
DWIDTH 12 0
BBX 8 4 2 2
BITMAP
E7
99
99
E7
ENDCHAR
STARTCHAR 3181
ENCODING 12673
SWIDTH 960 0
DWIDTH 12 0
BBX 4 6 4 1
BITMAP
40
40
B0
90
90
E0
ENDCHAR
STARTCHAR 3182
ENCODING 12674
SWIDTH 960 0
DWIDTH 12 0
BBX 8 6 2 1
BITMAP
40
42
B2
92
95
60
ENDCHAR
STARTCHAR 3183
ENCODING 12675
SWIDTH 960 0
DWIDTH 12 0
BBX 8 6 2 1
BITMAP
40
44
B6
96
99
6F
ENDCHAR
STARTCHAR 3184
ENCODING 12676
SWIDTH 960 0
DWIDTH 12 0
BBX 6 8 3 0
BITMAP
FC
10
50
FC
00
78
88
78
ENDCHAR
STARTCHAR 3185
ENCODING 12677
SWIDTH 960 0
DWIDTH 12 0
BBX 10 5 1 1
BITMAP
6380
F7C0
5280
9480
6300
ENDCHAR
STARTCHAR 3186
ENCODING 12678
SWIDTH 960 0
DWIDTH 12 0
BBX 5 5 3 1
BITMAP
F8
70
88
88
70
ENDCHAR
STARTCHAR 3187
ENCODING 12679
SWIDTH 960 0
DWIDTH 12 0
BBX 10 10 1 -1
BITMAP
0100
0100
0100
09C0
4900
4900
4980
B500
0100
0100
ENDCHAR
STARTCHAR 3188
ENCODING 12680
SWIDTH 960 0
DWIDTH 12 0
BBX 9 10 1 -1
BITMAP
0280
0280
0280
5380
5280
5280
5380
AA80
0280
0280
ENDCHAR
STARTCHAR 3189
ENCODING 12681
SWIDTH 960 0
DWIDTH 12 0
BBX 8 10 2 -1
BITMAP
01
01
01
41
51
51
51
AD
01
01
ENDCHAR
STARTCHAR 318A
ENCODING 12682
SWIDTH 960 0
DWIDTH 12 0
BBX 8 10 2 -1
BITMAP
01
01
01
01
05
F9
97
91
97
11
ENDCHAR
STARTCHAR 318B
ENCODING 12683
SWIDTH 960 0
DWIDTH 12 0
BBX 9 10 1 -1
BITMAP
0280
0280
0280
0280
FA80
5280
5680
5280
5680
5280
ENDCHAR
STARTCHAR 318C
ENCODING 12684
SWIDTH 960 0
DWIDTH 12 0
BBX 8 10 2 -1
BITMAP
01
01
01
01
07
F9
49
49
49
49
ENDCHAR
STARTCHAR 318D
ENCODING 12685
SWIDTH 960 0
DWIDTH 12 0
BBX 1 1 5 4
BITMAP
80
ENDCHAR
STARTCHAR 318E
ENCODING 12686
SWIDTH 960 0
DWIDTH 12 0
BBX 3 10 4 -1
BITMAP
20
20
20
20
20
A0
20
20
20
20
ENDCHAR
STARTCHAR 3200
ENCODING 12800
SWIDTH 960 0
DWIDTH 12 0
BBX 11 10 0 -1
BITMAP
0040
4020
8020
9F20
8120
8120
8120
8020
8020
4040
ENDCHAR
STARTCHAR 3201
ENCODING 12801
SWIDTH 960 0
DWIDTH 12 0
BBX 11 10 0 -1
BITMAP
0040
4020
8020
9020
9020
9020
9020
9FA0
8020
4040
ENDCHAR
STARTCHAR 3202
ENCODING 12802
SWIDTH 960 0
DWIDTH 12 0
BBX 11 10 0 -1
BITMAP
0040
4020
8020
9F20
9020
9020
9020
9F20
8020
4040
ENDCHAR
STARTCHAR 3203
ENCODING 12803
SWIDTH 960 0
DWIDTH 12 0
BBX 11 10 0 -1
BITMAP
0040
4020
8020
8F20
8120
9E20
9020
9F20
8020
4040
ENDCHAR
STARTCHAR 3204
ENCODING 12804
SWIDTH 960 0
DWIDTH 12 0
BBX 11 10 0 -1
BITMAP
0040
4020
8020
9F20
9120
9120
9120
9F20
8020
4040
ENDCHAR
STARTCHAR 3205
ENCODING 12805
SWIDTH 960 0
DWIDTH 12 0
BBX 11 10 0 -1
BITMAP
0040
4020
8020
9120
9F20
9120
9120
9F20
8020
4040
ENDCHAR
STARTCHAR 3206
ENCODING 12806
SWIDTH 960 0
DWIDTH 12 0
BBX 11 10 0 -1
BITMAP
0040
4020
8420
8420
8620
8920
90A0
8020
8020
4040
ENDCHAR
STARTCHAR 3207
ENCODING 12807
SWIDTH 960 0
DWIDTH 12 0
BBX 11 10 0 -1
BITMAP
0040
4020
8020
8F20
9120
90A0
9120
8E20
8020
4040
ENDCHAR
STARTCHAR 3208
ENCODING 12808
SWIDTH 960 0
DWIDTH 12 0
BBX 11 10 0 -1
BITMAP
0040
4020
9F20
8120
8220
8620
99A0
A020
8020
4040
ENDCHAR
STARTCHAR 3209
ENCODING 12809
SWIDTH 960 0
DWIDTH 12 0
BBX 11 10 0 -1
BITMAP
0040
4020
8E20
9F20
8120
8220
8DA0
9020
8020
4040
ENDCHAR
STARTCHAR 320A
ENCODING 12810
SWIDTH 960 0
DWIDTH 12 0
BBX 11 10 0 -1
BITMAP
0040
4020
8020
8F20
8120
8F20
8120
8020
8020
4040
ENDCHAR
STARTCHAR 320B
ENCODING 12811
SWIDTH 960 0
DWIDTH 12 0
BBX 11 10 0 -1
BITMAP
0040
4020
8020
9F20
9020
9F20
9020
9F20
8020
4040
ENDCHAR
STARTCHAR 320C
ENCODING 12812
SWIDTH 960 0
DWIDTH 12 0
BBX 11 10 0 -1
BITMAP
0040
4020
8020
9F20
9220
8A20
8A20
9520
8020
4040
ENDCHAR
STARTCHAR 320D
ENCODING 12813
SWIDTH 960 0
DWIDTH 12 0
BBX 11 10 0 -1
BITMAP
0040
4020
8F20
8020
BFA0
9120
9120
8920
8620
4040
ENDCHAR
STARTCHAR 320E
ENCODING 12814
SWIDTH 960 0
DWIDTH 12 0
BBX 11 10 0 -1
BITMAP
0040
4020
9D20
8520
88E0
8920
B120
8120
8120
4040
ENDCHAR
STARTCHAR 320F
ENCODING 12815
SWIDTH 960 0
DWIDTH 12 0
BBX 11 10 0 -1
BITMAP
0040
4120
A120
A120
A1A0
A120
9D20
8120
8120
4040
ENDCHAR
STARTCHAR 3210
ENCODING 12816
SWIDTH 960 0
DWIDTH 12 0
BBX 11 10 0 -1
BITMAP
0040
4120
BD20
A120
A1E0
A120
BD20
8120
8120
4040
ENDCHAR
STARTCHAR 3211
ENCODING 12817
SWIDTH 960 0
DWIDTH 12 0
BBX 11 10 0 -1
BITMAP
0040
4120
BD20
8520
BDE0
A120
BF20
8120
8120
4040
ENDCHAR
STARTCHAR 3212
ENCODING 12818
SWIDTH 960 0
DWIDTH 12 0
BBX 11 10 0 -1
BITMAP
0040
4120
BD20
A520
A5E0
A520
BD20
8120
8120
4040
ENDCHAR
STARTCHAR 3213
ENCODING 12819
SWIDTH 960 0
DWIDTH 12 0
BBX 11 10 0 -1
BITMAP
0040
4120
A520
A520
BDE0
A520
BD20
8120
8120
4040
ENDCHAR
STARTCHAR 3214
ENCODING 12820
SWIDTH 960 0
DWIDTH 12 0
BBX 11 10 0 -1
BITMAP
0040
4020
8920
8920
89A0
9520
A120
8120
8120
4040
ENDCHAR
STARTCHAR 3215
ENCODING 12821
SWIDTH 960 0
DWIDTH 12 0
BBX 11 10 0 -1
BITMAP
0040
4020
9920
A520
A4E0
A520
9920
8120
8120
4040
ENDCHAR
STARTCHAR 3216
ENCODING 12822
SWIDTH 960 0
DWIDTH 12 0
BBX 11 10 0 -1
BITMAP
0040
4020
9D20
8520
88E0
9520
A120
8120
8120
4040
ENDCHAR
STARTCHAR 3217
ENCODING 12823
SWIDTH 960 0
DWIDTH 12 0
BBX 11 10 0 -1
BITMAP
0040
4020
9D20
9D20
84E0
8D20
B320
8120
8020
4040
ENDCHAR
STARTCHAR 3218
ENCODING 12824
SWIDTH 960 0
DWIDTH 12 0
BBX 11 10 0 -1
BITMAP
0040
4020
9D20
8520
98E0
8920
B120
8120
8120
4040
ENDCHAR
STARTCHAR 3219
ENCODING 12825
SWIDTH 960 0
DWIDTH 12 0
BBX 11 10 0 -1
BITMAP
0040
4120
BD20
A120
BDE0
A120
BD20
8120
8120
4040
ENDCHAR
STARTCHAR 321A
ENCODING 12826
SWIDTH 960 0
DWIDTH 12 0
BBX 11 10 0 -1
BITMAP
0040
4020
BF20
9520
94E0
9520
BF20
8120
8120
4040
ENDCHAR
STARTCHAR 321B
ENCODING 12827
SWIDTH 960 0
DWIDTH 12 0
BBX 11 10 0 -1
BITMAP
0040
4020
9D20
BF20
94E0
A520
9D20
8120
8020
4040
ENDCHAR
STARTCHAR 321C
ENCODING 12828
SWIDTH 960 0
DWIDTH 12 0
BBX 11 10 0 -1
BITMAP
0040
5F20
8220
8720
98A0
8020
BFE0
8420
8420
4020
ENDCHAR
STARTCHAR 3231
ENCODING 12849
SWIDTH 960 0
DWIDTH 12 0
BBX 11 10 0 -1
BITMAP
0040
D040
9620
B7A0
9220
BFA0
D720
96A0
9020
4000
ENDCHAR
STARTCHAR 3239
ENCODING 12857
SWIDTH 960 0
DWIDTH 12 0
BBX 11 10 0 -1
BITMAP
0040
C840
9420
B3A0
9E20
9220
9220
9160
90A0
4000
ENDCHAR
STARTCHAR 3260
ENCODING 12896
SWIDTH 960 0
DWIDTH 12 0
BBX 11 11 0 -2
BITMAP
1F80
6040
4020
9F20
8120
8120
8120
8020
4040
2080
1F00
ENDCHAR
STARTCHAR 3261
ENCODING 12897
SWIDTH 960 0
DWIDTH 12 0
BBX 11 11 0 -2
BITMAP
1F80
6040
4020
9020
9020
9020
9020
9FA0
4040
2080
1F00
ENDCHAR
STARTCHAR 3262
ENCODING 12898
SWIDTH 960 0
DWIDTH 12 0
BBX 11 11 0 -2
BITMAP
1F80
6040
4020
9F20
9020
9020
9020
9F20
4040
2080
1F00
ENDCHAR
STARTCHAR 3263
ENCODING 12899
SWIDTH 960 0
DWIDTH 12 0
BBX 11 11 0 -2
BITMAP
1F80
6040
4020
8F20
8120
9E20
9020
9F20
4040
2080
1F00
ENDCHAR
STARTCHAR 3264
ENCODING 12900
SWIDTH 960 0
DWIDTH 12 0
BBX 11 11 0 -2
BITMAP
1F80
6040
4020
9F20
9120
9120
9120
9F20
4040
2080
1F00
ENDCHAR
STARTCHAR 3265
ENCODING 12901
SWIDTH 960 0
DWIDTH 12 0
BBX 11 11 0 -2
BITMAP
1F80
6040
4020
9120
9F20
9120
9120
9F20
4040
2080
1F00
ENDCHAR
STARTCHAR 3266
ENCODING 12902
SWIDTH 960 0
DWIDTH 12 0
BBX 11 11 0 -2
BITMAP
1F80
6040
4420
8420
8620
8920
90A0
8020
4040
2080
1F00
ENDCHAR
STARTCHAR 3267
ENCODING 12903
SWIDTH 960 0
DWIDTH 12 0
BBX 11 11 0 -2
BITMAP
1F80
6040
4020
8F20
9120
90A0
9120
8E20
4040
2080
1F00
ENDCHAR
STARTCHAR 3268
ENCODING 12904
SWIDTH 960 0
DWIDTH 12 0
BBX 11 11 0 -2
BITMAP
1F80
6040
5F20
8120
8220
8620
99A0
A020
4040
2080
1F00
ENDCHAR
STARTCHAR 3269
ENCODING 12905
SWIDTH 960 0
DWIDTH 12 0
BBX 11 11 0 -2
BITMAP
1F80
6040
4E20
9F20
8120
8220
8DA0
9020
4040
2080
1F00
ENDCHAR
STARTCHAR 326A
ENCODING 12906
SWIDTH 960 0
DWIDTH 12 0
BBX 11 11 0 -2
BITMAP
1F80
6040
4020
8F20
8120
8F20
8120
8020
4040
2080
1F00
ENDCHAR
STARTCHAR 326B
ENCODING 12907
SWIDTH 960 0
DWIDTH 12 0
BBX 11 11 0 -2
BITMAP
1F80
6040
4020
9F20
9020
9F20
9020
9F20
4040
2080
1F00
ENDCHAR
STARTCHAR 326C
ENCODING 12908
SWIDTH 960 0
DWIDTH 12 0
BBX 11 11 0 -2
BITMAP
1F80
6040
4020
9F20
9220
8A20
8A20
9520
4040
2080
1F00
ENDCHAR
STARTCHAR 326D
ENCODING 12909
SWIDTH 960 0
DWIDTH 12 0
BBX 11 11 0 -2
BITMAP
1F80
6040
4F20
8020
BFA0
9120
9120
8920
4640
2080
1F00
ENDCHAR
STARTCHAR 326E
ENCODING 12910
SWIDTH 960 0
DWIDTH 12 0
BBX 11 11 0 -2
BITMAP
1F80
6040
5D20
8520
88E0
8920
B120
8120
4040
2080
1F00
ENDCHAR
STARTCHAR 326F
ENCODING 12911
SWIDTH 960 0
DWIDTH 12 0
BBX 11 11 0 -2
BITMAP
1F80
6140
6120
A120
A1A0
A120
9D20
8120
4140
2080
1F00
ENDCHAR
STARTCHAR 3270
ENCODING 12912
SWIDTH 960 0
DWIDTH 12 0
BBX 11 11 0 -2
BITMAP
1F80
6140
7D20
A120
A1E0
A120
BD20
8120
4140
2080
1F00
ENDCHAR
STARTCHAR 3271
ENCODING 12913
SWIDTH 960 0
DWIDTH 12 0
BBX 11 11 0 -2
BITMAP
1F80
6140
7D20
8520
BDE0
A120
BF20
8120
4140
2080
1F00
ENDCHAR
STARTCHAR 3272
ENCODING 12914
SWIDTH 960 0
DWIDTH 12 0
BBX 11 11 0 -2
BITMAP
1F80
6140
7D20
A520
A5E0
A520
BD20
8120
4140
2080
1F00
ENDCHAR
STARTCHAR 3273
ENCODING 12915
SWIDTH 960 0
DWIDTH 12 0
BBX 11 11 0 -2
BITMAP
1F80
6140
6520
A520
BDE0
A520
BD20
8120
4140
2080
1F00
ENDCHAR
STARTCHAR 3274
ENCODING 12916
SWIDTH 960 0
DWIDTH 12 0
BBX 11 11 0 -2
BITMAP
1F80
6040
4920
8920
89A0
9520
A120
8120
4040
2080
1F00
ENDCHAR
STARTCHAR 3275
ENCODING 12917
SWIDTH 960 0
DWIDTH 12 0
BBX 11 11 0 -2
BITMAP
1F80
6040
5920
A520
A4E0
A520
9920
8120
4040
2080
1F00
ENDCHAR
STARTCHAR 3276
ENCODING 12918
SWIDTH 960 0
DWIDTH 12 0
BBX 11 11 0 -2
BITMAP
1F80
6040
5D20
8520
88E0
9520
A120
8120
4040
2080
1F00
ENDCHAR
STARTCHAR 3277
ENCODING 12919
SWIDTH 960 0
DWIDTH 12 0
BBX 11 11 0 -2
BITMAP
1F80
6040
5D20
9D20
84E0
8D20
B320
8120
4040
2080
1F00
ENDCHAR
STARTCHAR 3278
ENCODING 12920
SWIDTH 960 0
DWIDTH 12 0
BBX 11 11 0 -2
BITMAP
1F80
6040
5D20
8520
98E0
8920
B120
8120
4040
2080
1F00
ENDCHAR
STARTCHAR 3279
ENCODING 12921
SWIDTH 960 0
DWIDTH 12 0
BBX 11 11 0 -2
BITMAP
1F80
6140
7D20
A120
BDE0
A120
BD20
8120
4140
2080
1F00
ENDCHAR
STARTCHAR 327A
ENCODING 12922
SWIDTH 960 0
DWIDTH 12 0
BBX 11 11 0 -2
BITMAP
1F80
6040
7F20
9520
94E0
9520
BF20
8120
4040
2080
1F00
ENDCHAR
STARTCHAR 327B
ENCODING 12923
SWIDTH 960 0
DWIDTH 12 0
BBX 11 11 0 -2
BITMAP
1F80
6040
5D20
BF20
94E0
A520
9D20
8120
4040
2080
1F00
ENDCHAR
STARTCHAR 327E
ENCODING 12926
SWIDTH 960 0
DWIDTH 12 0
BBX 10 10 1 -1
BITMAP
1F00
6C80
9240
9240
8C40
8040
BF40
8440
4480
3F00
ENDCHAR
STARTCHAR 327F
ENCODING 12927
SWIDTH 960 0
DWIDTH 12 0
BBX 10 10 1 -1
BITMAP
3E00
4100
9480
9440
9800
58C0
9440
9280
4080
3F00
ENDCHAR
STARTCHAR 328A
ENCODING 12938
SWIDTH 960 0
DWIDTH 12 0
BBX 11 11 0 -2
BITMAP
1F80
2040
4F20
8F20
8920
8F20
8920
9120
4140
2080
1F00
ENDCHAR
STARTCHAR 328B
ENCODING 12939
SWIDTH 960 0
DWIDTH 12 0
BBX 11 11 0 -2
BITMAP
1F80
2040
4420
8420
94A0
8620
8A20
8920
50C0
2080
1F00
ENDCHAR
STARTCHAR 328C
ENCODING 12940
SWIDTH 960 0
DWIDTH 12 0
BBX 11 11 0 -2
BITMAP
1F80
2040
4020
84A0
9F20
8E20
9520
A4A0
4440
2080
1F00
ENDCHAR
STARTCHAR 328D
ENCODING 12941
SWIDTH 960 0
DWIDTH 12 0
BBX 11 11 0 -2
BITMAP
1F80
2040
4420
BFA0
8420
8E20
9520
A4A0
4440
2080
1F00
ENDCHAR
STARTCHAR 328E
ENCODING 12942
SWIDTH 960 0
DWIDTH 12 0
BBX 11 11 0 -2
BITMAP
1F80
2040
4620
8920
9FA0
8420
8E20
8920
46C0
2080
1F00
ENDCHAR
STARTCHAR 328F
ENCODING 12943
SWIDTH 960 0
DWIDTH 12 0
BBX 11 11 0 -2
BITMAP
1F80
2040
4420
8420
8F20
8420
8420
BFE0
4040
2080
1F00
ENDCHAR
STARTCHAR 3290
ENCODING 12944
SWIDTH 960 0
DWIDTH 12 0
BBX 11 11 0 -2
BITMAP
1F80
2040
5F20
9120
9120
9F20
9120
8F20
4040
2080
1F00
ENDCHAR
STARTCHAR 3294
ENCODING 12948
SWIDTH 960 0
DWIDTH 12 0
BBX 11 11 0 -2
BITMAP
3F80
4440
8F20
BA20
8C20
9FA0
A8A0
8FA0
48C0
2080
1F00
ENDCHAR
STARTCHAR 329E
ENCODING 12958
SWIDTH 960 0
DWIDTH 12 0
BBX 11 10 0 -1
BITMAP
1F00
20C0
4040
9D20
9D20
9520
9C20
5040
4040
3F80
ENDCHAR
STARTCHAR 32A5
ENCODING 12965
SWIDTH 960 0
DWIDTH 12 0
BBX 11 11 0 -2
BITMAP
3F80
4440
8420
BFA0
A4A0
9FA0
A4A0
8420
4440
2080
1F00
ENDCHAR
STARTCHAR 3380
ENCODING 13184
SWIDTH 960 0
DWIDTH 12 0
BBX 10 10 1 -2
BITMAP
0300
0500
E500
A480
9880
9F80
A840
E040
8000
8000
ENDCHAR
STARTCHAR 3381
ENCODING 13185
SWIDTH 960 0
DWIDTH 12 0
BBX 10 8 1 0
BITMAP
0300
0500
E500
A480
A880
A780
A840
2040
ENDCHAR
STARTCHAR 3382
ENCODING 13186
SWIDTH 960 0
DWIDTH 12 0
BBX 11 9 0 -1
BITMAP
0180
0280
4A80
4A40
4C40
57C0
5420
6820
8000
ENDCHAR
STARTCHAR 3383
ENCODING 13187
SWIDTH 960 0
DWIDTH 12 0
BBX 10 8 1 0
BITMAP
0300
0300
F500
D480
D480
D780
D880
5840
ENDCHAR
STARTCHAR 3384
ENCODING 13188
SWIDTH 960 0
DWIDTH 12 0
BBX 10 8 1 0
BITMAP
8200
8500
A500
C500
C880
CF80
A880
B040
ENDCHAR
STARTCHAR 3388
ENCODING 13192
SWIDTH 960 0
DWIDTH 12 0
BBX 11 9 0 0
BITMAP
0060
00A0
00A0
6EA0
9AA0
8AA0
8AC0
9A40
6EE0
ENDCHAR
STARTCHAR 3389
ENCODING 13193
SWIDTH 960 0
DWIDTH 12 0
BBX 11 9 0 0
BITMAP
0020
8060
8060
BB60
D7A0
D560
D560
D340
BB60
ENDCHAR
STARTCHAR 338A
ENCODING 13194
SWIDTH 960 0
DWIDTH 12 0
BBX 9 10 1 -2
BITMAP
0780
0400
F400
9780
8C00
8C00
9400
F400
8000
8000
ENDCHAR
STARTCHAR 338B
ENCODING 13195
SWIDTH 960 0
DWIDTH 12 0
BBX 8 8 2 0
BITMAP
0F
08
E8
AF
A8
A8
A8
28
ENDCHAR
STARTCHAR 338C
ENCODING 13196
SWIDTH 960 0
DWIDTH 12 0
BBX 9 9 1 -1
BITMAP
0780
0400
9400
9780
9400
9400
9400
F400
8000
ENDCHAR
STARTCHAR 338D
ENCODING 13197
SWIDTH 960 0
DWIDTH 12 0
BBX 9 8 1 -2
BITMAP
8B80
9480
9480
9480
9480
F380
8480
0380
ENDCHAR
STARTCHAR 338E
ENCODING 13198
SWIDTH 960 0
DWIDTH 12 0
BBX 9 8 1 -2
BITMAP
F380
AC80
AC80
AC80
AC80
AB80
0080
0380
ENDCHAR
STARTCHAR 338F
ENCODING 13199
SWIDTH 960 0
DWIDTH 12 0
BBX 8 10 2 -2
BITMAP
80
80
A7
C9
C9
C9
A9
07
09
06
ENDCHAR
STARTCHAR 3390
ENCODING 13200
SWIDTH 960 0
DWIDTH 12 0
BBX 10 8 1 0
BITMAP
8800
8800
8B80
F880
8900
8A00
8A00
8BC0
ENDCHAR
STARTCHAR 3391
ENCODING 13201
SWIDTH 960 0
DWIDTH 12 0
BBX 10 8 1 0
BITMAP
9200
9200
B2C0
CE80
9280
D280
B300
22C0
ENDCHAR
STARTCHAR 3392
ENCODING 13202
SWIDTH 960 0
DWIDTH 12 0
BBX 10 8 1 0
BITMAP
9A00
9A00
BAC0
BE40
BA80
DA80
DA80
58C0
ENDCHAR
STARTCHAR 3393
ENCODING 13203
SWIDTH 960 0
DWIDTH 12 0
BBX 11 9 0 0
BITMAP
2000
5500
8500
8560
8720
9540
9540
9540
6460
ENDCHAR
STARTCHAR 3394
ENCODING 13204
SWIDTH 960 0
DWIDTH 12 0
BBX 10 8 1 0
BITMAP
F200
5200
52C0
4E80
5280
5280
5300
42C0
ENDCHAR
STARTCHAR 3395
ENCODING 13205
SWIDTH 960 0
DWIDTH 12 0
BBX 10 10 1 -1
BITMAP
0180
0280
0280
8C80
9480
9480
9280
9300
F740
8080
ENDCHAR
STARTCHAR 3396
ENCODING 13206
SWIDTH 960 0
DWIDTH 12 0
BBX 10 9 1 0
BITMAP
0180
0280
0240
FA40
AA80
AA80
AA80
AB00
2BC0
ENDCHAR
STARTCHAR 3397
ENCODING 13207
SWIDTH 960 0
DWIDTH 12 0
BBX 9 9 1 0
BITMAP
1180
1280
1480
7480
9480
9480
9500
9300
7780
ENDCHAR
STARTCHAR 3398
ENCODING 13208
SWIDTH 960 0
DWIDTH 12 0
BBX 10 9 1 0
BITMAP
0180
8280
8480
9480
A480
C480
A500
9300
97C0
ENDCHAR
STARTCHAR 3399
ENCODING 13209
SWIDTH 960 0
DWIDTH 12 0
BBX 8 9 2 0
BITMAP
40
80
80
DF
95
95
95
95
95
ENDCHAR
STARTCHAR 339A
ENCODING 13210
SWIDTH 960 0
DWIDTH 12 0
BBX 10 6 1 0
BITMAP
EF80
9A80
9A40
9A40
9A40
9840
ENDCHAR
STARTCHAR 339B
ENCODING 13211
SWIDTH 960 0
DWIDTH 12 0
BBX 11 7 0 -1
BITMAP
4BE0
4AA0
4AA0
4AA0
52A0
6AA0
8000
ENDCHAR
STARTCHAR 339C
ENCODING 13212
SWIDTH 960 0
DWIDTH 12 0
BBX 10 6 1 0
BITMAP
F7C0
D540
D540
D540
D540
0540
ENDCHAR
STARTCHAR 339D
ENCODING 13213
SWIDTH 960 0
DWIDTH 12 0
BBX 10 6 1 0
BITMAP
F7C0
9540
8540
8540
9540
F540
ENDCHAR
STARTCHAR 339E
ENCODING 13214
SWIDTH 960 0
DWIDTH 12 0
BBX 9 8 1 0
BITMAP
8000
8000
9780
AA80
CA80
AA80
AA80
9000
ENDCHAR
STARTCHAR 339F
ENCODING 13215
SWIDTH 960 0
DWIDTH 12 0
BBX 11 9 0 0
BITMAP
0020
0020
0040
F7E0
B680
B680
B680
B680
A480
ENDCHAR
STARTCHAR 33A0
ENCODING 13216
SWIDTH 960 0
DWIDTH 12 0
BBX 11 9 0 0
BITMAP
0020
0020
0040
77E0
8A80
8A80
8A80
8A80
7080
ENDCHAR
STARTCHAR 33A1
ENCODING 13217
SWIDTH 960 0
DWIDTH 12 0
BBX 8 9 2 0
BITMAP
01
01
02
FF
A4
A4
A4
A4
84
ENDCHAR
STARTCHAR 33A2
ENCODING 13218
SWIDTH 960 0
DWIDTH 12 0
BBX 10 9 1 0
BITMAP
0040
8040
8080
AFC0
CD00
8D00
CD00
AD00
2900
ENDCHAR
STARTCHAR 33A3
ENCODING 13219
SWIDTH 960 0
DWIDTH 12 0
BBX 11 9 0 0
BITMAP
0060
0020
0020
F7E0
B680
B680
B680
B680
A480
ENDCHAR
STARTCHAR 33A4
ENCODING 13220
SWIDTH 960 0
DWIDTH 12 0
BBX 11 9 0 0
BITMAP
0060
0020
0020
77E0
8A80
8A80
8A80
8A80
7080
ENDCHAR
STARTCHAR 33A5
ENCODING 13221
SWIDTH 960 0
DWIDTH 12 0
BBX 8 9 2 0
BITMAP
03
01
01
FB
A4
A4
A4
A4
24
ENDCHAR
STARTCHAR 33A6
ENCODING 13222
SWIDTH 960 0
DWIDTH 12 0
BBX 10 9 1 0
BITMAP
00C0
8040
8040
AFC0
CD00
8D00
CD00
AD00
2900
ENDCHAR
STARTCHAR 33A7
ENCODING 13223
SWIDTH 960 0
DWIDTH 12 0
BBX 9 9 1 0
BITMAP
5000
F080
D100
D200
0400
0B80
1200
2180
4680
ENDCHAR
STARTCHAR 33A8
ENCODING 13224
SWIDTH 960 0
DWIDTH 12 0
BBX 10 10 1 -1
BITMAP
7000
D180
D200
D440
1840
1700
2400
4300
8100
0600
ENDCHAR
STARTCHAR 33A9
ENCODING 13225
SWIDTH 960 0
DWIDTH 12 0
BBX 9 9 1 0
BITMAP
E000
9000
8800
8F80
9480
E480
8480
8480
8380
ENDCHAR
STARTCHAR 33AA
ENCODING 13226
SWIDTH 960 0
DWIDTH 12 0
BBX 11 8 0 0
BITMAP
8E00
8900
A9E0
AAA0
CCA0
A8A0
A8A0
88E0
ENDCHAR
STARTCHAR 33AB
ENCODING 13227
SWIDTH 960 0
DWIDTH 12 0
BBX 11 8 0 0
BITMAP
9700
9500
D5E0
F5A0
F6A0
F4A0
B4A0
A4E0
ENDCHAR
STARTCHAR 33AC
ENCODING 13228
SWIDTH 960 0
DWIDTH 12 0
BBX 11 9 0 0
BITMAP
2000
5F00
8900
89E0
89A0
8EA0
98A0
98A0
6060
ENDCHAR
STARTCHAR 33AD
ENCODING 13229
SWIDTH 960 0
DWIDTH 12 0
BBX 10 8 1 0
BITMAP
0040
0040
DDC0
A640
A640
A640
A640
1DC0
ENDCHAR
STARTCHAR 33AE
ENCODING 13230
SWIDTH 960 0
DWIDTH 12 0
BBX 11 9 0 0
BITMAP
FE00
AA60
AE80
1100
0200
0480
0840
1040
2080
ENDCHAR
STARTCHAR 33AF
ENCODING 13231
SWIDTH 960 0
DWIDTH 12 0
BBX 11 9 0 0
BITMAP
B600
BA60
BE80
0120
0200
0500
0880
1080
2100
ENDCHAR
STARTCHAR 33B0
ENCODING 13232
SWIDTH 960 0
DWIDTH 12 0
BBX 10 8 1 -2
BITMAP
F380
9400
8A00
8980
9440
D280
A100
8000
ENDCHAR
STARTCHAR 33B1
ENCODING 13233
SWIDTH 960 0
DWIDTH 12 0
BBX 9 6 1 0
BITMAP
F780
9400
9600
9180
9480
8780
ENDCHAR
STARTCHAR 33B2
ENCODING 13234
SWIDTH 960 0
DWIDTH 12 0
BBX 9 7 1 -1
BITMAP
4B80
9400
9200
9180
9480
FE80
8100
ENDCHAR
STARTCHAR 33B3
ENCODING 13235
SWIDTH 960 0
DWIDTH 12 0
BBX 10 6 1 0
BITMAP
F380
AC00
AA00
A980
AC40
AB80
ENDCHAR
STARTCHAR 33B4
ENCODING 13236
SWIDTH 960 0
DWIDTH 12 0
BBX 9 10 1 -2
BITMAP
0880
0880
E880
9500
9500
9500
9500
E200
8000
8000
ENDCHAR
STARTCHAR 33B5
ENCODING 13237
SWIDTH 960 0
DWIDTH 12 0
BBX 9 8 1 0
BITMAP
1080
0880
E880
9900
9500
9500
9600
9200
ENDCHAR
STARTCHAR 33B6
ENCODING 13238
SWIDTH 960 0
DWIDTH 12 0
BBX 10 9 1 -1
BITMAP
0840
0880
9880
9480
9500
A500
A300
D200
8000
ENDCHAR
STARTCHAR 33B7
ENCODING 13239
SWIDTH 960 0
DWIDTH 12 0
BBX 10 8 1 0
BITMAP
0840
0880
F880
D480
D500
D500
D300
0200
ENDCHAR
STARTCHAR 33B8
ENCODING 13240
SWIDTH 960 0
DWIDTH 12 0
BBX 10 8 1 0
BITMAP
8840
8880
A880
A480
C500
A500
A300
9200
ENDCHAR
STARTCHAR 33B9
ENCODING 13241
SWIDTH 960 0
DWIDTH 12 0
BBX 10 8 1 0
BITMAP
8C40
8A40
9A80
DA80
DA80
E980
E980
2900
ENDCHAR
STARTCHAR 33BA
ENCODING 13242
SWIDTH 960 0
DWIDTH 12 0
BBX 10 10 1 -2
BITMAP
1240
1640
F680
B580
B580
AD80
A980
A880
C000
8000
ENDCHAR
STARTCHAR 33BB
ENCODING 13243
SWIDTH 960 0
DWIDTH 12 0
BBX 10 8 1 0
BITMAP
1240
1640
F680
B580
B580
AD80
A980
2880
ENDCHAR
STARTCHAR 33BC
ENCODING 13244
SWIDTH 960 0
DWIDTH 12 0
BBX 11 9 0 -1
BITMAP
0920
05A0
55A0
56A0
56C0
56C0
92C0
7240
8000
ENDCHAR
STARTCHAR 33BD
ENCODING 13245
SWIDTH 960 0
DWIDTH 12 0
BBX 10 8 1 0
BITMAP
1240
0B40
FB40
DD40
DD80
DD80
D580
5480
ENDCHAR
STARTCHAR 33BE
ENCODING 13246
SWIDTH 960 0
DWIDTH 12 0
BBX 10 8 1 0
BITMAP
9240
8B40
AB40
CD80
CD80
CD80
A480
8480
ENDCHAR
STARTCHAR 33BF
ENCODING 13247
SWIDTH 960 0
DWIDTH 12 0
BBX 10 8 1 0
BITMAP
9940
9940
9740
B740
B740
B680
D280
5280
ENDCHAR
STARTCHAR 33C0
ENCODING 13248
SWIDTH 960 0
DWIDTH 12 0
BBX 8 9 2 0
BITMAP
06
89
91
B1
D1
91
C9
C6
2F
ENDCHAR
STARTCHAR 33C1
ENCODING 13249
SWIDTH 960 0
DWIDTH 12 0
BBX 10 9 1 0
BITMAP
0100
8AC0
9C40
9C40
9C40
EC40
EA40
AA80
2AC0
ENDCHAR
STARTCHAR 33C2
ENCODING 13250
SWIDTH 960 0
DWIDTH 12 0
BBX 12 7 0 -1
BITMAP
73C0
1540
3520
5520
9520
7020
0010
ENDCHAR
STARTCHAR 33C3
ENCODING 13251
SWIDTH 960 0
DWIDTH 12 0
BBX 9 10 1 -2
BITMAP
F000
9000
9380
E480
9480
8C80
8C80
F280
0180
0080
ENDCHAR
STARTCHAR 33C4
ENCODING 13252
SWIDTH 960 0
DWIDTH 12 0
BBX 10 6 1 0
BITMAP
F380
8440
8400
8400
8440
F380
ENDCHAR
STARTCHAR 33C5
ENCODING 13253
SWIDTH 960 0
DWIDTH 12 0
BBX 9 8 1 0
BITMAP
0080
0080
F380
9480
8480
8480
8480
F380
ENDCHAR
STARTCHAR 33C6
ENCODING 13254
SWIDTH 960 0
DWIDTH 12 0
BBX 11 11 0 -2
BITMAP
3080
4100
4200
4400
3800
1400
2560
46A0
86A0
0060
0040
ENDCHAR
STARTCHAR 33C7
ENCODING 13255
SWIDTH 960 0
DWIDTH 12 0
BBX 11 10 1 -1
BITMAP
7000
8800
8000
8380
8480
8440
8480
8480
7B80
0060
ENDCHAR
STARTCHAR 33C8
ENCODING 13256
SWIDTH 960 0
DWIDTH 12 0
BBX 9 8 1 0
BITMAP
1780
1480
7480
9700
9480
9480
9480
6780
ENDCHAR
STARTCHAR 33C9
ENCODING 13257
SWIDTH 960 0
DWIDTH 12 0
BBX 10 11 1 -2
BITMAP
2000
D000
8800
8440
8280
9A80
8A80
8980
7900
0100
0100
ENDCHAR
STARTCHAR 33CA
ENCODING 13258
SWIDTH 960 0
DWIDTH 12 0
BBX 9 8 1 0
BITMAP
8000
8000
F380
9480
9480
9480
9480
8780
ENDCHAR
STARTCHAR 33CB
ENCODING 13259
SWIDTH 960 0
DWIDTH 12 0
BBX 8 8 2 0
BITMAP
9E
92
91
92
FC
90
90
90
ENDCHAR
STARTCHAR 33CF
ENCODING 13263
SWIDTH 960 0
DWIDTH 12 0
BBX 7 8 2 0
BITMAP
80
84
96
A4
C4
A4
A4
92
ENDCHAR
STARTCHAR 33D0
ENCODING 13264
SWIDTH 960 0
DWIDTH 12 0
BBX 10 9 1 0
BITMAP
6000
9000
9000
97C0
9940
A940
A940
C940
F140
ENDCHAR
STARTCHAR 33D3
ENCODING 13267
SWIDTH 960 0
DWIDTH 12 0
BBX 9 9 1 0
BITMAP
6000
9000
9000
9480
9300
A100
A300
C480
F400
ENDCHAR
STARTCHAR 33D6
ENCODING 13270
SWIDTH 960 0
DWIDTH 12 0
BBX 11 9 0 0
BITMAP
0060
00A0
00A0
F6A0
D9A0
D9A0
D9C0
D940
96E0
ENDCHAR
STARTCHAR 33D8
ENCODING 13272
SWIDTH 960 0
DWIDTH 12 0
BBX 11 8 1 -2
BITMAP
E780
9A80
9A40
9A40
AA40
E040
9020
8000
ENDCHAR
STARTCHAR 33DB
ENCODING 13275
SWIDTH 960 0
DWIDTH 12 0
BBX 9 6 1 0
BITMAP
7380
8200
4200
3A00
8A00
7200
ENDCHAR
STARTCHAR 33DC
ENCODING 13276
SWIDTH 960 0
DWIDTH 12 0
BBX 10 9 1 0
BITMAP
6000
9000
8800
8440
6280
1A80
0A80
8980
F100
ENDCHAR
STARTCHAR 33DD
ENCODING 13277
SWIDTH 960 0
DWIDTH 12 0
BBX 10 8 1 0
BITMAP
AC00
EC00
EF80
EA40
F240
5240
5240
5180
ENDCHAR
STARTCHAR 4E00
ENCODING 19968
SWIDTH 960 0
DWIDTH 12 0
BBX 9 1 2 4
BITMAP
FF80
ENDCHAR
STARTCHAR 4E01
ENCODING 19969
SWIDTH 960 0
DWIDTH 12 0
BBX 10 9 1 -1
BITMAP
FFC0
0400
0400
0400
0400
0400
0400
0400
1C00
ENDCHAR
STARTCHAR 4E03
ENCODING 19971
SWIDTH 960 0
DWIDTH 12 0
BBX 10 10 1 -1
BITMAP
1000
1000
1000
10C0
7F00
9000
1000
1000
1080
1F80
ENDCHAR
STARTCHAR 4E07
ENCODING 19975
SWIDTH 960 0
DWIDTH 12 0
BBX 9 9 2 -1
BITMAP
FF80
1000
1000
2F00
2100
2100
4100
4200
8600
ENDCHAR
STARTCHAR 4E08
ENCODING 19976
SWIDTH 960 0
DWIDTH 12 0
BBX 10 10 1 -1
BITMAP
0400
0400
7FC0
0400
2400
1400
1400
0800
1600
E1C0
ENDCHAR
STARTCHAR 4E09
ENCODING 19977
SWIDTH 960 0
DWIDTH 12 0
BBX 10 9 1 -1
BITMAP
7F80
0000
0000
0000
3F00
0000
0000
0000
FFC0
ENDCHAR
STARTCHAR 4E0A
ENCODING 19978
SWIDTH 960 0
DWIDTH 12 0
BBX 10 10 1 -1
BITMAP
0800
0800
0800
0800
0780
0800
0800
0800
0800
FFC0
ENDCHAR
STARTCHAR 4E0B
ENCODING 19979
SWIDTH 960 0
DWIDTH 12 0
BBX 9 9 2 -1
BITMAP
FF80
1000
1000
1C00
1300
1000
1000
1000
1000
ENDCHAR
STARTCHAR 4E0D
ENCODING 19981
SWIDTH 960 0
DWIDTH 12 0
BBX 10 10 1 -1
BITMAP
7FC0
0400
0800
1A00
2900
4880
8840
0800
0800
0800
ENDCHAR
STARTCHAR 4E11
ENCODING 19985
SWIDTH 960 0
DWIDTH 12 0
BBX 10 9 1 -1
BITMAP
3F00
0900
0900
1100
7FC0
1100
1100
1100
FFC0
ENDCHAR
STARTCHAR 4E14
ENCODING 19988
SWIDTH 960 0
DWIDTH 12 0
BBX 10 9 1 -1
BITMAP
3F00
2100
2100
3F00
2100
2100
3F00
2100
FFC0
ENDCHAR
STARTCHAR 4E15
ENCODING 19989
SWIDTH 960 0
DWIDTH 12 0
BBX 10 10 1 -1
BITMAP
7FC0
0400
0800
1B00
2880
C840
0800
0800
0000
FFC0
ENDCHAR
STARTCHAR 4E16
ENCODING 19990
SWIDTH 960 0
DWIDTH 12 0
BBX 10 10 1 -1
BITMAP
4900
4900
4900
4900
FFC0
4900
4900
4F00
4000
3FC0
ENDCHAR
STARTCHAR 4E18
ENCODING 19992
SWIDTH 960 0
DWIDTH 12 0
BBX 10 10 1 -1
BITMAP
0080
7F00
4000
4000
4000
7F80
4400
4400
2400
FFC0
ENDCHAR
STARTCHAR 4E19
ENCODING 19993
SWIDTH 960 0
DWIDTH 12 0
BBX 10 9 1 -1
BITMAP
7FC0
0800
FF80
8880
8C80
9280
A180
8080
8180
ENDCHAR
STARTCHAR 4E1E
ENCODING 19998
SWIDTH 960 0
DWIDTH 12 0
BBX 10 10 1 -1
BITMAP
3F00
0200
0400
7C80
1B00
2900
4880
8840
1800
7F80
ENDCHAR
STARTCHAR 4E2D
ENCODING 20013
SWIDTH 960 0
DWIDTH 12 0
BBX 9 10 2 -1
BITMAP
0800
0800
1000
FF80
9080
9080
FF80
1000
1000
1000
ENDCHAR
STARTCHAR 4E32
ENCODING 20018
SWIDTH 960 0
DWIDTH 12 0
BBX 9 10 2 -1
BITMAP
0800
FF00
8900
8900
7E00
FF80
8880
8880
7F00
0800
ENDCHAR
STARTCHAR 4E38
ENCODING 20024
SWIDTH 960 0
DWIDTH 12 0
BBX 10 10 1 -1
BITMAP
1000
1000
7F00
1100
1100
3100
1200
2A00
2240
C1C0
ENDCHAR
STARTCHAR 4E39
ENCODING 20025
SWIDTH 960 0
DWIDTH 12 0
BBX 10 10 1 -1
BITMAP
3F00
2100
2900
2500
2100
7FC0
2100
4100
4100
C300
ENDCHAR
STARTCHAR 4E3B
ENCODING 20027
SWIDTH 960 0
DWIDTH 12 0
BBX 9 10 2 -1
BITMAP
0800
0800
FF80
0800
0800
0800
7F00
0800
0800
FF80
ENDCHAR
STARTCHAR 4E42
ENCODING 20034
SWIDTH 960 0
DWIDTH 12 0
BBX 10 10 1 -1
BITMAP
2100
6100
A100
1200
1200
0C00
0400
1A00
2100
C0C0
ENDCHAR
STARTCHAR 4E43
ENCODING 20035
SWIDTH 960 0
DWIDTH 12 0
BBX 9 10 2 -1
BITMAP
FE00
2200
2400
2400
2380
2080
2080
4080
4100
8300
ENDCHAR
STARTCHAR 4E45
ENCODING 20037
SWIDTH 960 0
DWIDTH 12 0
BBX 11 10 1 -1
BITMAP
1000
1E00
2200
4400
8400
0A00
0A00
1100
2080
C060
ENDCHAR
STARTCHAR 4E4B
ENCODING 20043
SWIDTH 960 0
DWIDTH 12 0
BBX 10 10 1 -1
BITMAP
0800
0800
7F80
0100
0200
0400
0800
7000
6000
9FC0
ENDCHAR
STARTCHAR 4E4D
ENCODING 20045
SWIDTH 960 0
DWIDTH 12 0
BBX 9 10 2 -1
BITMAP
2000
4000
7F80
8800
0F00
0800
0800
0F00
0800
0800
ENDCHAR
STARTCHAR 4E4E
ENCODING 20046
SWIDTH 960 0
DWIDTH 12 0
BBX 10 10 1 -1
BITMAP
0380
7C00
4880
2900
2A00
FFC0
0800
0800
0800
1800
ENDCHAR
STARTCHAR 4E4F
ENCODING 20047
SWIDTH 960 0
DWIDTH 12 0
BBX 10 10 1 -1
BITMAP
0180
7E00
0800
7F80
0100
0200
0C00
1000
6000
9FC0
ENDCHAR
STARTCHAR 4E56
ENCODING 20054
SWIDTH 960 0
DWIDTH 12 0
BBX 10 10 1 -1
BITMAP
0700
3800
0800
7FC0
1A00
FA00
1AC0
1B00
FA40
19C0
ENDCHAR
STARTCHAR 4E58
ENCODING 20056
SWIDTH 960 0
DWIDTH 12 0
BBX 10 10 1 -1
BITMAP
0380
3C00
FFC0
1A00
7B80
1A40
EDC0
1A00
2980
C840
ENDCHAR
STARTCHAR 4E59
ENCODING 20057
SWIDTH 960 0
DWIDTH 12 0
BBX 9 9 2 -1
BITMAP
FE00
0400
0800
3000
4000
8000
8080
8080
7F00
ENDCHAR
STARTCHAR 4E5D
ENCODING 20061
SWIDTH 960 0
DWIDTH 12 0
BBX 10 10 1 -1
BITMAP
0800
1000
7F00
1100
1100
1100
1200
2200
2240
C1C0
ENDCHAR
STARTCHAR 4E5E
ENCODING 20062
SWIDTH 960 0
DWIDTH 12 0
BBX 10 10 1 -1
BITMAP
1000
3F80
4000
8000
1F00
0400
1800
2000
4040
3FC0
ENDCHAR
STARTCHAR 4E5F
ENCODING 20063
SWIDTH 960 0
DWIDTH 12 0
BBX 10 10 1 -1
BITMAP
0400
2400
2580
3E80
E480
2480
2480
2500
2440
3FC0
ENDCHAR
STARTCHAR 4E6B
ENCODING 20075
SWIDTH 960 0
DWIDTH 12 0
BBX 10 10 1 0
BITMAP
2000
7FC0
4C40
4C40
93C0
7F00
0600
1800
6040
7FC0
ENDCHAR
STARTCHAR 4E6D
ENCODING 20077
SWIDTH 960 0
DWIDTH 12 0
BBX 10 10 1 -1
BITMAP
FFC0
2000
3F80
E080
3F80
0000
3F00
1800
6040
7FC0
ENDCHAR
STARTCHAR 4E73
ENCODING 20083
SWIDTH 960 0
DWIDTH 12 0
BBX 11 10 1 -1
BITMAP
1800
EA00
A600
0200
7A00
1200
3E00
E200
2220
63C0
ENDCHAR
STARTCHAR 4E76
ENCODING 20086
SWIDTH 960 0
DWIDTH 12 0
BBX 10 10 1 -1
BITMAP
0900
FEC0
7F80
7F80
7F80
4880
0000
7F00
7000
7FC0
ENDCHAR
STARTCHAR 4E77
ENCODING 20087
SWIDTH 960 0
DWIDTH 12 0
BBX 10 10 1 -1
BITMAP
4200
8A80
4AC0
2300
4600
9800
7F00
1800
6000
7FC0
ENDCHAR
STARTCHAR 4E7E
ENCODING 20094
SWIDTH 960 0
DWIDTH 12 0
BBX 11 10 1 -1
BITMAP
2200
FBC0
4400
B000
F380
9100
F200
4200
F420
47C0
ENDCHAR
STARTCHAR 4E82
ENCODING 20098
SWIDTH 960 0
DWIDTH 12 0
BBX 11 10 1 -1
BITMAP
7D00
A500
7F00
3100
FF00
AB00
D300
FB00
B320
EFC0
ENDCHAR
STARTCHAR 4E86
ENCODING 20102
SWIDTH 960 0
DWIDTH 12 0
BBX 7 10 3 -1
BITMAP
FE
02
04
18
10
10
10
10
10
30
ENDCHAR
STARTCHAR 4E88
ENCODING 20104
SWIDTH 960 0
DWIDTH 12 0
BBX 10 10 1 -1
BITMAP
3F80
0100
1600
0800
FFC0
0880
0800
0800
0800
1800
ENDCHAR
STARTCHAR 4E8B
ENCODING 20107
SWIDTH 960 0
DWIDTH 12 0
BBX 10 11 1 -2
BITMAP
0400
7FC0
7F80
4480
3F00
7F80
0480
FFC0
7F80
0400
0800
ENDCHAR
STARTCHAR 4E8C
ENCODING 20108
SWIDTH 960 0
DWIDTH 12 0
BBX 10 7 1 0
BITMAP
7F80
0000
0000
0000
0000
0000
FFC0
ENDCHAR
STARTCHAR 4E8E
ENCODING 20110
SWIDTH 960 0
DWIDTH 12 0
BBX 10 9 1 -1
BITMAP
3F80
0400
0400
FFC0
0400
0400
0400
0400
0C00
ENDCHAR
STARTCHAR 4E90
ENCODING 20112
SWIDTH 960 0
DWIDTH 12 0
BBX 10 10 1 -1
BITMAP
7F80
1000
1000
FFC0
2000
3F80
0080
0080
0100
0700
ENDCHAR
STARTCHAR 4E91
ENCODING 20113
SWIDTH 960 0
DWIDTH 12 0
BBX 10 9 1 -1
BITMAP
3F00
0000
FFC0
1000
1000
2100
2080
2780
D840
ENDCHAR
STARTCHAR 4E92
ENCODING 20114
SWIDTH 960 0
DWIDTH 12 0
BBX 10 9 1 -1
BITMAP
7F80
2000
1F00
2100
2100
2100
1F00
0200
FFC0
ENDCHAR
STARTCHAR 4E94
ENCODING 20116
SWIDTH 960 0
DWIDTH 12 0
BBX 10 9 1 -1
BITMAP
7F80
0800
0800
0800
3700
1100
1100
1100
FFC0
ENDCHAR
STARTCHAR 4E95
ENCODING 20117
SWIDTH 960 0
DWIDTH 12 0
BBX 10 10 1 -1
BITMAP
1200
1200
FFC0
1200
1200
1200
7FC0
2200
2200
4200
ENDCHAR
STARTCHAR 4E98
ENCODING 20120
SWIDTH 960 0
DWIDTH 12 0
BBX 9 9 2 -1
BITMAP
FF00
0000
7E00
4200
7E00
4200
4200
3C00
FF80
ENDCHAR
STARTCHAR 4E9B
ENCODING 20123
SWIDTH 960 0
DWIDTH 12 0
BBX 10 10 1 -1
BITMAP
2400
2400
6380
7C00
6400
5A40
A180
3F80
0000
FFC0
ENDCHAR
STARTCHAR 4E9E
ENCODING 20126
SWIDTH 960 0
DWIDTH 12 0
BBX 10 10 1 -1
BITMAP
FFC0
1200
1200
7380
8080
8080
8080
7300
1200
FFC0
ENDCHAR
STARTCHAR 4EA1
ENCODING 20129
SWIDTH 960 0
DWIDTH 12 0
BBX 10 10 1 -1
BITMAP
0400
0400
FFC0
4000
4000
4000
4000
4000
4000
3F80
ENDCHAR
STARTCHAR 4EA2
ENCODING 20130
SWIDTH 960 0
DWIDTH 12 0
BBX 10 10 1 -1
BITMAP
0800
FFC0
0000
1E00
2200
2200
2200
2200
2200
41C0
ENDCHAR
STARTCHAR 4EA4
ENCODING 20132
SWIDTH 960 0
DWIDTH 12 0
BBX 10 10 1 -1
BITMAP
0800
7FC0
1000
2100
C2C0
1200
1400
0C00
1200
E1C0
ENDCHAR
STARTCHAR 4EA5
ENCODING 20133
SWIDTH 960 0
DWIDTH 12 0
BBX 10 10 1 -1
BITMAP
0800
FFC0
1000
1200
3400
0900
1200
E600
0900
70C0
ENDCHAR
STARTCHAR 4EA6
ENCODING 20134
SWIDTH 960 0
DWIDTH 12 0
BBX 10 10 1 -1
BITMAP
0400
0800
77C0
1200
5280
5280
9240
2200
2200
C600
ENDCHAR
STARTCHAR 4EA8
ENCODING 20136
SWIDTH 960 0
DWIDTH 12 0
BBX 9 10 2 -1
BITMAP
1000
EF80
7F00
8100
7F00
0000
7F00
0C00
1000
3000
ENDCHAR
STARTCHAR 4EAB
ENCODING 20139
SWIDTH 960 0
DWIDTH 12 0
BBX 10 10 1 -1
BITMAP
0800
FFC0
3F80
4080
3F00
3F00
0200
FFC0
0800
0800
ENDCHAR
STARTCHAR 4EAC
ENCODING 20140
SWIDTH 960 0
DWIDTH 12 0
BBX 10 10 1 -1
BITMAP
0400
FFC0
0000
3F00
2100
2100
1E00
2500
4880
8840
ENDCHAR
STARTCHAR 4EAD
ENCODING 20141
SWIDTH 960 0
DWIDTH 12 0
BBX 10 10 1 -1
BITMAP
0400
7BC0
3F80
4080
3F80
FFC0
8040
3F00
0400
0C00
ENDCHAR
STARTCHAR 4EAE
ENCODING 20142
SWIDTH 960 0
DWIDTH 12 0
BBX 10 10 1 -1
BITMAP
0400
FFC0
3F00
2100
3F00
FFC0
9240
1200
1200
63C0
ENDCHAR
STARTCHAR 4EB6
ENCODING 20150
SWIDTH 960 0
DWIDTH 12 0
BBX 10 10 1 -1
BITMAP
0800
77C0
7F80
7F80
5F80
7F80
3F00
3F00
3F00
FFC0
ENDCHAR
STARTCHAR 4EBA
ENCODING 20154
SWIDTH 960 0
DWIDTH 12 0
BBX 10 9 1 0
BITMAP
0800
0800
0800
0C00
0C00
1200
2100
6080
8040
ENDCHAR
STARTCHAR 4EC0
ENCODING 20160
SWIDTH 960 0
DWIDTH 12 0
BBX 10 10 1 -1
BITMAP
2200
4200
4200
4200
CFC0
4200
4200
4200
4200
4200
ENDCHAR
STARTCHAR 4EC1
ENCODING 20161
SWIDTH 960 0
DWIDTH 12 0
BBX 10 10 1 -1
BITMAP
2000
4000
4000
4F80
C000
4000
4000
4000
4000
5FC0
ENDCHAR
STARTCHAR 4EC4
ENCODING 20164
SWIDTH 960 0
DWIDTH 12 0
BBX 11 10 1 -1
BITMAP
7FE0
8000
8400
8400
8400
8600
8A00
8900
9080
A040
ENDCHAR
STARTCHAR 4EC7
ENCODING 20167
SWIDTH 960 0
DWIDTH 12 0
BBX 11 10 1 -1
BITMAP
4400
4400
5F00
C500
C500
4500
4500
4900
4920
50C0
ENDCHAR
STARTCHAR 4ECA
ENCODING 20170
SWIDTH 960 0
DWIDTH 12 0
BBX 12 10 0 -1
BITMAP
0400
0A00
0900
30C0
CFB0
0000
1F80
0080
0080
0100
ENDCHAR
STARTCHAR 4ECB
ENCODING 20171
SWIDTH 960 0
DWIDTH 12 0
BBX 10 10 1 -1
BITMAP
0800
0C00
1200
6180
9240
1200
1200
1200
2200
4200
ENDCHAR
STARTCHAR 4ECD
ENCODING 20173
SWIDTH 960 0
DWIDTH 12 0
BBX 10 10 1 -1
BITMAP
5F80
4480
4480
C500
C4C0
4440
4840
4840
5040
51C0
ENDCHAR
STARTCHAR 4ED4
ENCODING 20180
SWIDTH 960 0
DWIDTH 12 0
BBX 10 10 1 -1
BITMAP
2F80
4080
4100
4200
C200
5FC0
4200
4200
4200
4600
ENDCHAR
STARTCHAR 4ED5
ENCODING 20181
SWIDTH 960 0
DWIDTH 12 0
BBX 11 10 1 -1
BITMAP
2200
4200
4200
4200
DFE0
4200
4200
4200
4200
4FC0
ENDCHAR
STARTCHAR 4ED6
ENCODING 20182
SWIDTH 960 0
DWIDTH 12 0
BBX 11 10 1 -1
BITMAP
2200
4A00
4A40
4BC0
DE40
4A40
4A40
4A80
4820
4FC0
ENDCHAR
STARTCHAR 4ED7
ENCODING 20183
SWIDTH 960 0
DWIDTH 12 0
BBX 10 10 1 -1
BITMAP
2200
4200
5FC0
4200
CA00
4A00
4600
4400
4600
59C0
ENDCHAR
STARTCHAR 4ED8
ENCODING 20184
SWIDTH 960 0
DWIDTH 12 0
BBX 11 10 1 -1
BITMAP
2080
2080
4080
5FE0
C080
4880
4480
4480
4080
4100
ENDCHAR
STARTCHAR 4ED9
ENCODING 20185
SWIDTH 960 0
DWIDTH 12 0
BBX 10 10 1 -1
BITMAP
2200
2200
4200
4A40
CA40
4A40
4A40
4A40
4A40
4FC0
ENDCHAR
STARTCHAR 4EDD
ENCODING 20189
SWIDTH 960 0
DWIDTH 12 0
BBX 11 10 1 -1
BITMAP
0800
0C00
1200
2180
C060
7F80
0400
0400
0400
7FC0
ENDCHAR
STARTCHAR 4EDF
ENCODING 20191
SWIDTH 960 0
DWIDTH 12 0
BBX 10 11 1 -2
BITMAP
2080
4F00
4200
4200
C200
5FC0
4200
4200
4200
4200
4000
ENDCHAR
STARTCHAR 4EE3
ENCODING 20195
SWIDTH 960 0
DWIDTH 12 0
BBX 10 11 1 -2
BITMAP
2400
4500
4480
4F80
D400
4400
4400
4200
4240
4140
0080
ENDCHAR
STARTCHAR 4EE4
ENCODING 20196
SWIDTH 960 0
DWIDTH 12 0
BBX 12 10 0 -1
BITMAP
0400
0A00
0900
30C0
CF30
0000
3F80
0880
0880
0900
ENDCHAR
STARTCHAR 4EE5
ENCODING 20197
SWIDTH 960 0
DWIDTH 12 0
BBX 10 10 1 -1
BITMAP
0100
0100
4D00
4100
4100
4900
5200
6300
84C0
1800
ENDCHAR
STARTCHAR 4EF0
ENCODING 20208
SWIDTH 960 0
DWIDTH 12 0
BBX 10 10 1 -1
BITMAP
27C0
2940
4940
4940
C940
4940
4940
5D40
4100
4100
ENDCHAR
STARTCHAR 4EF2
ENCODING 20210
SWIDTH 960 0
DWIDTH 12 0
BBX 10 10 1 -1
BITMAP
2200
4200
4200
5FC0
D240
5240
4FC0
4200
4200
4200
ENDCHAR
STARTCHAR 4EF6
ENCODING 20214
SWIDTH 960 0
DWIDTH 12 0
BBX 11 10 1 -1
BITMAP
2200
4A00
4A00
5780
D200
4200
5FE0
4200
4200
4200
ENDCHAR
STARTCHAR 4EF7
ENCODING 20215
SWIDTH 960 0
DWIDTH 12 0
BBX 11 10 1 -1
BITMAP
2200
4200
4500
4880
D160
4900
4900
4900
4900
5100
ENDCHAR
STARTCHAR 4EFB
ENCODING 20219
SWIDTH 960 0
DWIDTH 12 0
BBX 10 10 1 -1
BITMAP
2000
5F80
4200
C200
C200
5FC0
4200
4200
4200
4F80
ENDCHAR
STARTCHAR 4F01
ENCODING 20225
SWIDTH 960 0
DWIDTH 12 0
BBX 11 10 1 -1
BITMAP
0800
0C00
1200
2180
C460
2400
2780
2400
2400
7F80
ENDCHAR
STARTCHAR 4F09
ENCODING 20233
SWIDTH 960 0
DWIDTH 12 0
BBX 11 10 1 -1
BITMAP
2200
5FC0
4000
4700
C900
4900
4900
4900
4920
50C0
ENDCHAR
STARTCHAR 4F0A
ENCODING 20234
SWIDTH 960 0
DWIDTH 12 0
BBX 11 10 1 -1
BITMAP
2F80
4280
4280
5FE0
C280
4280
4F00
4400
4400
5800
ENDCHAR
STARTCHAR 4F0B
ENCODING 20235
SWIDTH 960 0
DWIDTH 12 0
BBX 10 10 1 -1
BITMAP
2F00
4500
4500
4900
C6C0
4C80
4A80
4900
5180
5640
ENDCHAR
STARTCHAR 4F0D
ENCODING 20237
SWIDTH 960 0
DWIDTH 12 0
BBX 11 10 1 -1
BITMAP
2000
4F80
4200
4400
C400
4F80
4480
4480
4480
5FE0
ENDCHAR
STARTCHAR 4F0E
ENCODING 20238
SWIDTH 960 0
DWIDTH 12 0
BBX 10 10 1 -1
BITMAP
2200
4200
5FC0
4200
DF80
4880
4900
4500
4600
59C0
ENDCHAR
STARTCHAR 4F0F
ENCODING 20239
SWIDTH 960 0
DWIDTH 12 0
BBX 10 10 1 -2
BITMAP
2200
4280
4200
5FC0
C200
4600
4500
4900
4880
5040
ENDCHAR
STARTCHAR 4F10
ENCODING 20240
SWIDTH 960 0
DWIDTH 12 0
BBX 10 11 1 -2
BITMAP
2500
4480
4400
5FC0
C400
4480
4300
4200
4600
7940
0080
ENDCHAR
STARTCHAR 4F11
ENCODING 20241
SWIDTH 960 0
DWIDTH 12 0
BBX 11 10 1 -1
BITMAP
2200
4200
4200
CFC0
C700
4700
4A80
5240
4220
4200
ENDCHAR
STARTCHAR 4F2F
ENCODING 20271
SWIDTH 960 0
DWIDTH 12 0
BBX 10 10 1 -1
BITMAP
2200
2200
4FC0
4840
C840
4840
4FC0
4840
4840
4FC0
ENDCHAR
STARTCHAR 4F34
ENCODING 20276
SWIDTH 960 0
DWIDTH 12 0
BBX 10 10 1 -1
BITMAP
2200
4A80
4A40
4200
CF80
4200
5FC0
4200
4200
4200
ENDCHAR
STARTCHAR 4F36
ENCODING 20278
SWIDTH 960 0
DWIDTH 12 0
BBX 10 10 1 -1
BITMAP
2400
4600
4900
50C0
C700
4000
4F80
4480
4480
4500
ENDCHAR
STARTCHAR 4F38
ENCODING 20280
SWIDTH 960 0
DWIDTH 12 0
BBX 10 10 1 -1
BITMAP
2200
4200
4FC0
5240
CFC0
5240
5240
4F80
4200
4200
ENDCHAR
STARTCHAR 4F3A
ENCODING 20282
SWIDTH 960 0
DWIDTH 12 0
BBX 10 10 1 -1
BITMAP
3FC0
4040
5F40
4040
CF40
4940
4940
4F40
4040
40C0
ENDCHAR
STARTCHAR 4F3C
ENCODING 20284
SWIDTH 960 0
DWIDTH 12 0
BBX 11 10 1 -1
BITMAP
2080
4480
4280
5080
D080
5280
4D00
5180
4240
4420
ENDCHAR
STARTCHAR 4F3D
ENCODING 20285
SWIDTH 960 0
DWIDTH 12 0
BBX 11 10 0 -1
BITMAP
2400
28E0
2EA0
6AA0
AAA0
2AA0
2AA0
2AA0
2AA0
36E0
ENDCHAR
STARTCHAR 4F43
ENCODING 20291
SWIDTH 960 0
DWIDTH 12 0
BBX 10 10 1 -1
BITMAP
2000
2FC0
4A40
4A40
CA40
4FC0
4A40
4A40
4A40
4FC0
ENDCHAR
STARTCHAR 4F46
ENCODING 20294
SWIDTH 960 0
DWIDTH 12 0
BBX 10 10 1 -1
BITMAP
2F80
4880
4880
4880
CF80
4880
4880
4F80
4000
4FC0
ENDCHAR
STARTCHAR 4F47
ENCODING 20295
SWIDTH 960 0
DWIDTH 12 0
BBX 10 10 1 -1
BITMAP
2200
2FC0
5040
4000
C000
4FC0
4200
4200
4200
4600
ENDCHAR
STARTCHAR 4F48
ENCODING 20296
SWIDTH 960 0
DWIDTH 12 0
BBX 10 10 1 -1
BITMAP
2400
4400
4FC0
4900
C900
5FC0
5940
4940
4940
49C0
ENDCHAR
STARTCHAR 4F4D
ENCODING 20301
SWIDTH 960 0
DWIDTH 12 0
BBX 10 10 1 -1
BITMAP
2200
2200
4FC0
4000
C880
4880
4900
4500
4500
4F80
ENDCHAR
STARTCHAR 4F4E
ENCODING 20302
SWIDTH 960 0
DWIDTH 12 0
BBX 11 10 1 -1
BITMAP
2180
5E00
5200
5200
DF80
5200
5100
5720
58C0
4F80
ENDCHAR
STARTCHAR 4F4F
ENCODING 20303
SWIDTH 960 0
DWIDTH 12 0
BBX 10 10 1 -1
BITMAP
2200
4200
5FC0
4200
C200
4200
4F80
4200
4200
5FC0
ENDCHAR
STARTCHAR 4F50
ENCODING 20304
SWIDTH 960 0
DWIDTH 12 0
BBX 10 10 1 -1
BITMAP
4400
4400
5FC0
C800
C800
4800
5780
6200
4200
4FC0
ENDCHAR
STARTCHAR 4F51
ENCODING 20305
SWIDTH 960 0
DWIDTH 12 0
BBX 11 10 1 -1
BITMAP
2400
4400
5FE0
4400
C400
4F80
4880
5880
4880
4F80
ENDCHAR
STARTCHAR 4F55
ENCODING 20309
SWIDTH 960 0
DWIDTH 12 0
BBX 10 10 1 -1
BITMAP
5FC0
4080
4080
DE80
D280
5280
5280
4E80
4080
4180
ENDCHAR
STARTCHAR 4F59
ENCODING 20313
SWIDTH 960 0
DWIDTH 12 0
BBX 10 10 1 -1
BITMAP
0800
0E00
1100
60C0
9E00
0800
7F80
2900
4880
8840
ENDCHAR
STARTCHAR 4F5A
ENCODING 20314
SWIDTH 960 0
DWIDTH 12 0
BBX 11 10 1 -1
BITMAP
2200
4A00
4FC0
D200
C200
5FC0
4600
4500
4880
5060
ENDCHAR
STARTCHAR 4F5B
ENCODING 20315
SWIDTH 960 0
DWIDTH 12 0
BBX 10 10 1 -1
BITMAP
2500
5FC0
4540
4540
DF80
5500
4FC0
4540
49C0
5900
ENDCHAR
STARTCHAR 4F5C
ENCODING 20316
SWIDTH 960 0
DWIDTH 12 0
BBX 10 10 1 -1
BITMAP
2400
4800
4FC0
5200
C3C0
4200
4200
43C0
4200
4200
ENDCHAR
STARTCHAR 4F69
ENCODING 20329
SWIDTH 960 0
DWIDTH 12 0
BBX 11 10 1 -1
BITMAP
5F80
5080
5F80
D480
DF80
5D80
5D80
5D80
6EA0
6460
ENDCHAR
STARTCHAR 4F6F
ENCODING 20335
SWIDTH 960 0
DWIDTH 12 0
BBX 10 10 1 -1
BITMAP
2880
2480
4B40
4200
CFC0
4200
4200
5FC0
4200
4200
ENDCHAR
STARTCHAR 4F70
ENCODING 20336
SWIDTH 960 0
DWIDTH 12 0
BBX 10 10 1 -1
BITMAP
2FC0
4200
4200
4FC0
C840
4840
4FC0
4840
4840
4FC0
ENDCHAR
STARTCHAR 4F73
ENCODING 20339
SWIDTH 960 0
DWIDTH 12 0
BBX 11 10 0 -1
BITMAP
1100
2100
27C0
6100
BFE0
2100
2100
2FE0
2100
2FE0
ENDCHAR
STARTCHAR 4F76
ENCODING 20342
SWIDTH 960 0
DWIDTH 12 0
BBX 10 10 1 -1
BITMAP
2200
2200
4FC0
4200
CFC0
4000
4F80
4880
4880
4F80
ENDCHAR
STARTCHAR 4F7A
ENCODING 20346
SWIDTH 960 0
DWIDTH 12 0
BBX 11 10 1 -1
BITMAP
4200
4600
4900
D8C0
E020
4F80
4200
4F80
4200
5FC0
ENDCHAR
STARTCHAR 4F7E
ENCODING 20350
SWIDTH 960 0
DWIDTH 12 0
BBX 11 10 1 -1
BITMAP
4700
4880
4880
FFE0
C880
4F80
4880
4F80
5080
5180
ENDCHAR
STARTCHAR 4F7F
ENCODING 20351
SWIDTH 960 0
DWIDTH 12 0
BBX 10 10 1 -1
BITMAP
2200
5FC0
4200
4FC0
D240
4FC0
4200
4A00
4600
59C0
ENDCHAR
STARTCHAR 4F81
ENCODING 20353
SWIDTH 960 0
DWIDTH 12 0
BBX 10 10 1 -1
BITMAP
2200
4A00
4F80
5200
C200
5FC0
4500
4500
4900
59C0
ENDCHAR
STARTCHAR 4F83
ENCODING 20355
SWIDTH 960 0
DWIDTH 12 0
BBX 11 10 1 -1
BITMAP
2000
4F80
4880
4880
CF80
4A80
4A80
4A80
5280
52E0
ENDCHAR
STARTCHAR 4F84
ENCODING 20356
SWIDTH 960 0
DWIDTH 12 0
BBX 10 10 1 -1
BITMAP
3FC0
4400
4480
4880
DF40
4200
4200
4F80
4200
4FC0
ENDCHAR
STARTCHAR 4F86
ENCODING 20358
SWIDTH 960 0
DWIDTH 12 0
BBX 10 10 1 -1
BITMAP
0400
7FC0
2400
2500
6500
9E80
1600
2500
4480
8440
ENDCHAR
STARTCHAR 4F88
ENCODING 20360
SWIDTH 960 0
DWIDTH 12 0
BBX 10 10 1 -1
BITMAP
2400
4B80
5500
4200
CD00
52C0
4640
4980
4100
4E00
ENDCHAR
STARTCHAR 4F8A
ENCODING 20362
SWIDTH 960 0
DWIDTH 12 0
BBX 10 10 1 -1
BITMAP
2200
4280
4A80
C200
DFC0
4500
4500
4900
4900
59C0
ENDCHAR
STARTCHAR 4F8B
ENCODING 20363
SWIDTH 960 0
DWIDTH 12 0
BBX 10 10 1 -1
BITMAP
2040
5F40
4940
CF40
D340
5D40
6540
4540
4840
50C0
ENDCHAR
STARTCHAR 4F8D
ENCODING 20365
SWIDTH 960 0
DWIDTH 12 0
BBX 10 10 1 -1
BITMAP
2200
4200
4F80
4200
DFC0
4080
5FC0
4880
4480
4180
ENDCHAR
STARTCHAR 4F8F
ENCODING 20367
SWIDTH 960 0
DWIDTH 12 0
BBX 10 10 1 -1
BITMAP
2A00
4A00
4F80
5200
C200
5FC0
4700
4A80
5240
4200
ENDCHAR
STARTCHAR 4F91
ENCODING 20369
SWIDTH 960 0
DWIDTH 12 0
BBX 10 10 1 -1
BITMAP
4200
4200
4DC0
C7C0
C840
57C0
4840
4840
4FC0
48C0
ENDCHAR
STARTCHAR 4F96
ENCODING 20374
SWIDTH 960 0
DWIDTH 12 0
BBX 10 10 1 -1
BITMAP
0800
1400
2300
7FC0
8000
7F80
5280
7F80
5280
5280
ENDCHAR
STARTCHAR 4F98
ENCODING 20376
SWIDTH 960 0
DWIDTH 12 0
BBX 10 10 1 -1
BITMAP
4200
5FC0
6040
C340
CE00
4200
5FC0
4200
4200
43C0
ENDCHAR
STARTCHAR 4F9B
ENCODING 20379
SWIDTH 960 0
DWIDTH 12 0
BBX 11 10 1 -1
BITMAP
2400
4500
4500
4FC0
C500
4500
5FE0
4000
4880
5840
ENDCHAR
STARTCHAR 4F9D
ENCODING 20381
SWIDTH 960 0
DWIDTH 12 0
BBX 10 10 1 -1
BITMAP
4200
4200
5FC0
C200
C640
4980
5900
6900
4880
5E40
ENDCHAR
STARTCHAR 4FAE
ENCODING 20398
SWIDTH 960 0
DWIDTH 12 0
BBX 10 10 1 -1
BITMAP
2800
4FC0
5000
5F80
CA80
4880
4FC0
4A80
4FC0
4180
ENDCHAR
STARTCHAR 4FAF
ENCODING 20399
SWIDTH 960 0
DWIDTH 12 0
BBX 10 10 1 -1
BITMAP
4F80
4080
5FC0
C800
CF80
5200
5FC0
4200
4500
58C0
ENDCHAR
STARTCHAR 4FB5
ENCODING 20405
SWIDTH 960 0
DWIDTH 12 0
BBX 10 10 1 -1
BITMAP
2F80
4080
4FC0
4F80
DFC0
5040
4780
4500
4200
4D80
ENDCHAR
STARTCHAR 4FB6
ENCODING 20406
SWIDTH 960 0
DWIDTH 12 0
BBX 10 10 1 -1
BITMAP
2FC0
2840
4840
4840
C780
4200
4FC0
5040
5040
5FC0
ENDCHAR
STARTCHAR 4FBF
ENCODING 20415
SWIDTH 960 0
DWIDTH 12 0
BBX 10 10 1 -1
BITMAP
3FC0
4200
4FC0
D240
DFC0
5240
4F80
4A00
4400
5BC0
ENDCHAR
STARTCHAR 4FC2
ENCODING 20418
SWIDTH 960 0
DWIDTH 12 0
BBX 10 10 1 -1
BITMAP
2180
4E00
4480
CD00
C280
5FC0
4240
4A80
5240
4200
ENDCHAR
STARTCHAR 4FC3
ENCODING 20419
SWIDTH 960 0
DWIDTH 12 0
BBX 10 10 1 -1
BITMAP
2F80
4880
4880
C880
C700
4200
4A00
4B80
5A00
67C0
ENDCHAR
STARTCHAR 4FC4
ENCODING 20420
SWIDTH 960 0
DWIDTH 12 0
BBX 10 10 1 -1
BITMAP
4500
5940
4940
FFC0
C900
4980
5D80
4900
4900
5EC0
ENDCHAR
STARTCHAR 4FC9
ENCODING 20425
SWIDTH 960 0
DWIDTH 12 0
BBX 10 10 1 -1
BITMAP
2FC0
4200
4F80
4480
C480
4B40
4000
4FC0
4840
4FC0
ENDCHAR
STARTCHAR 4FCA
ENCODING 20426
SWIDTH 960 0
DWIDTH 12 0
BBX 10 10 1 -1
BITMAP
2400
4880
5F40
4500
C940
5480
4B80
5500
4200
5DC0
ENDCHAR
STARTCHAR 4FCE
ENCODING 20430
SWIDTH 960 0
DWIDTH 12 0
BBX 10 10 1 -1
BITMAP
27C0
4440
6440
97C0
8440
4440
47C0
6440
9C40
0FC0
ENDCHAR
STARTCHAR 4FD1
ENCODING 20433
SWIDTH 960 0
DWIDTH 12 0
BBX 10 10 1 -1
BITMAP
2F80
4100
4600
4FC0
D240
4FC0
5240
5240
5FC0
5240
ENDCHAR
STARTCHAR 4FD3
ENCODING 20435
SWIDTH 960 0
DWIDTH 12 0
BBX 10 10 1 -1
BITMAP
3FC0
4800
4A80
5480
CA80
4800
4FC0
4200
4200
5FC0
ENDCHAR
STARTCHAR 4FD4
ENCODING 20436
SWIDTH 960 0
DWIDTH 12 0
BBX 10 10 1 -1
BITMAP
2F80
4880
4F80
4880
CF80
4880
4F80
4500
4500
59C0
ENDCHAR
STARTCHAR 4FD7
ENCODING 20439
SWIDTH 960 0
DWIDTH 12 0
BBX 11 10 1 -1
BITMAP
2900
48C0
5200
4600
C980
5040
4FA0
4880
4880
4F80
ENDCHAR
STARTCHAR 4FDA
ENCODING 20442
SWIDTH 960 0
DWIDTH 12 0
BBX 10 10 1 -1
BITMAP
2FC0
5240
5240
5FC0
D240
4FC0
4200
4FC0
4200
5FC0
ENDCHAR
STARTCHAR 4FDD
ENCODING 20445
SWIDTH 960 0
DWIDTH 12 0
BBX 11 10 1 -1
BITMAP
2F80
4880
4880
4880
C700
4200
4FC0
4700
4A80
5260
ENDCHAR
STARTCHAR 4FDF
ENCODING 20447
SWIDTH 960 0
DWIDTH 12 0
BBX 10 10 1 -1
BITMAP
2400
4880
5F80
4800
CF80
5200
5FC0
4200
4500
58C0
ENDCHAR
STARTCHAR 4FE0
ENCODING 20448
SWIDTH 960 0
DWIDTH 12 0
BBX 10 10 1 -1
BITMAP
4200
5FC0
4200
CA80
CA80
5B40
4600
4500
4880
5840
ENDCHAR
STARTCHAR 4FE1
ENCODING 20449
SWIDTH 960 0
DWIDTH 12 0
BBX 10 10 1 -1
BITMAP
4FC0
4000
5FC0
C000
C780
4FC0
4000
4FC0
5040
5FC0
ENDCHAR
STARTCHAR 4FEE
ENCODING 20462
SWIDTH 960 0
DWIDTH 12 0
BBX 10 10 1 -1
BITMAP
4400
47C0
5C80
D300
D280
5D40
5680
5300
54C0
4700
ENDCHAR
STARTCHAR 4FEF
ENCODING 20463
SWIDTH 960 0
DWIDTH 12 0
BBX 11 10 1 -1
BITMAP
2200
5DC0
5200
D480
D7E0
5C80
5580
5480
6480
6480
ENDCHAR
STARTCHAR 4FF1
ENCODING 20465
SWIDTH 960 0
DWIDTH 12 0
BBX 10 10 1 -1
BITMAP
2F80
4880
4F80
4880
CF80
4880
4F80
5FC0
4400
58C0
ENDCHAR
STARTCHAR 4FF3
ENCODING 20467
SWIDTH 960 0
DWIDTH 12 0
BBX 10 10 1 -1
BITMAP
2500
4500
5DC0
C500
C500
4DC0
4500
5DC0
4900
5900
ENDCHAR
STARTCHAR 4FF5
ENCODING 20469
SWIDTH 960 0
DWIDTH 12 0
BBX 10 10 1 -1
BITMAP
4200
5FC0
4200
CF80
C200
5FC0
4640
5980
4880
5E40
ENDCHAR
STARTCHAR 4FF8
ENCODING 20472
SWIDTH 960 0
DWIDTH 12 0
BBX 10 10 1 -1
BITMAP
2400
4F80
5FC0
4500
DFC0
4A80
5FC0
4200
5FC0
4200
ENDCHAR
STARTCHAR 4FFA
ENCODING 20474
SWIDTH 960 0
DWIDTH 12 0
BBX 11 10 1 -1
BITMAP
2400
5FC0
4500
CA80
FFE0
5280
5F80
5280
4F00
43C0
ENDCHAR
STARTCHAR 5002
ENCODING 20482
SWIDTH 960 0
DWIDTH 12 0
BBX 10 10 1 -2
BITMAP
2880
4900
5FC0
4500
C500
4500
5FC0
4900
4900
4900
ENDCHAR
STARTCHAR 5006
ENCODING 20486
SWIDTH 960 0
DWIDTH 12 0
BBX 11 10 1 -1
BITMAP
5FE0
4200
4200
DFC0
DFC0
56C0
56C0
5B40
5240
5240
ENDCHAR
STARTCHAR 5009
ENCODING 20489
SWIDTH 960 0
DWIDTH 12 0
BBX 11 10 1 -1
BITMAP
0400
1A00
2180
DE60
3F80
3F80
3F80
4000
7F80
BF80
ENDCHAR
STARTCHAR 500B
ENCODING 20491
SWIDTH 960 0
DWIDTH 12 0
BBX 10 10 1 -1
BITMAP
5FC0
5240
5240
DFC0
D240
5240
5DC0
58C0
57C0
5FC0
ENDCHAR
STARTCHAR 500D
ENCODING 20493
SWIDTH 960 0
DWIDTH 12 0
BBX 10 10 1 -1
BITMAP
2200
5FC0
4880
4900
C900
56C0
4F80
4880
4880
4F80
ENDCHAR
STARTCHAR 5011
ENCODING 20497
SWIDTH 960 0
DWIDTH 12 0
BBX 10 10 1 -1
BITMAP
5DC0
5540
5DC0
D540
D540
58C0
5040
5040
5040
50C0
ENDCHAR
STARTCHAR 5012
ENCODING 20498
SWIDTH 960 0
DWIDTH 12 0
BBX 10 10 1 -1
BITMAP
2040
5D40
5140
5340
DD40
4940
5F40
4940
4A40
54C0
ENDCHAR
STARTCHAR 5016
ENCODING 20502
SWIDTH 960 0
DWIDTH 12 0
BBX 11 10 1 -1
BITMAP
2200
5FC0
4200
5FE0
C900
4900
56C0
4200
4FC0
4200
ENDCHAR
STARTCHAR 5019
ENCODING 20505
SWIDTH 960 0
DWIDTH 12 0
BBX 11 10 1 -1
BITMAP
4780
4080
5FE0
D200
D780
5900
5FC0
5300
5280
4C40
ENDCHAR
STARTCHAR 501A
ENCODING 20506
SWIDTH 960 0
DWIDTH 12 0
BBX 10 10 1 -1
BITMAP
2200
4F80
4500
48C0
C000
5FC0
4E80
5280
5280
4C80
ENDCHAR
STARTCHAR 501C
ENCODING 20508
SWIDTH 960 0
DWIDTH 12 0
BBX 10 10 1 -1
BITMAP
2FC0
5240
57C0
5240
D7C0
5040
57C0
54C0
57C0
6040
ENDCHAR
STARTCHAR 501E
ENCODING 20510
SWIDTH 960 0
DWIDTH 12 0
BBX 11 10 1 -1
BITMAP
2200
5FC0
4000
4F80
D080
5080
4F00
4A00
52C0
6620
ENDCHAR
STARTCHAR 501F
ENCODING 20511
SWIDTH 960 0
DWIDTH 12 0
BBX 11 10 1 -1
BITMAP
2500
4500
4FC0
4500
DFE0
4000
4FC0
4840
4FC0
4FC0
ENDCHAR
STARTCHAR 5021
ENCODING 20513
SWIDTH 960 0
DWIDTH 12 0
BBX 10 10 1 -1
BITMAP
2FC0
4840
4FC0
4840
CFC0
4000
5FC0
5040
5FC0
5FC0
ENDCHAR
STARTCHAR 5023
ENCODING 20515
SWIDTH 960 0
DWIDTH 12 0
BBX 10 10 1 -1
BITMAP
4900
4900
55C0
D140
DF40
5540
5580
5480
5540
6D40
ENDCHAR
STARTCHAR 5024
ENCODING 20516
SWIDTH 960 0
DWIDTH 12 0
BBX 11 10 1 -1
BITMAP
2100
5FE0
4100
C780
D480
5780
5780
5480
5780
5FC0
ENDCHAR
STARTCHAR 5026
ENCODING 20518
SWIDTH 960 0
DWIDTH 12 0
BBX 11 10 1 -1
BITMAP
2C00
5480
4740
4500
DB80
4880
7F60
4900
4B00
4F80
ENDCHAR
STARTCHAR 5027
ENCODING 20519
SWIDTH 960 0
DWIDTH 12 0
BBX 10 10 1 -1
BITMAP
2200
5FC0
5040
4780
C000
5FC0
4200
4A00
5240
4200
ENDCHAR
STARTCHAR 5028
ENCODING 20520
SWIDTH 960 0
DWIDTH 12 0
BBX 10 10 1 -1
BITMAP
2FC0
4840
4840
CF80
D100
5FC0
5100
57C0
5840
6FC0
ENDCHAR
STARTCHAR 502A
ENCODING 20522
SWIDTH 960 0
DWIDTH 12 0
BBX 11 10 1 -1
BITMAP
4DC0
5040
5040
DDC0
D040
4FC0
4500
4500
4500
59E0
ENDCHAR
STARTCHAR 502B
ENCODING 20523
SWIDTH 960 0
DWIDTH 12 0
BBX 11 10 1 -1
BITMAP
4200
4500
4880
FF60
C000
5FC0
5540
5FC0
5540
55C0
ENDCHAR
STARTCHAR 502C
ENCODING 20524
SWIDTH 960 0
DWIDTH 12 0
BBX 10 10 1 -1
BITMAP
2200
43C0
4200
5DC0
CFC0
5040
4FC0
4200
5FC0
4200
ENDCHAR
STARTCHAR 502D
ENCODING 20525
SWIDTH 960 0
DWIDTH 12 0
BBX 11 10 1 -1
BITMAP
4380
4E00
5FC0
C700
DAC0
4400
5FE0
4880
4700
5EC0
ENDCHAR
STARTCHAR 503B
ENCODING 20539
SWIDTH 960 0
DWIDTH 12 0
BBX 10 10 1 -1
BITMAP
5FC0
5540
5580
DD80
D540
5D40
5540
5D40
4580
4500
ENDCHAR
STARTCHAR 5043
ENCODING 20547
SWIDTH 960 0
DWIDTH 12 0
BBX 10 10 1 -1
BITMAP
3FC0
57C0
5440
57C0
D7C0
5200
5DC0
5280
5380
5FC0
ENDCHAR
STARTCHAR 5047
ENCODING 20551
SWIDTH 960 0
DWIDTH 12 0
BBX 11 10 0 -1
BITMAP
2EE0
2A20
2A20
6EE0
A800
2FE0
28A0
28C0
2E40
29A0
ENDCHAR
STARTCHAR 5048
ENCODING 20552
SWIDTH 960 0
DWIDTH 12 0
BBX 10 10 1 -1
BITMAP
3FC0
5040
5FC0
D040
CF80
4FC0
5240
5540
50C0
4FC0
ENDCHAR
STARTCHAR 5049
ENCODING 20553
SWIDTH 960 0
DWIDTH 12 0
BBX 11 10 1 -1
BITMAP
2200
4780
5FE0
4000
CF80
4F80
4200
5F80
5FC0
4200
ENDCHAR
STARTCHAR 504F
ENCODING 20559
SWIDTH 960 0
DWIDTH 12 0
BBX 10 10 1 -1
BITMAP
3FC0
4000
5FC0
CFC0
D000
4FC0
4B40
5FC0
5B40
6B40
ENDCHAR
STARTCHAR 5055
ENCODING 20565
SWIDTH 960 0
DWIDTH 12 0
BBX 11 10 1 -1
BITMAP
4900
49C0
5500
D120
DDC0
4200
5DC0
5040
5FC0
5FC0
ENDCHAR
STARTCHAR 505A
ENCODING 20570
SWIDTH 960 0
DWIDTH 12 0
BBX 11 10 1 -1
BITMAP
4900
4900
49E0
DD40
CB40
4940
7580
6480
6540
5940
ENDCHAR
STARTCHAR 505C
ENCODING 20572
SWIDTH 960 0
DWIDTH 12 0
BBX 11 10 1 -1
BITMAP
4200
5DC0
4F80
C880
C700
5FE0
6020
4F80
4200
4600
ENDCHAR
STARTCHAR 5065
ENCODING 20581
SWIDTH 960 0
DWIDTH 12 0
BBX 10 10 1 -1
BITMAP
5900
4BC0
5140
D3C0
CBC0
4900
6B80
5FC0
5100
5FC0
ENDCHAR
STARTCHAR 5074
ENCODING 20596
SWIDTH 960 0
DWIDTH 12 0
BBX 10 10 1 -1
BITMAP
3C40
5540
5540
DD40
D540
5D40
5540
5D40
4440
52C0
ENDCHAR
STARTCHAR 5075
ENCODING 20597
SWIDTH 960 0
DWIDTH 12 0
BBX 10 11 1 -2
BITMAP
2200
43C0
4200
4FC0
C840
4FC0
4FC0
4840
4FC0
4880
1040
ENDCHAR
STARTCHAR 5076
ENCODING 20598
SWIDTH 960 0
DWIDTH 12 0
BBX 10 10 1 -1
BITMAP
2FC0
4A40
4FC0
4A40
CFC0
4200
5FC0
52C0
57C0
5040
ENDCHAR
STARTCHAR 5078
ENCODING 20600
SWIDTH 960 0
DWIDTH 12 0
BBX 11 10 1 -1
BITMAP
2200
4500
4880
5FE0
C040
5D40
5D40
5540
5D40
5440
ENDCHAR
STARTCHAR 5080
ENCODING 20608
SWIDTH 960 0
DWIDTH 12 0
BBX 10 11 1 -2
BITMAP
2200
5F80
5280
DF80
D280
4F00
4700
4680
4B80
5240
0180
ENDCHAR
STARTCHAR 5085
ENCODING 20613
SWIDTH 960 0
DWIDTH 12 0
BBX 11 10 1 -1
BITMAP
2280
5FC0
4FC0
5240
DFC0
4FC0
4080
5FE0
4880
4580
ENDCHAR
STARTCHAR 508D
ENCODING 20621
SWIDTH 960 0
DWIDTH 12 0
BBX 10 10 1 -1
BITMAP
2200
4DC0
4900
DFC0
D200
5FC0
4400
4780
4880
5980
ENDCHAR
STARTCHAR 5091
ENCODING 20625
SWIDTH 960 0
DWIDTH 12 0
BBX 10 10 1 -1
BITMAP
2880
5FC0
5680
EBC0
C880
5280
5FC0
4600
4B80
5240
ENDCHAR
STARTCHAR 5098
ENCODING 20632
SWIDTH 960 0
DWIDTH 12 0
BBX 12 10 0 0
BITMAP
0600
0900
14C0
F4B0
3540
5C40
1480
6D60
7FE0
0400
ENDCHAR
STARTCHAR 5099
ENCODING 20633
SWIDTH 960 0
DWIDTH 12 0
BBX 11 10 1 -1
BITMAP
4500
5FC0
4500
DFE0
DFC0
5940
5FC0
5940
6FC0
6940
ENDCHAR
STARTCHAR 50AC
ENCODING 20652
SWIDTH 960 0
DWIDTH 12 0
BBX 10 10 1 -1
BITMAP
2240
5240
4FC0
C900
CFC0
5A00
4FC0
4A00
4F80
4FC0
ENDCHAR
STARTCHAR 50AD
ENCODING 20653
SWIDTH 960 0
DWIDTH 12 0
BBX 11 10 1 -1
BITMAP
4200
5FC0
57C0
DFE0
D240
5780
5FC0
5FC0
6FC0
6A40
ENDCHAR
STARTCHAR 50B2
ENCODING 20658
SWIDTH 960 0
DWIDTH 12 0
BBX 11 10 1 -1
BITMAP
4880
5D00
49E0
FF40
CB40
7F40
5080
5C80
54C0
6D20
ENDCHAR
STARTCHAR 50B3
ENCODING 20659
SWIDTH 960 0
DWIDTH 12 0
BBX 10 10 1 -1
BITMAP
2200
4F80
4F80
4F80
D280
4F80
5DC0
5FC0
4880
4580
ENDCHAR
STARTCHAR 50B5
ENCODING 20661
SWIDTH 960 0
DWIDTH 12 0
BBX 10 10 1 -1
BITMAP
4200
4FC0
4FC0
DFC0
CF80
5080
5F80
4F80
4F80
58C0
ENDCHAR
STARTCHAR 50B7
ENCODING 20663
SWIDTH 960 0
DWIDTH 12 0
BBX 11 10 1 -1
BITMAP
2800
4F80
5F80
4F80
CF80
5FE0
4800
57C0
4A40
4680
ENDCHAR
STARTCHAR 50BE
ENCODING 20670
SWIDTH 960 0
DWIDTH 12 0
BBX 11 10 1 -1
BITMAP
47E0
4100
63C0
EC40
F7C0
6440
67C0
5C40
4380
4640
ENDCHAR
STARTCHAR 50C5
ENCODING 20677
SWIDTH 960 0
DWIDTH 12 0
BBX 10 10 1 -1
BITMAP
2880
5FC0
4780
4200
DFC0
4FC0
4200
4F80
4FC0
5FC0
ENDCHAR
STARTCHAR 50C9
ENCODING 20681
SWIDTH 960 0
DWIDTH 12 0
BBX 11 11 1 -2
BITMAP
0C00
1200
2180
FF60
7B80
4C80
4C80
3300
2100
5280
0800
ENDCHAR
STARTCHAR 50CA
ENCODING 20682
SWIDTH 960 0
DWIDTH 12 0
BBX 10 10 1 -1
BITMAP
3FC0
4500
5FC0
5540
CE80
5FC0
4F80
5940
4B00
4FC0
ENDCHAR
STARTCHAR 50CF
ENCODING 20687
SWIDTH 960 0
DWIDTH 12 0
BBX 11 10 1 -1
BITMAP
2400
4B00
5FC0
5240
DFC0
4E00
5380
5D00
4780
5E60
ENDCHAR
STARTCHAR 50D1
ENCODING 20689
SWIDTH 960 0
DWIDTH 12 0
BBX 11 10 1 -1
BITMAP
4F80
4400
5F80
CF80
F8E0
4700
5FC0
5740
5940
56C0
ENDCHAR
STARTCHAR 50D5
ENCODING 20693
SWIDTH 960 0
DWIDTH 12 0
BBX 10 10 1 -1
BITMAP
2540
4D80
5FC0
4880
DFC0
4200
4F80
5FC0
4500
58C0
ENDCHAR
STARTCHAR 50D6
ENCODING 20694
SWIDTH 960 0
DWIDTH 12 0
BBX 11 10 1 -1
BITMAP
4200
5FC0
5FC0
CFC0
D040
4FC0
5FE0
4000
5FC0
5FC0
ENDCHAR
STARTCHAR 50DA
ENCODING 20698
SWIDTH 960 0
DWIDTH 12 0
BBX 11 10 1 -1
BITMAP
4200
5FC0
5640
C980
D6C0
4FA0
5080
4F80
4A80
7660
ENDCHAR
STARTCHAR 50DE
ENCODING 20702
SWIDTH 960 0
DWIDTH 12 0
BBX 10 10 1 -1
BITMAP
4F80
5480
6240
CF80
D080
5F80
5FC0
50C0
5DC0
68C0
ENDCHAR
STARTCHAR 50E5
ENCODING 20709
SWIDTH 960 0
DWIDTH 12 0
BBX 11 10 1 -1
BITMAP
4200
4F80
4200
DDC0
DDC0
4880
5540
5FE0
4900
59C0
ENDCHAR
STARTCHAR 50E7
ENCODING 20711
SWIDTH 960 0
DWIDTH 12 0
BBX 11 10 1 -1
BITMAP
2300
4880
5FC0
5AA0
DB80
5F80
4F80
5080
4F80
5F80
ENDCHAR
STARTCHAR 50ED
ENCODING 20717
SWIDTH 960 0
DWIDTH 12 0
BBX 11 10 1 -1
BITMAP
5DC0
5980
5980
CCC0
DB80
7660
5FC0
5040
5FC0
5FC0
ENDCHAR
STARTCHAR 50F9
ENCODING 20729
SWIDTH 960 0
DWIDTH 12 0
BBX 12 10 0 -1
BITMAP
2FF0
2280
2FE0
6FE0
A7E0
2820
2FE0
27E0
27E0
2C60
ENDCHAR
STARTCHAR 50FB
ENCODING 20731
SWIDTH 960 0
DWIDTH 12 0
BBX 10 10 1 -1
BITMAP
4080
5FC0
5540
DD80
D0C0
6080
5C80
75C0
7480
5C80
ENDCHAR
STARTCHAR 50FF
ENCODING 20735
SWIDTH 960 0
DWIDTH 12 0
BBX 11 10 1 -1
BITMAP
4200
7DC0
6FC0
C500
CF80
5FC0
4A80
4A40
7720
4F80
ENDCHAR
STARTCHAR 5100
ENCODING 20736
SWIDTH 960 0
DWIDTH 12 0
BBX 10 10 1 -1
BITMAP
4900
5FC0
4200
CF80
FFC0
5E80
7FC0
4980
5D00
5AC0
ENDCHAR
STARTCHAR 5101
ENCODING 20737
SWIDTH 960 0
DWIDTH 12 0
BBX 10 10 1 -1
BITMAP
2A00
5FC0
4FC0
4A00
CF80
4FC0
4CC0
5540
5340
50C0
ENDCHAR
STARTCHAR 5104
ENCODING 20740
SWIDTH 960 0
DWIDTH 12 0
BBX 11 10 1 -1
BITMAP
2200
4D80
4500
DAC0
CF80
4F80
4880
4740
5A20
6F80
ENDCHAR
STARTCHAR 5106
ENCODING 20742
SWIDTH 960 0
DWIDTH 12 0
BBX 12 10 0 -1
BITMAP
2A40
3F80
2AF0
68A0
AFA0
32A0
2E60
2E40
2E60
2290
ENDCHAR
STARTCHAR 5109
ENCODING 20745
SWIDTH 960 0
DWIDTH 12 0
BBX 10 10 1 -1
BITMAP
4400
4700
4880
F740
DD80
5680
5D80
4880
4900
56C0
ENDCHAR
STARTCHAR 5112
ENCODING 20754
SWIDTH 960 0
DWIDTH 12 0
BBX 11 10 1 -1
BITMAP
5FC0
4200
5FC0
DAC0
DF80
5FE0
4200
5DC0
5540
5540
ENDCHAR
STARTCHAR 511F
ENCODING 20767
SWIDTH 960 0
DWIDTH 12 0
BBX 10 11 1 -2
BITMAP
5240
5FC0
6040
CF80
C700
4F80
4F80
4F80
5F80
4880
1040
ENDCHAR
STARTCHAR 5121
ENCODING 20769
SWIDTH 960 0
DWIDTH 12 0
BBX 10 10 1 -1
BITMAP
2F80
5280
4F80
D280
CD00
4000
7FC0
6EC0
7FC0
7FC0
ENDCHAR
STARTCHAR 512A
ENCODING 20778
SWIDTH 960 0
DWIDTH 12 0
BBX 10 10 1 -1
BITMAP
5FC0
4F80
4F80
CF80
DFC0
5E40
5700
4F80
5500
5FC0
ENDCHAR
STARTCHAR 5132
ENCODING 20786
SWIDTH 960 0
DWIDTH 12 0
BBX 11 10 1 -1
BITMAP
5920
43C0
7D40
C180
DAC0
5940
43C0
5D40
65C0
7DC0
ENDCHAR
STARTCHAR 5137
ENCODING 20791
SWIDTH 960 0
DWIDTH 12 0
BBX 10 11 1 -2
BITMAP
3DC0
5DC0
5DC0
C200
DFC0
5500
5FC0
5B80
57C0
6740
0880
ENDCHAR
STARTCHAR 513A
ENCODING 20794
SWIDTH 960 0
DWIDTH 12 0
BBX 11 11 0 -2
BITMAP
2AC0
3EC0
2EE0
65C0
BEE0
2EC0
2EC0
24E0
2EC0
2AC0
1020
ENDCHAR
STARTCHAR 513C
ENCODING 20796
SWIDTH 960 0
DWIDTH 12 0
BBX 11 10 1 -2
BITMAP
5DC0
5540
4880
FFC0
EE80
5FE0
6D40
6CC0
6C80
7D40
ENDCHAR
STARTCHAR 5140
ENCODING 20800
SWIDTH 960 0
DWIDTH 12 0
BBX 10 9 1 -1
BITMAP
FFC0
1200
1200
1200
1200
1200
2200
2240
C3C0
ENDCHAR
STARTCHAR 5141
ENCODING 20801
SWIDTH 960 0
DWIDTH 12 0
BBX 10 10 1 -1
BITMAP
1000
1200
2100
7F80
1240
1200
1200
2200
2240
C3C0
ENDCHAR
STARTCHAR 5143
ENCODING 20803
SWIDTH 960 0
DWIDTH 12 0
BBX 10 9 1 -1
BITMAP
3F00
0000
7FC0
1200
1200
1200
2200
2240
C3C0
ENDCHAR
STARTCHAR 5144
ENCODING 20804
SWIDTH 960 0
DWIDTH 12 0
BBX 10 9 1 -1
BITMAP
7F00
4100
4100
4100
3E00
1200
1200
2240
C3C0
ENDCHAR
STARTCHAR 5145
ENCODING 20805
SWIDTH 960 0
DWIDTH 12 0
BBX 10 10 1 -1
BITMAP
0800
FFC0
1000
1100
3F80
5200
1200
1200
2240
63C0
ENDCHAR
STARTCHAR 5146
ENCODING 20806
SWIDTH 960 0
DWIDTH 12 0
BBX 10 10 1 -1
BITMAP
1200
1280
5300
3200
1200
1200
7380
1200
2200
E3C0
ENDCHAR
STARTCHAR 5147
ENCODING 20807
SWIDTH 960 0
DWIDTH 12 0
BBX 10 10 1 -1
BITMAP
4280
5C80
4480
5A80
6080
7F80
1200
2200
2240
C3C0
ENDCHAR
STARTCHAR 5148
ENCODING 20808
SWIDTH 960 0
DWIDTH 12 0
BBX 10 10 1 -1
BITMAP
2800
2800
3F80
4800
0800
FFC0
1200
2200
2240
C1C0
ENDCHAR
STARTCHAR 5149
ENCODING 20809
SWIDTH 960 0
DWIDTH 12 0
BBX 10 10 1 -1
BITMAP
0400
2480
2500
0500
FFC0
1200
1200
1200
2240
63C0
ENDCHAR
STARTCHAR 514B
ENCODING 20811
SWIDTH 960 0
DWIDTH 12 0
BBX 10 10 1 -1
BITMAP
0400
FFC0
0800
3F80
4080
4080
3F80
1200
1240
E3C0
ENDCHAR
STARTCHAR 514C
ENCODING 20812
SWIDTH 960 0
DWIDTH 12 0
BBX 10 10 1 -1
BITMAP
0E00
1200
2180
FF40
2100
2100
3F00
1200
1200
E3C0
ENDCHAR
STARTCHAR 514D
ENCODING 20813
SWIDTH 960 0
DWIDTH 12 0
BBX 10 10 1 -1
BITMAP
1000
2E00
4400
FF80
4480
4480
3F00
0C00
1400
E7C0
ENDCHAR
STARTCHAR 514E
ENCODING 20814
SWIDTH 960 0
DWIDTH 12 0
BBX 9 10 2 -1
BITMAP
0700
F800
0800
F700
9100
FF00
1800
1A00
2980
CF80
ENDCHAR
STARTCHAR 5152
ENCODING 20818
SWIDTH 960 0
DWIDTH 12 0
BBX 10 10 1 -1
BITMAP
7F80
4080
4080
7F80
4080
4080
3F00
1200
2240
E3C0
ENDCHAR
STARTCHAR 515C
ENCODING 20828
SWIDTH 960 0
DWIDTH 12 0
BBX 10 10 1 -1
BITMAP
0800
F6C0
9240
9E40
9240
7FC0
1200
1200
1240
63C0
ENDCHAR
STARTCHAR 5162
ENCODING 20834
SWIDTH 960 0
DWIDTH 12 0
BBX 11 10 1 -1
BITMAP
2100
FFC0
2100
FFC0
8C40
8C40
7380
5280
5C80
8CE0
ENDCHAR
STARTCHAR 5165
ENCODING 20837
SWIDTH 960 0
DWIDTH 12 0
BBX 10 10 1 -1
BITMAP
3C00
0400
0800
0800
0C00
0C00
1200
1100
2080
C040
ENDCHAR
STARTCHAR 5167
ENCODING 20839
SWIDTH 960 0
DWIDTH 12 0
BBX 9 10 2 -1
BITMAP
1000
1000
FF80
9880
9880
A480
A480
C380
8080
8180
ENDCHAR
STARTCHAR 5168
ENCODING 20840
SWIDTH 960 0
DWIDTH 12 0
BBX 11 10 1 -1
BITMAP
0800
0C00
1200
2180
C060
3F00
0800
3F00
0800
7F80
ENDCHAR
STARTCHAR 5169
ENCODING 20841
SWIDTH 960 0
DWIDTH 12 0
BBX 10 10 1 -1
BITMAP
FFC0
0800
0800
FFC0
AB40
A940
B940
CAC0
8840
88C0
ENDCHAR
STARTCHAR 516A
ENCODING 20842
SWIDTH 960 0
DWIDTH 12 0
BBX 12 10 0 -1
BITMAP
0400
0A00
1180
FFF0
3C00
4420
3D20
4520
7C20
4C60
ENDCHAR
STARTCHAR 516B
ENCODING 20843
SWIDTH 960 0
DWIDTH 12 0
BBX 12 10 0 -1
BITMAP
0F00
0100
0100
0900
1100
1080
1080
2040
2020
C010
ENDCHAR
STARTCHAR 516C
ENCODING 20844
SWIDTH 960 0
DWIDTH 12 0
BBX 11 10 1 -1
BITMAP
0E00
0200
2200
4100
4880
9060
1200
1100
2100
7E80
ENDCHAR
STARTCHAR 516D
ENCODING 20845
SWIDTH 960 0
DWIDTH 12 0
BBX 10 10 1 -1
BITMAP
0800
0800
0800
7780
0000
1200
2100
2080
4080
8040
ENDCHAR
STARTCHAR 516E
ENCODING 20846
SWIDTH 960 0
DWIDTH 12 0
BBX 11 10 1 -1
BITMAP
1E00
1200
2100
40C0
BFA0
2000
2000
1F00
0100
0700
ENDCHAR
STARTCHAR 5171
ENCODING 20849
SWIDTH 960 0
DWIDTH 12 0
BBX 10 10 1 -1
BITMAP
1200
1200
1200
7F80
1200
1200
FFC0
0000
2100
40C0
ENDCHAR
STARTCHAR 5175
ENCODING 20853
SWIDTH 960 0
DWIDTH 12 0
BBX 10 10 1 -1
BITMAP
3F80
2000
2000
3F80
2200
2200
2200
DDC0
2100
C0C0
ENDCHAR
STARTCHAR 5176
ENCODING 20854
SWIDTH 960 0
DWIDTH 12 0
BBX 10 10 1 -1
BITMAP
2100
FFC0
2100
1F00
2100
1F00
2100
FFC0
2100
C080
ENDCHAR
STARTCHAR 5177
ENCODING 20855
SWIDTH 960 0
DWIDTH 12 0
BBX 10 11 1 -2
BITMAP
3F00
2100
3F00
2100
3F00
2100
3F00
FFC0
2100
4080
0040
ENDCHAR
STARTCHAR 5178
ENCODING 20856
SWIDTH 960 0
DWIDTH 12 0
BBX 10 10 1 -1
BITMAP
1200
1200
7F80
5280
7F80
5280
5280
FFC0
2100
40C0
ENDCHAR
STARTCHAR 517C
ENCODING 20860
SWIDTH 960 0
DWIDTH 12 0
BBX 12 10 0 -1
BITMAP
0700
30C0
5FB0
0A00
1FC0
7FE0
0A40
1D80
1A80
EA70
ENDCHAR
STARTCHAR 5180
ENCODING 20864
SWIDTH 960 0
DWIDTH 12 0
BBX 10 10 1 -1
BITMAP
1200
73C0
F3C0
7F80
7F80
4480
3B00
7F80
FFC0
6080
ENDCHAR
STARTCHAR 5186
ENCODING 20870
SWIDTH 960 0
DWIDTH 12 0
BBX 8 9 2 -1
BITMAP
FF
91
91
91
EF
81
81
81
83
ENDCHAR
STARTCHAR 518A
ENCODING 20874
SWIDTH 960 0
DWIDTH 12 0
BBX 11 10 1 -1
BITMAP
7380
5280
5280
5280
FFE0
5280
5280
5480
5480
9580
ENDCHAR
STARTCHAR 518D
ENCODING 20877
SWIDTH 960 0
DWIDTH 12 0
BBX 10 10 1 -1
BITMAP
FFC0
0800
7F80
4880
7F80
4880
4880
F7C0
4080
4380
ENDCHAR
STARTCHAR 5192
ENCODING 20882
SWIDTH 960 0
DWIDTH 12 0
BBX 8 10 2 -1
BITMAP
FF
81
BF
FF
00
FF
7F
81
7F
FF
ENDCHAR
STARTCHAR 5195
ENCODING 20885
SWIDTH 960 0
DWIDTH 12 0
BBX 10 10 1 -1
BITMAP
7F80
7F80
4080
3F00
3E00
7F80
C480
7F80
0C00
F7C0
ENDCHAR
STARTCHAR 5197
ENCODING 20887
SWIDTH 960 0
DWIDTH 12 0
BBX 10 9 1 -1
BITMAP
FFC0
8040
1E00
1200
1200
1200
1200
2240
43C0
ENDCHAR
STARTCHAR 51A0
ENCODING 20896
SWIDTH 960 0
DWIDTH 12 0
BBX 10 11 1 -2
BITMAP
FFC0
8040
F0C0
0080
7FC0
5080
5280
5080
5140
8840
0780
ENDCHAR
STARTCHAR 51A5
ENCODING 20901
SWIDTH 960 0
DWIDTH 12 0
BBX 10 10 1 -1
BITMAP
FFC0
8040
BF40
2100
3F00
3F00
0400
FFC0
0000
E1C0
ENDCHAR
STARTCHAR 51AA
ENCODING 20906
SWIDTH 960 0
DWIDTH 12 0
BBX 10 10 1 -1
BITMAP
FFC0
FFC0
1200
2D00
3F00
3F00
FFC0
2900
FFC0
2900
ENDCHAR
STARTCHAR 51AC
ENCODING 20908
SWIDTH 960 0
DWIDTH 12 0
BBX 10 11 1 -2
BITMAP
1000
2F00
6200
9C00
0C00
3300
CCC0
0000
0100
0E00
1000
ENDCHAR
STARTCHAR 51B6
ENCODING 20918
SWIDTH 960 0
DWIDTH 12 0
BBX 10 10 1 -1
BITMAP
0400
8400
4880
0880
1F40
0000
4F80
4880
8880
0F80
ENDCHAR
STARTCHAR 51B7
ENCODING 20919
SWIDTH 960 0
DWIDTH 12 0
BBX 10 10 1 -1
BITMAP
0400
8600
4900
10C0
0F00
0000
4F80
8480
8480
0500
ENDCHAR
STARTCHAR 51BD
ENCODING 20925
SWIDTH 960 0
DWIDTH 12 0
BBX 10 10 1 -1
BITMAP
0040
9F40
4940
0F40
1540
1D40
6540
8540
8840
10C0
ENDCHAR
STARTCHAR 51C4
ENCODING 20932
SWIDTH 960 0
DWIDTH 12 0
BBX 10 11 1 -2
BITMAP
0200
9FC0
4F80
0280
1FC0
1F80
4800
9FC0
9F00
0280
1C00
ENDCHAR
STARTCHAR 51C6
ENCODING 20934
SWIDTH 960 0
DWIDTH 12 0
BBX 10 10 1 -1
BITMAP
0900
4900
0FC0
1A00
0FC0
0A00
4A00
8FC0
8A00
0FC0
ENDCHAR
STARTCHAR 51C9
ENCODING 20937
SWIDTH 960 0
DWIDTH 12 0
BBX 10 10 1 -1
BITMAP
0200
5FC0
0000
0F80
1080
1080
4F00
8A00
9280
2640
ENDCHAR
STARTCHAR 51CB
ENCODING 20939
SWIDTH 960 0
DWIDTH 12 0
BBX 10 11 1 -2
BITMAP
1FC0
9240
57C0
1240
1FC0
1040
5740
9540
A740
2040
0080
ENDCHAR
STARTCHAR 51CC
ENCODING 20940
SWIDTH 960 0
DWIDTH 12 0
BBX 10 10 1 -1
BITMAP
0200
8F80
4200
1DC0
0940
1480
4B80
B500
8200
3DC0
ENDCHAR
STARTCHAR 51CD
ENCODING 20941
SWIDTH 960 0
DWIDTH 12 0
BBX 11 10 1 -1
BITMAP
0200
BFC0
4200
1F80
1F80
1280
5F80
8700
8A80
3260
ENDCHAR
STARTCHAR 51DC
ENCODING 20956
SWIDTH 960 0
DWIDTH 12 0
BBX 11 10 1 -1
BITMAP
0200
9DC0
5F80
1F80
1680
0F00
4F80
9FC0
8700
3AE0
ENDCHAR
STARTCHAR 51DD
ENCODING 20957
SWIDTH 960 0
DWIDTH 12 0
BBX 12 10 0 -1
BITMAP
11E0
5C20
32C0
0C40
11A0
3CA0
4960
5F80
8F80
3270
ENDCHAR
STARTCHAR 51DE
ENCODING 20958
SWIDTH 960 0
DWIDTH 12 0
BBX 11 10 1 -1
BITMAP
3DC0
AA40
7E40
25C0
3E00
6A20
7D40
8080
AA40
2920
ENDCHAR
STARTCHAR 51E1
ENCODING 20961
SWIDTH 960 0
DWIDTH 12 0
BBX 9 10 2 -1
BITMAP
7C00
4400
4400
4400
5400
5400
4C00
4400
4480
8380
ENDCHAR
STARTCHAR 51F0
ENCODING 20976
SWIDTH 960 0
DWIDTH 12 0
BBX 11 10 1 -2
BITMAP
7F80
8880
BE80
A280
BE80
BE80
BF80
8880
9E80
BF60
ENDCHAR
STARTCHAR 51F1
ENCODING 20977
SWIDTH 960 0
DWIDTH 12 0
BBX 11 10 1 -1
BITMAP
AB80
AA80
AA80
5280
FE80
0280
FA80
FA80
54A0
FCE0
ENDCHAR
STARTCHAR 51F6
ENCODING 20982
SWIDTH 960 0
DWIDTH 12 0
BBX 10 10 1 -1
BITMAP
8040
A240
9240
8A40
8440
8A40
9140
A140
8040
FFC0
ENDCHAR
STARTCHAR 51F8
ENCODING 20984
SWIDTH 960 0
DWIDTH 12 0
BBX 10 9 1 -1
BITMAP
1E00
1200
1200
1200
E1C0
8040
8040
8040
FFC0
ENDCHAR
STARTCHAR 51F9
ENCODING 20985
SWIDTH 960 0
DWIDTH 12 0
BBX 9 9 2 -1
BITMAP
E780
2480
2480
2480
3C80
0080
0080
0080
FF80
ENDCHAR
STARTCHAR 51FA
ENCODING 20986
SWIDTH 960 0
DWIDTH 12 0
BBX 9 10 2 -1
BITMAP
1000
1100
9100
9100
9100
7E00
9080
9080
9080
FF80
ENDCHAR
STARTCHAR 51FD
ENCODING 20989
SWIDTH 960 0
DWIDTH 12 0
BBX 10 10 1 -1
BITMAP
FFC0
1000
1000
8C40
A540
9440
8640
B540
8C40
FFC0
ENDCHAR
STARTCHAR 5200
ENCODING 20992
SWIDTH 960 0
DWIDTH 12 0
BBX 9 9 1 -1
BITMAP
7F80
0880
0880
0880
1080
1080
1080
2080
C300
ENDCHAR
STARTCHAR 5203
ENCODING 20995
SWIDTH 960 0
DWIDTH 12 0
BBX 8 9 2 -1
BITMAP
FF
09
09
91
91
91
21
21
C6
ENDCHAR
STARTCHAR 5206
ENCODING 20998
SWIDTH 960 0
DWIDTH 12 0
BBX 10 11 1 -2
BITMAP
0E00
0200
2100
4080
4040
BF00
0900
1100
1100
2100
4200
ENDCHAR
STARTCHAR 5207
ENCODING 20999
SWIDTH 960 0
DWIDTH 12 0
BBX 11 10 0 -1
BITMAP
2000
23E0
20A0
3D20
E120
2120
2520
2520
1A20
0460
ENDCHAR
STARTCHAR 5208
ENCODING 21000
SWIDTH 960 0
DWIDTH 12 0
BBX 10 10 1 -1
BITMAP
0840
8940
4940
5140
3140
1140
2940
4940
4440
84C0
ENDCHAR
STARTCHAR 520A
ENCODING 21002
SWIDTH 960 0
DWIDTH 12 0
BBX 10 10 1 -1
BITMAP
0040
7A40
2240
2240
2240
FE40
2240
2240
2040
20C0
ENDCHAR
STARTCHAR 520E
ENCODING 21006
SWIDTH 960 0
DWIDTH 12 0
BBX 10 10 1 -1
BITMAP
4040
7D40
AD40
AD40
B540
5540
5540
A540
4440
8CC0
ENDCHAR
STARTCHAR 5211
ENCODING 21009
SWIDTH 960 0
DWIDTH 12 0
BBX 10 11 1 -2
BITMAP
FC40
4940
4940
4940
FF40
4940
4940
4940
4840
8840
0080
ENDCHAR
STARTCHAR 5217
ENCODING 21015
SWIDTH 960 0
DWIDTH 12 0
BBX 10 11 1 -2
BITMAP
7C40
2140
2140
3D40
4940
7940
8940
1140
1040
6040
0080
ENDCHAR
STARTCHAR 521D
ENCODING 21021
SWIDTH 960 0
DWIDTH 12 0
BBX 10 10 1 -1
BITMAP
4000
F7C0
1140
2A40
7240
D240
4240
4240
4440
4980
ENDCHAR
STARTCHAR 5224
ENCODING 21028
SWIDTH 960 0
DWIDTH 12 0
BBX 10 10 1 -1
BITMAP
2040
6940
A140
2140
7940
2140
FD40
2140
2040
40C0
ENDCHAR
STARTCHAR 5225
ENCODING 21029
SWIDTH 960 0
DWIDTH 12 0
BBX 10 10 1 -1
BITMAP
7840
8940
8940
7940
2140
3D40
2540
4540
4440
98C0
ENDCHAR
STARTCHAR 5229
ENCODING 21033
SWIDTH 960 0
DWIDTH 12 0
BBX 10 10 1 -1
BITMAP
1C40
7140
1140
7D40
1140
3940
5540
9140
1040
10C0
ENDCHAR
STARTCHAR 522A
ENCODING 21034
SWIDTH 960 0
DWIDTH 12 0
BBX 10 10 1 -1
BITMAP
7C40
AD40
AD40
AD40
FF40
AD40
AD40
AD40
AC40
ACC0
ENDCHAR
STARTCHAR 522E
ENCODING 21038
SWIDTH 960 0
DWIDTH 12 0
BBX 10 10 1 -1
BITMAP
0C40
F140
1140
FD40
1140
1140
FD40
8540
8440
FCC0
ENDCHAR
STARTCHAR 5230
ENCODING 21040
SWIDTH 960 0
DWIDTH 12 0
BBX 10 10 1 -1
BITMAP
0040
7D40
2140
4540
FD40
1140
1140
7D40
1040
FEC0
ENDCHAR
STARTCHAR 5236
ENCODING 21046
SWIDTH 960 0
DWIDTH 12 0
BBX 10 10 1 -1
BITMAP
5040
5140
BD40
1140
FD40
1140
FD40
9540
9440
94C0
ENDCHAR
STARTCHAR 5237
ENCODING 21047
SWIDTH 960 0
DWIDTH 12 0
BBX 11 10 0 -1
BITMAP
3F20
21A0
3FA0
28A0
5FA0
59A0
59A0
59A0
5920
8A20
ENDCHAR
STARTCHAR 5238
ENCODING 21048
SWIDTH 960 0
DWIDTH 12 0
BBX 10 10 1 -1
BITMAP
2900
4880
3F00
1400
FFC0
2100
7F80
8940
1200
2200
ENDCHAR
STARTCHAR 5239
ENCODING 21049
SWIDTH 960 0
DWIDTH 12 0
BBX 10 10 1 -1
BITMAP
0840
7140
2940
D140
1140
FD40
3140
5940
D440
10C0
ENDCHAR
STARTCHAR 523A
ENCODING 21050
SWIDTH 960 0
DWIDTH 12 0
BBX 10 10 1 -1
BITMAP
1040
FD40
1140
FD40
9540
9540
3140
3940
5440
90C0
ENDCHAR
STARTCHAR 523B
ENCODING 21051
SWIDTH 960 0
DWIDTH 12 0
BBX 10 10 1 -1
BITMAP
1040
FF40
2140
6940
3940
1540
6940
8940
3440
C2C0
ENDCHAR
STARTCHAR 5243
ENCODING 21059
SWIDTH 960 0
DWIDTH 12 0
BBX 10 10 1 -1
BITMAP
4840
7D40
1540
1540
F940
9140
7F40
3340
5240
9440
ENDCHAR
STARTCHAR 5247
ENCODING 21063
SWIDTH 960 0
DWIDTH 12 0
BBX 10 10 1 -1
BITMAP
7840
4940
4940
7940
4940
7940
8940
7940
4840
84C0
ENDCHAR
STARTCHAR 524A
ENCODING 21066
SWIDTH 960 0
DWIDTH 12 0
BBX 10 10 1 -1
BITMAP
2040
A540
A340
7D40
8540
7D40
8540
7D40
8440
8CC0
ENDCHAR
STARTCHAR 524B
ENCODING 21067
SWIDTH 960 0
DWIDTH 12 0
BBX 11 11 1 -2
BITMAP
2040
FE40
2240
7A40
8A40
8A40
7040
5080
50A0
8840
0780
ENDCHAR
STARTCHAR 524C
ENCODING 21068
SWIDTH 960 0
DWIDTH 12 0
BBX 11 10 0 -1
BITMAP
0820
7FA0
08A0
3EA0
4AA0
3EA0
18A0
1CA0
2A20
C960
ENDCHAR
STARTCHAR 524D
ENCODING 21069
SWIDTH 960 0
DWIDTH 12 0
BBX 10 10 1 -1
BITMAP
2100
1200
EDC0
7840
8A40
7A40
8A40
FA40
8A40
99C0
ENDCHAR
STARTCHAR 5254
ENCODING 21076
SWIDTH 960 0
DWIDTH 12 0
BBX 10 10 1 -1
BITMAP
7C40
8540
7D40
8540
7D40
4140
BD40
5540
9440
6CC0
ENDCHAR
STARTCHAR 5256
ENCODING 21078
SWIDTH 960 0
DWIDTH 12 0
BBX 10 10 1 -1
BITMAP
2040
FD40
4940
4940
4940
B540
7D40
8540
8440
FCC0
ENDCHAR
STARTCHAR 525B
ENCODING 21083
SWIDTH 960 0
DWIDTH 12 0
BBX 10 10 1 -1
BITMAP
FE40
C340
CB40
AB40
D740
DB40
DB40
DB40
A240
8EC0
ENDCHAR
STARTCHAR 525D
ENCODING 21085
SWIDTH 960 0
DWIDTH 12 0
BBX 10 10 1 -1
BITMAP
4040
7940
7940
1140
FD40
1540
5940
3940
5440
B2C0
ENDCHAR
STARTCHAR 5261
ENCODING 21089
SWIDTH 960 0
DWIDTH 12 0
BBX 10 10 1 -1
BITMAP
1040
1540
7140
2940
C540
1140
A540
7540
2840
C6C0
ENDCHAR
STARTCHAR 5269
ENCODING 21097
SWIDTH 960 0
DWIDTH 12 0
BBX 10 10 1 -1
BITMAP
1C40
7140
FF40
1940
DF40
5B40
9540
3940
5640
90C0
ENDCHAR
STARTCHAR 526A
ENCODING 21098
SWIDTH 960 0
DWIDTH 12 0
BBX 10 10 1 -1
BITMAP
2100
FFC0
7A80
7A80
8A80
FA80
1880
FFC0
0840
F180
ENDCHAR
STARTCHAR 526F
ENCODING 21103
SWIDTH 960 0
DWIDTH 12 0
BBX 10 10 1 -1
BITMAP
FC40
0140
7D40
4540
7D40
0140
FD40
9540
FC40
FCC0
ENDCHAR
STARTCHAR 5272
ENCODING 21106
SWIDTH 960 0
DWIDTH 12 0
BBX 10 10 1 -1
BITMAP
1040
EF40
9340
7D40
7D40
1140
ED40
7D40
8440
FCC0
ENDCHAR
STARTCHAR 5275
ENCODING 21109
SWIDTH 960 0
DWIDTH 12 0
BBX 10 10 1 -1
BITMAP
1040
2940
FF40
0140
7D40
7D40
7D40
8140
FC40
FCC0
ENDCHAR
STARTCHAR 527D
ENCODING 21117
SWIDTH 960 0
DWIDTH 12 0
BBX 11 10 0 -1
BITMAP
7F20
14A0
7FA0
55A0
2AA0
3EA0
00A0
7FA0
2A20
D920
ENDCHAR
STARTCHAR 527F
ENCODING 21119
SWIDTH 960 0
DWIDTH 12 0
BBX 11 10 0 -1
BITMAP
4A20
54A0
2AA0
3EA0
3EA0
4AA0
3CA0
7FA0
2C20
CB60
ENDCHAR
STARTCHAR 5283
ENCODING 21123
SWIDTH 960 0
DWIDTH 12 0
BBX 10 10 1 -1
BITMAP
2040
7D40
FD40
7940
FD40
FF40
FD40
FD40
A440
FCC0
ENDCHAR
STARTCHAR 5287
ENCODING 21127
SWIDTH 960 0
DWIDTH 12 0
BBX 11 10 0 -1
BITMAP
0F20
7FA0
49A0
7DA0
4EA0
55A0
5FA0
4CA0
7E20
BD20
ENDCHAR
STARTCHAR 5288
ENCODING 21128
SWIDTH 960 0
DWIDTH 12 0
BBX 11 10 0 -1
BITMAP
3C80
4540
3D40
40A0
7FE0
BC80
0000
3FE0
0420
38C0
ENDCHAR
STARTCHAR 5289
ENCODING 21129
SWIDTH 960 0
DWIDTH 12 0
BBX 10 11 1 -2
BITMAP
EE40
8B40
AB40
F540
1140
6D40
BB40
7D40
5440
5640
A880
ENDCHAR
STARTCHAR 528D
ENCODING 21133
SWIDTH 960 0
DWIDTH 12 0
BBX 10 10 1 -1
BITMAP
1040
2940
4540
BB40
6F40
AB40
6F40
0540
4840
AEC0
ENDCHAR
STARTCHAR 5291
ENCODING 21137
SWIDTH 960 0
DWIDTH 12 0
BBX 10 10 1 -1
BITMAP
1040
EEC0
EEC0
DAC0
9AC0
45C0
7CC0
44C0
7C40
8400
ENDCHAR
STARTCHAR 5292
ENCODING 21138
SWIDTH 960 0
DWIDTH 12 0
BBX 11 10 0 -1
BITMAP
1000
28E0
2460
DA60
7F60
5BA0
7FA0
24A0
28A0
5F60
ENDCHAR
STARTCHAR 529B
ENCODING 21147
SWIDTH 960 0
DWIDTH 12 0
BBX 8 10 2 -1
BITMAP
10
10
FF
11
11
11
21
21
41
86
ENDCHAR
STARTCHAR 529F
ENCODING 21151
SWIDTH 960 0
DWIDTH 12 0
BBX 10 11 1 -2
BITMAP
0200
FA00
27C0
2240
2240
2240
2240
3A40
C440
0880
0800
ENDCHAR
STARTCHAR 52A0
ENCODING 21152
SWIDTH 960 0
DWIDTH 12 0
BBX 10 11 1 -2
BITMAP
2000
23C0
7A40
2A40
2A40
2A40
4A40
4A40
4A40
8BC0
1000
ENDCHAR
STARTCHAR 52A3
ENCODING 21155
SWIDTH 960 0
DWIDTH 12 0
BBX 10 11 1 -2
BITMAP
0800
2880
4940
0600
0800
F800
7F80
0880
0880
3080
4100
ENDCHAR
STARTCHAR 52A4
ENCODING 21156
SWIDTH 960 0
DWIDTH 12 0
BBX 10 11 1 -2
BITMAP
0100
F900
83C0
8140
7D40
9140
9240
9240
9240
9440
0080
ENDCHAR
STARTCHAR 52A9
ENCODING 21161
SWIDTH 960 0
DWIDTH 12 0
BBX 10 11 1 -2
BITMAP
0100
F100
93C0
7140
9140
9240
F240
9240
BA40
C440
0080
ENDCHAR
STARTCHAR 52AA
ENCODING 21162
SWIDTH 960 0
DWIDTH 12 0
BBX 10 10 1 -1
BITMAP
47C0
F880
9280
F100
2A80
C440
0800
7F80
1080
6180
ENDCHAR
STARTCHAR 52AB
ENCODING 21163
SWIDTH 960 0
DWIDTH 12 0
BBX 10 11 1 -2
BITMAP
2100
2100
FBC0
2140
2140
F940
5240
4A40
BA40
4440
0080
ENDCHAR
STARTCHAR 52BE
ENCODING 21182
SWIDTH 960 0
DWIDTH 12 0
BBX 10 11 1 -2
BITMAP
1100
2100
F9C0
4940
3140
2140
4940
9140
2A40
C640
0080
ENDCHAR
STARTCHAR 52C1
ENCODING 21185
SWIDTH 960 0
DWIDTH 12 0
BBX 10 11 1 -2
BITMAP
F900
4900
ABC0
D140
A940
0940
FA40
2240
2240
FC40
0080
ENDCHAR
STARTCHAR 52C3
ENCODING 21187
SWIDTH 960 0
DWIDTH 12 0
BBX 10 11 1 -2
BITMAP
2100
F900
21C0
FD40
8540
7140
2140
FA40
2240
0240
2080
ENDCHAR
STARTCHAR 52C5
ENCODING 21189
SWIDTH 960 0
DWIDTH 12 0
BBX 11 11 1 -2
BITMAP
2100
FD00
21E0
FD20
A520
FD20
3120
6940
A640
2240
0080
ENDCHAR
STARTCHAR 52C7
ENCODING 21191
SWIDTH 960 0
DWIDTH 12 0
BBX 8 10 2 -1
BITMAP
7E
04
FF
91
FF
91
7E
FF
11
E3
ENDCHAR
STARTCHAR 52C9
ENCODING 21193
SWIDTH 960 0
DWIDTH 12 0
BBX 11 10 1 -1
BITMAP
4100
7100
93C0
7940
A940
AA40
7240
2200
64A0
9FC0
ENDCHAR
STARTCHAR 52CD
ENCODING 21197
SWIDTH 960 0
DWIDTH 12 0
BBX 10 11 1 -2
BITMAP
2100
FD00
03C0
7940
8940
8940
7140
6A40
A640
2440
0480
ENDCHAR
STARTCHAR 52D2
ENCODING 21202
SWIDTH 960 0
DWIDTH 12 0
BBX 10 11 1 -2
BITMAP
5100
F900
53C0
2140
F940
A940
FA40
2240
FA40
2440
0080
ENDCHAR
STARTCHAR 52D5
ENCODING 21205
SWIDTH 960 0
DWIDTH 12 0
BBX 10 11 1 -2
BITMAP
1900
6100
FFC0
F940
A940
F940
F940
2240
7A40
7C40
8080
ENDCHAR
STARTCHAR 52D6
ENCODING 21206
SWIDTH 960 0
DWIDTH 12 0
BBX 10 10 1 -1
BITMAP
F900
8900
F9C0
F940
0140
F940
F940
8940
FA40
FAC0
ENDCHAR
STARTCHAR 52D8
ENCODING 21208
SWIDTH 960 0
DWIDTH 12 0
BBX 11 11 1 -2
BITMAP
4900
FD00
79E0
4940
7940
FF40
B140
B140
CE40
FE40
0080
ENDCHAR
STARTCHAR 52D9
ENCODING 21209
SWIDTH 960 0
DWIDTH 12 0
BBX 11 10 0 -1
BITMAP
0100
39E0
2F40
1080
7D40
12A0
33E0
5120
9120
3260
ENDCHAR
STARTCHAR 52DB
ENCODING 21211
SWIDTH 960 0
DWIDTH 12 0
BBX 10 10 1 -1
BITMAP
F900
8900
FBC0
0140
F940
F940
8940
FA40
FA40
8CC0
ENDCHAR
STARTCHAR 52DD
ENCODING 21213
SWIDTH 960 0
DWIDTH 12 0
BBX 12 11 0 -2
BITMAP
7100
5520
57E0
7180
57F0
5340
7520
53D0
5240
9240
0480
ENDCHAR
STARTCHAR 52DE
ENCODING 21214
SWIDTH 960 0
DWIDTH 12 0
BBX 10 10 1 -1
BITMAP
2940
B580
2100
DEC0
FFC0
8840
BFC0
0900
1100
6300
ENDCHAR
STARTCHAR 52DF
ENCODING 21215
SWIDTH 960 0
DWIDTH 12 0
BBX 11 10 1 -1
BITMAP
1200
FFC0
6D00
3F00
3F00
1000
EFC0
7F80
9160
7300
ENDCHAR
STARTCHAR 52E2
ENCODING 21218
SWIDTH 960 0
DWIDTH 12 0
BBX 11 10 1 -1
BITMAP
2200
7780
FA80
EA80
7BA0
7C40
8800
7F80
0880
7180
ENDCHAR
STARTCHAR 52E3
ENCODING 21219
SWIDTH 960 0
DWIDTH 12 0
BBX 10 11 1 -2
BITMAP
2100
F900
F9C0
FD40
F940
8940
F940
FA40
FA40
8A40
0080
ENDCHAR
STARTCHAR 52E4
ENCODING 21220
SWIDTH 960 0
DWIDTH 12 0
BBX 10 11 1 -2
BITMAP
4900
FD00
53C0
2140
F940
F940
2240
7A40
7A40
3C40
C080
ENDCHAR
STARTCHAR 52F3
ENCODING 21235
SWIDTH 960 0
DWIDTH 12 0
BBX 11 11 1 -2
BITMAP
F080
FC80
21E0
FD20
F520
FD20
2120
7940
D940
D640
0080
ENDCHAR
STARTCHAR 52F5
ENCODING 21237
SWIDTH 960 0
DWIDTH 12 0
BBX 12 11 0 -2
BITMAP
7F40
7E40
54F0
6A50
5E50
6A50
5C90
7FA0
67A0
A920
0200
ENDCHAR
STARTCHAR 52F8
ENCODING 21240
SWIDTH 960 0
DWIDTH 12 0
BBX 10 11 1 -2
BITMAP
5100
FD00
FDC0
B540
FD40
9140
F940
7D40
7E40
9240
6C80
ENDCHAR
STARTCHAR 52FA
ENCODING 21242
SWIDTH 960 0
DWIDTH 12 0
BBX 10 10 1 -1
BITMAP
2000
3FC0
4040
8040
0040
3E40
0040
0040
0040
0180
ENDCHAR
STARTCHAR 52FB
ENCODING 21243
SWIDTH 960 0
DWIDTH 12 0
BBX 10 10 1 -1
BITMAP
2000
3FC0
4040
8040
3E40
0040
0040
1C40
0040
0180
ENDCHAR
STARTCHAR 52FE
ENCODING 21246
SWIDTH 960 0
DWIDTH 12 0
BBX 10 10 1 -1
BITMAP
2000
3FC0
4040
9040
1040
2440
2440
2640
7940
0180
ENDCHAR
STARTCHAR 52FF
ENCODING 21247
SWIDTH 960 0
DWIDTH 12 0
BBX 10 10 1 -1
BITMAP
1000
3FC0
2A40
4A40
9240
1240
2440
4480
0880
3180
ENDCHAR
STARTCHAR 5305
ENCODING 21253
SWIDTH 960 0
DWIDTH 12 0
BBX 10 10 1 -1
BITMAP
2000
3F80
4080
8080
3E80
2280
3E80
2180
2040
3FC0
ENDCHAR
STARTCHAR 5308
ENCODING 21256
SWIDTH 960 0
DWIDTH 12 0
BBX 10 10 1 -1
BITMAP
2000
3FC0
4040
8440
5540
4940
5540
7140
7F40
01C0
ENDCHAR
STARTCHAR 530D
ENCODING 21261
SWIDTH 960 0
DWIDTH 12 0
BBX 10 11 1 -1
BITMAP
2000
2000
7FC0
8940
7FC0
0840
7F40
3F40
4940
7F40
49C0
ENDCHAR
STARTCHAR 530F
ENCODING 21263
SWIDTH 960 0
DWIDTH 12 0
BBX 11 10 1 -1
BITMAP
2200
F3C0
6440
9F40
6D40
F540
8640
7480
1420
27E0
ENDCHAR
STARTCHAR 5310
ENCODING 21264
SWIDTH 960 0
DWIDTH 12 0
BBX 10 10 1 -1
BITMAP
2000
3FC0
4040
BF40
3F40
3F40
3F40
4940
7F40
37C0
ENDCHAR
STARTCHAR 5315
ENCODING 21269
SWIDTH 960 0
DWIDTH 12 0
BBX 7 10 3 -1
BITMAP
80
80
84
88
B0
C0
80
80
82
FE
ENDCHAR
STARTCHAR 5316
ENCODING 21270
SWIDTH 960 0
DWIDTH 12 0
BBX 10 10 1 -1
BITMAP
2400
2400
2400
6440
A780
2400
2400
2400
2440
27C0
ENDCHAR
STARTCHAR 5317
ENCODING 21271
SWIDTH 960 0
DWIDTH 12 0
BBX 10 10 1 -1
BITMAP
1200
1200
1200
F280
1300
1200
1200
7200
9200
13C0
ENDCHAR
STARTCHAR 5319
ENCODING 21273
SWIDTH 960 0
DWIDTH 12 0
BBX 10 10 1 -1
BITMAP
7A00
8A00
7A00
8AC0
7300
FE00
6200
9A40
E180
BFC0
ENDCHAR
STARTCHAR 5320
ENCODING 21280
SWIDTH 960 0
DWIDTH 12 0
BBX 10 10 1 -1
BITMAP
FFC0
8000
9F80
9000
9000
9F80
A200
A200
C200
FFC0
ENDCHAR
STARTCHAR 5321
ENCODING 21281
SWIDTH 960 0
DWIDTH 12 0
BBX 10 10 1 -1
BITMAP
FFC0
8000
BF80
8400
8400
9F00
8400
BFC0
8000
FFC0
ENDCHAR
STARTCHAR 5323
ENCODING 21283
SWIDTH 960 0
DWIDTH 12 0
BBX 10 10 1 -1
BITMAP
FFC0
8000
BF80
A480
BF80
A480
BF80
8400
8400
FFC0
ENDCHAR
STARTCHAR 532A
ENCODING 21290
SWIDTH 960 0
DWIDTH 12 0
BBX 10 10 1 -1
BITMAP
FFC0
8A00
8A00
BB80
BB80
8A00
BBC0
8A00
9200
FFC0
ENDCHAR
STARTCHAR 532F
ENCODING 21295
SWIDTH 960 0
DWIDTH 12 0
BBX 10 10 1 -1
BITMAP
FFC0
8100
B500
C7C0
AD00
8780
A7C0
A500
C7C0
FFC0
ENDCHAR
STARTCHAR 5339
ENCODING 21305
SWIDTH 960 0
DWIDTH 12 0
BBX 10 10 1 -1
BITMAP
FFC0
9200
9200
9200
9200
9200
9240
A380
8000
FFC0
ENDCHAR
STARTCHAR 533F
ENCODING 21311
SWIDTH 960 0
DWIDTH 12 0
BBX 10 10 1 -1
BITMAP
FFC0
8800
BF80
8C00
8800
BF80
9F00
B100
8F00
FFC0
ENDCHAR
STARTCHAR 5340
ENCODING 21312
SWIDTH 960 0
DWIDTH 12 0
BBX 10 10 1 -1
BITMAP
FFC0
8000
9F00
9100
9F00
8000
FB80
CA80
BB80
FFC0
ENDCHAR
STARTCHAR 5341
ENCODING 21313
SWIDTH 960 0
DWIDTH 12 0
BBX 10 10 1 -1
BITMAP
0400
0400
0400
0400
FFC0
0400
0400
0400
0400
0400
ENDCHAR
STARTCHAR 5343
ENCODING 21315
SWIDTH 960 0
DWIDTH 12 0
BBX 10 10 1 -1
BITMAP
0180
7E00
0400
0400
0400
FFC0
0400
0400
0400
0400
ENDCHAR
STARTCHAR 5344
ENCODING 21316
SWIDTH 960 0
DWIDTH 12 0
BBX 10 10 1 -1
BITMAP
2100
2100
2100
2100
FFC0
2100
2100
2100
2100
2100
ENDCHAR
STARTCHAR 5347
ENCODING 21319
SWIDTH 960 0
DWIDTH 12 0
BBX 10 10 1 -1
BITMAP
0500
7900
1100
1100
FFC0
1100
1100
2100
2100
4100
ENDCHAR
STARTCHAR 5348
ENCODING 21320
SWIDTH 960 0
DWIDTH 12 0
BBX 10 10 1 -1
BITMAP
2000
2000
5F80
C400
0400
FFC0
0400
0400
0400
0400
ENDCHAR
STARTCHAR 5349
ENCODING 21321
SWIDTH 960 0
DWIDTH 12 0
BBX 10 10 1 -1
BITMAP
0800
0800
7F80
2900
2100
FFC0
2100
2100
4100
C100
ENDCHAR
STARTCHAR 534A
ENCODING 21322
SWIDTH 960 0
DWIDTH 12 0
BBX 10 10 1 -1
BITMAP
0900
2900
48C0
7F80
0800
0800
FFC0
0800
0800
0800
ENDCHAR
STARTCHAR 534D
ENCODING 21325
SWIDTH 960 0
DWIDTH 12 0
BBX 10 10 1 -1
BITMAP
0040
7C40
0440
0440
0440
FF80
8400
8400
8400
8780
ENDCHAR
STARTCHAR 5351
ENCODING 21329
SWIDTH 960 0
DWIDTH 12 0
BBX 10 10 1 -1
BITMAP
0800
3F80
4880
3F80
4880
3F80
1200
FFC0
0200
0200
ENDCHAR
STARTCHAR 5352
ENCODING 21330
SWIDTH 960 0
DWIDTH 12 0
BBX 10 10 1 -1
BITMAP
0400
7FC0
2100
2300
5A80
0400
FFC0
0400
0400
0400
ENDCHAR
STARTCHAR 5353
ENCODING 21331
SWIDTH 960 0
DWIDTH 12 0
BBX 9 10 2 -1
BITMAP
0800
0F80
0800
F700
FF00
8100
FF00
0800
FF80
0800
ENDCHAR
STARTCHAR 5354
ENCODING 21332
SWIDTH 960 0
DWIDTH 12 0
BBX 10 11 1 -2
BITMAP
4200
4F80
4480
E400
4880
4900
5DC0
5540
5540
5640
0800
ENDCHAR
STARTCHAR 5357
ENCODING 21335
SWIDTH 960 0
DWIDTH 12 0
BBX 10 10 1 -1
BITMAP
0400
FFC0
0800
F7C0
9240
BF40
8840
BF40
8840
88C0
ENDCHAR
STARTCHAR 535A
ENCODING 21338
SWIDTH 960 0
DWIDTH 12 0
BBX 11 10 0 -1
BITMAP
2140
2FE0
FFE0
2920
2FE0
2FE0
2040
2FE0
2440
22C0
ENDCHAR
STARTCHAR 535C
ENCODING 21340
SWIDTH 960 0
DWIDTH 12 0
BBX 4 10 5 -1
BITMAP
80
80
80
C0
A0
90
80
80
80
80
ENDCHAR
STARTCHAR 535E
ENCODING 21342
SWIDTH 960 0
DWIDTH 12 0
BBX 10 10 1 -2
BITMAP
0800
0800
FFC0
0800
0800
0E00
0980
0880
0800
0800
ENDCHAR
STARTCHAR 5360
ENCODING 21344
SWIDTH 960 0
DWIDTH 12 0
BBX 8 10 3 -1
BITMAP
10
10
1F
10
10
10
EE
02
02
FE
ENDCHAR
STARTCHAR 5366
ENCODING 21350
SWIDTH 960 0
DWIDTH 12 0
BBX 11 10 1 -1
BITMAP
1080
1080
7C80
1080
FE80
10E0
1080
FE80
1080
FE80
ENDCHAR
STARTCHAR 5368
ENCODING 21352
SWIDTH 960 0
DWIDTH 12 0
BBX 10 10 1 -1
BITMAP
0800
0F80
3F00
2100
2F00
2900
D6C0
9F40
A140
9FC0
ENDCHAR
STARTCHAR 536F
ENCODING 21359
SWIDTH 960 0
DWIDTH 12 0
BBX 10 11 1 -2
BITMAP
3800
43C0
4A40
4A40
4A40
4A40
4A40
F240
1280
2200
4000
ENDCHAR
STARTCHAR 5370
ENCODING 21360
SWIDTH 960 0
DWIDTH 12 0
BBX 9 10 2 -1
BITMAP
3780
C880
8880
8880
E880
8880
8880
FB80
0800
0800
ENDCHAR
STARTCHAR 5371
ENCODING 21361
SWIDTH 960 0
DWIDTH 12 0
BBX 10 10 1 -1
BITMAP
1000
2F00
4200
BFC0
4000
5F00
5100
5100
5240
9F80
ENDCHAR
STARTCHAR 5374
ENCODING 21364
SWIDTH 960 0
DWIDTH 12 0
BBX 10 10 1 -1
BITMAP
2000
23C0
FE40
2240
2240
FE40
2240
4A40
4A80
F600
ENDCHAR
STARTCHAR 5375
ENCODING 21365
SWIDTH 960 0
DWIDTH 12 0
BBX 10 11 1 -2
BITMAP
3800
C7C0
AD40
AD40
AD40
8D40
8C40
F440
1480
2400
4000
ENDCHAR
STARTCHAR 5377
ENCODING 21367
SWIDTH 960 0
DWIDTH 12 0
BBX 10 10 1 -1
BITMAP
2900
4880
3F00
1400
FFC0
2100
5E80
9240
1600
1F00
ENDCHAR
STARTCHAR 537D
ENCODING 21373
SWIDTH 960 0
DWIDTH 12 0
BBX 10 10 1 -1
BITMAP
23C0
DA40
8A40
FA40
8A40
FA40
8240
BA40
C680
FA00
ENDCHAR
STARTCHAR 537F
ENCODING 21375
SWIDTH 960 0
DWIDTH 12 0
BBX 10 10 1 -1
BITMAP
E4C0
9B40
B340
BF40
B340
BD40
B140
FD40
5140
DD00
ENDCHAR
STARTCHAR 5384
ENCODING 21380
SWIDTH 960 0
DWIDTH 12 0
BBX 11 10 1 -1
BITMAP
7FE0
8000
8F80
9080
9080
9080
9380
9000
9040
8F80
ENDCHAR
STARTCHAR 5393
ENCODING 21395
SWIDTH 960 0
DWIDTH 12 0
BBX 11 10 1 -1
BITMAP
7FE0
8400
8400
9F80
8400
BB80
8400
9F80
8400
BFC0
ENDCHAR
STARTCHAR 5398
ENCODING 21400
SWIDTH 960 0
DWIDTH 12 0
BBX 11 10 1 -1
BITMAP
7FE0
8000
9F80
9480
9F80
9480
8F00
8400
9F80
BFC0
ENDCHAR
STARTCHAR 539A
ENCODING 21402
SWIDTH 960 0
DWIDTH 12 0
BBX 11 10 1 -1
BITMAP
7FE0
9F80
A080
BF80
9F80
8000
8F00
8600
BFC0
8400
ENDCHAR
STARTCHAR 539F
ENCODING 21407
SWIDTH 960 0
DWIDTH 12 0
BBX 10 10 1 -1
BITMAP
7FC0
8400
9F80
9080
9F80
9080
9F80
9400
A480
8440
ENDCHAR
STARTCHAR 53A0
ENCODING 21408
SWIDTH 960 0
DWIDTH 12 0
BBX 12 10 0 -1
BITMAP
7FF0
5E20
52A0
5EA0
52A0
52A0
5EA0
52A0
4C20
9260
ENDCHAR
STARTCHAR 53A5
ENCODING 21413
SWIDTH 960 0
DWIDTH 12 0
BBX 12 10 0 -1
BITMAP
7FF0
4080
5500
5FE0
4BA0
5A80
5A80
5EC0
4940
9320
ENDCHAR
STARTCHAR 53A6
ENCODING 21414
SWIDTH 960 0
DWIDTH 12 0
BBX 12 10 0 -1
BITMAP
7FF0
5FE0
4FC0
4FC0
4840
4FC0
4780
5F80
6300
9CE0
ENDCHAR
STARTCHAR 53AD
ENCODING 21421
SWIDTH 960 0
DWIDTH 12 0
BBX 12 10 0 -1
BITMAP
7FF0
5C80
5480
5CA0
49E0
5C80
5CC0
6540
7D20
A720
ENDCHAR
STARTCHAR 53BB
ENCODING 21435
SWIDTH 960 0
DWIDTH 12 0
BBX 10 10 1 -2
BITMAP
0400
0400
7F80
0400
0400
FFC0
0800
1100
2080
7F80
ENDCHAR
STARTCHAR 53C3
ENCODING 21443
SWIDTH 960 0
DWIDTH 12 0
BBX 11 11 1 -1
BITMAP
1200
2300
5D00
5240
FFC0
1200
69C0
F420
3B00
0C00
7000
ENDCHAR
STARTCHAR 53C8
ENCODING 21448
SWIDTH 960 0
DWIDTH 12 0
BBX 10 9 1 -1
BITMAP
3F00
2100
2100
1200
1200
0C00
0C00
1200
E1C0
ENDCHAR
STARTCHAR 53C9
ENCODING 21449
SWIDTH 960 0
DWIDTH 12 0
BBX 10 9 1 -1
BITMAP
3F00
2900
2500
1200
1200
0C00
0C00
1200
E1C0
ENDCHAR
STARTCHAR 53CA
ENCODING 21450
SWIDTH 960 0
DWIDTH 12 0
BBX 10 10 1 -1
BITMAP
7F00
1100
1200
1F80
1880
2880
2500
4200
4300
8CC0
ENDCHAR
STARTCHAR 53CB
ENCODING 21451
SWIDTH 960 0
DWIDTH 12 0
BBX 10 10 1 -1
BITMAP
1000
1000
7FC0
1000
1F00
3100
4A00
4600
8600
39C0
ENDCHAR
STARTCHAR 53CD
ENCODING 21453
SWIDTH 960 0
DWIDTH 12 0
BBX 10 10 1 -2
BITMAP
7FC0
4000
4000
7F80
5080
4900
4500
4200
8D00
B0C0
ENDCHAR
STARTCHAR 53D4
ENCODING 21460
SWIDTH 960 0
DWIDTH 12 0
BBX 12 10 0 -1
BITMAP
1000
11E0
1C20
1140
7D40
1140
5940
5480
9140
3630
ENDCHAR
STARTCHAR 53D6
ENCODING 21462
SWIDTH 960 0
DWIDTH 12 0
BBX 11 10 1 -1
BITMAP
F800
97C0
9040
F240
9280
7280
9180
B100
5280
1460
ENDCHAR
STARTCHAR 53D7
ENCODING 21463
SWIDTH 960 0
DWIDTH 12 0
BBX 10 10 1 -1
BITMAP
0780
7880
2480
4100
BEC0
BF40
1100
0A00
0C00
73C0
ENDCHAR
STARTCHAR 53DB
ENCODING 21467
SWIDTH 960 0
DWIDTH 12 0
BBX 11 11 1 -2
BITMAP
27E0
B400
AC00
27C0
7640
2640
F980
4980
4980
5240
8000
ENDCHAR
STARTCHAR 53E1
ENCODING 21473
SWIDTH 960 0
DWIDTH 12 0
BBX 12 10 0 -1
BITMAP
0C00
10E0
FF20
2120
5720
2CC0
7EC0
7C40
7CA0
7F10
ENDCHAR
STARTCHAR 53E2
ENCODING 21474
SWIDTH 960 0
DWIDTH 12 0
BBX 10 10 1 -1
BITMAP
5500
FFC0
1200
6D80
3F80
FFC0
7F80
4A80
7900
FAC0
ENDCHAR
STARTCHAR 53E3
ENCODING 21475
SWIDTH 960 0
DWIDTH 12 0
BBX 8 8 2 0
BITMAP
FF
81
81
81
81
81
81
FF
ENDCHAR
STARTCHAR 53E4
ENCODING 21476
SWIDTH 960 0
DWIDTH 12 0
BBX 10 10 1 -1
BITMAP
0400
0400
0400
FFC0
0400
0400
7F80
4080
4080
7F80
ENDCHAR
STARTCHAR 53E5
ENCODING 21477
SWIDTH 960 0
DWIDTH 12 0
BBX 10 10 1 -1
BITMAP
2000
3FC0
4040
8040
3E40
2240
2240
3E40
0040
0180
ENDCHAR
STARTCHAR 53E9
ENCODING 21481
SWIDTH 960 0
DWIDTH 12 0
BBX 10 10 1 -1
BITMAP
03C0
F440
9440
9440
9440
9440
9440
65C0
0400
0400
ENDCHAR
STARTCHAR 53EA
ENCODING 21482
SWIDTH 960 0
DWIDTH 12 0
BBX 10 9 1 -1
BITMAP
3F80
2080
2080
2080
2080
1F00
1100
2080
C040
ENDCHAR
STARTCHAR 53EB
ENCODING 21483
SWIDTH 960 0
DWIDTH 12 0
BBX 9 10 1 -1
BITMAP
0080
F480
9480
9480
9480
9480
9480
FF80
0080
0080
ENDCHAR
STARTCHAR 53EC
ENCODING 21484
SWIDTH 960 0
DWIDTH 12 0
BBX 8 10 2 -1
BITMAP
FF
11
11
21
C6
00
7F
81
81
FF
ENDCHAR
STARTCHAR 53ED
ENCODING 21485
SWIDTH 960 0
DWIDTH 12 0
BBX 11 10 1 -1
BITMAP
0700
E100
A100
A900
A900
A900
E880
1080
1040
2020
ENDCHAR
STARTCHAR 53EF
ENCODING 21487
SWIDTH 960 0
DWIDTH 12 0
BBX 9 9 2 -1
BITMAP
FF80
0100
F900
8900
8900
8900
F900
0100
0300
ENDCHAR
STARTCHAR 53F0
ENCODING 21488
SWIDTH 960 0
DWIDTH 12 0
BBX 10 10 1 -1
BITMAP
0800
1000
2100
2080
FF40
0000
3F80
2080
2080
3F80
ENDCHAR
STARTCHAR 53F1
ENCODING 21489
SWIDTH 960 0
DWIDTH 12 0
BBX 10 10 1 -1
BITMAP
0400
E800
A880
A900
A600
A800
A800
E800
0840
07C0
ENDCHAR
STARTCHAR 53F2
ENCODING 21490
SWIDTH 960 0
DWIDTH 12 0
BBX 9 10 2 -1
BITMAP
1000
1000
FF00
9100
9100
7E00
5000
3000
1000
EF80
ENDCHAR
STARTCHAR 53F3
ENCODING 21491
SWIDTH 960 0
DWIDTH 12 0
BBX 10 10 1 -1
BITMAP
1000
1000
7FC0
1000
1000
2000
3F80
5080
9080
1F80
ENDCHAR
STARTCHAR 53F8
ENCODING 21496
SWIDTH 960 0
DWIDTH 12 0
BBX 10 10 1 -1
BITMAP
FFC0
0040
7E40
0040
0040
7E40
4240
4240
3C40
0180
ENDCHAR
STARTCHAR 5403
ENCODING 21507
SWIDTH 960 0
DWIDTH 12 0
BBX 11 10 1 -1
BITMAP
0400
E7C0
A800
A000
A380
A100
A200
E400
0820
0FC0
ENDCHAR
STARTCHAR 5404
ENCODING 21508
SWIDTH 960 0
DWIDTH 12 0
BBX 10 10 1 -1
BITMAP
1000
3F00
D100
0E00
0E00
3180
FFC0
2080
2080
3F80
ENDCHAR
STARTCHAR 5408
ENCODING 21512
SWIDTH 960 0
DWIDTH 12 0
BBX 11 10 1 -1
BITMAP
0800
1400
1200
2180
FF60
0000
3F00
2100
2100
3F00
ENDCHAR
STARTCHAR 5409
ENCODING 21513
SWIDTH 960 0
DWIDTH 12 0
BBX 8 10 2 -1
BITMAP
10
10
FF
10
FF
00
7E
42
42
7E
ENDCHAR
STARTCHAR 540A
ENCODING 21514
SWIDTH 960 0
DWIDTH 12 0
BBX 9 10 2 -1
BITMAP
7F00
8100
8100
7F00
0800
FF80
8880
8880
8880
8B00
ENDCHAR
STARTCHAR 540C
ENCODING 21516
SWIDTH 960 0
DWIDTH 12 0
BBX 9 10 2 -1
BITMAP
FF80
8080
FE80
8080
BC80
C480
C480
C480
B880
8180
ENDCHAR
STARTCHAR 540D
ENCODING 21517
SWIDTH 960 0
DWIDTH 12 0
BBX 9 10 1 -1
BITMAP
0800
1780
2100
DA00
0400
0800
7F80
A080
2080
3F80
ENDCHAR
STARTCHAR 540E
ENCODING 21518
SWIDTH 960 0
DWIDTH 12 0
BBX 10 10 1 -1
BITMAP
01C0
7E00
4000
3FC0
4000
4000
5F80
5080
5080
9F80
ENDCHAR
STARTCHAR 540F
ENCODING 21519
SWIDTH 960 0
DWIDTH 12 0
BBX 10 10 1 -1
BITMAP
0400
7FC0
0400
7F80
4480
4480
3B00
2800
1800
F7C0
ENDCHAR
STARTCHAR 5410
ENCODING 21520
SWIDTH 960 0
DWIDTH 12 0
BBX 10 10 1 -1
BITMAP
0200
E200
A200
A200
AFC0
A200
A200
E200
0200
0FC0
ENDCHAR
STARTCHAR 5411
ENCODING 21521
SWIDTH 960 0
DWIDTH 12 0
BBX 9 10 2 0
BITMAP
1000
1000
EF80
8080
BC80
A480
A480
BC80
8080
8180
ENDCHAR
STARTCHAR 541B
ENCODING 21531
SWIDTH 960 0
DWIDTH 12 0
BBX 10 10 1 -1
BITMAP
3F00
0900
FFC0
0900
7F00
1000
3F80
6080
A080
3F80
ENDCHAR
STARTCHAR 541D
ENCODING 21533
SWIDTH 960 0
DWIDTH 12 0
BBX 11 10 1 -1
BITMAP
0800
FFC0
1200
0C00
0E00
F1E0
3F80
2080
2080
3F80
ENDCHAR
STARTCHAR 541F
ENCODING 21535
SWIDTH 960 0
DWIDTH 12 0
BBX 10 10 1 -1
BITMAP
0200
E300
A480
A840
A700
A000
AF80
E080
0100
0100
ENDCHAR
STARTCHAR 5420
ENCODING 21536
SWIDTH 960 0
DWIDTH 12 0
BBX 10 10 1 -2
BITMAP
0200
E280
A240
BFC0
A200
A600
A500
E880
0880
1040
ENDCHAR
STARTCHAR 5426
ENCODING 21542
SWIDTH 960 0
DWIDTH 12 0
BBX 10 10 1 -1
BITMAP
7F80
0400
0A00
3980
C840
0800
7F80
4080
4080
7F80
ENDCHAR
ENDFONT
